<?xml version="1.0" encoding="utf-8"?>
<!-- Generator: Adobe Illustrator 28.3.0, SVG Export Plug-In . SVG Version: 6.00 Build 0)  -->
<svg version="1.1" xmlns="http://www.w3.org/2000/svg" xmlns:xlink="http://www.w3.org/1999/xlink" x="0px" y="0px"
	 viewBox="0 0 175.7 274.6" style="enable-background:new 0 0 175.7 274.6;" xml:space="preserve">
<style type="text/css">
	.st0{display:none;}
	.st1{fill:#E86607;}
	.st2{fill:url(#SVGID_1_);}
	.st3{fill:#E76705;}
	.st4{fill:#EA6B0B;}
	.st5{fill:#C67E4A;}
	.st6{fill:#D4925E;}
	.st7{fill:#EFA505;}
	.st8{display:inline;}
	.st9{fill:none;}
	.st10{fill:#0CAA91;}
	.st11{fill:#00E635;}
	.st12{display:inline;fill:#EFA505;}
</style>
<g id="Organic_Original" class="st0">
	
		<image style="display:inline;overflow:visible;" width="1024" height="1024" xlink:href="BrightVeil_AI_Master.jpg"  transform="matrix(0.3329 0 0 0.3329 -77.3364 -13.4463)">
	</image>
</g>
<g id="Organic_Final">
	<g>
		<path class="st1" d="M128.3,94.5c0,0-0.1,0.2-0.2,0.6c0,0.1,0,0.1,0,0.2C128,95.3,128.2,94.6,128.3,94.5z"/>
		<path class="st1" d="M128.3,94.5C128.3,94.5,128.3,94.5,128.3,94.5L128.3,94.5z"/>
		<path class="st1" d="M99.1,180.9c0,0,0,0.1,0,0.1C99.1,181,99.1,181,99.1,180.9z"/>
		<path class="st1" d="M98.8,178.6c0-0.2,0-0.3,0-0.4C98.7,178.2,98.7,178.4,98.8,178.6z"/>
		<path class="st1" d="M98.8,178.6c0,0.2,0,0.4,0.1,0.6C98.8,178.9,98.8,178.7,98.8,178.6z"/>
		<linearGradient id="SVGID_1_" gradientUnits="userSpaceOnUse" x1="88.5707" y1="273.8723" x2="88.5707" y2="3.4223">
			<stop  offset="0.2603" style="stop-color:#EFA505"/>
			<stop  offset="0.3397" style="stop-color:#EC8D06"/>
			<stop  offset="0.4363" style="stop-color:#EA7806"/>
			<stop  offset="0.5295" style="stop-color:#E86A07"/>
			<stop  offset="0.6149" style="stop-color:#E86607"/>
		</linearGradient>
		<path class="st2" d="M168.3,205.1c-6.4-4.5-13.3-5.4-20.4-4.2c-2.4,0.4-4.7,0-7-1.1c-3.7-1.8-7.5-3.2-11.6-2.9
			c-4.3,0.2-8.5,0.3-12.8,0.1c-3.2-0.2-6.3-0.8-9.3-2.8c-3.3-2.3-5-5.9-7.4-9.6c-0.2-0.4-1.1-1.4-1.7-3.7c-0.3-1.2-0.3-3.4-0.2-5.3
			c-0.1-4.1,7-10.4,11.7-12.3c4.7-1.9,9.7-3.5,14.2-5.9c8.2-4.4,12.5-10.1,13.8-19.1c0.3-2.9,1.2-6.8-0.6-11.8
			c-3-8.1-8.2-21.6-8.9-24.3c-0.7-2.8-0.5-5,0-6.8c0-0.1,0-0.1,0-0.2c0.6-2.3,1.3-4.5,2.2-6.6c-3.9,3.3-6.1,7.2-5,12.1
			c1.3,5.7,4.7,13.5,5.1,16.8s0.1,4.5-0.3,9.2c-0.4,4.7-5.2,13.9-12.1,18.6c-6.7,4.5-14.1,8.4-18.6,15.2c0-1,0.7-1.7,1.2-2.5
			c3.2-4.9,7.9-8.6,12.7-12.3c9.3-7.2,14.2-16,13.8-27c-0.2-5.5-2.1-10.6-4.3-15.7c-2.8-6.6-6.7-12.8-9.7-19.3
			c-2-4.3-2.7-8.7-1.4-13.3c0.7-2.3,2-4.3,3.1-6.5c-8.1,5.8-11.5,13.1-8.9,22.3c0.9,3,2.3,5.8,3.7,8.6c3.1,6.2,5.6,12.5,5.3,19.5
			c-0.1,2.8-1,6.5-2,7.8c1.5-8.4-0.7-16-4.9-23.2c-1.7-3.1-3.4-6.2-5.2-9.2c-3.3-5.8-4.2-11.7-1.2-17.9c1.2-2.6,2.1-5.3,3.2-8
			c3.4-8.3,3.3-16.4-1.6-24.2c-2.2-3.6-4.8-7-7.3-10.5c-4.1-5.7-6-11.7-4.2-18.4C92.5,8.2,93.6,6,95,3.4c-1.7,1.1-2.5,2.2-3.5,3.3
			c-6.4,6.7-8.9,14.3-6.4,22.9c1,3.3,2.4,6.4,3.8,9.5c3,6.6,2.5,12.9-2.1,18.9c-2.3,3-4.5,6.2-6.7,9.3c-6.2,8.6-7.4,17.8-3.5,27.4
			c1.1,2.8,2.3,5.7,4.2,8.2c4.7,6.4,4.2,12.8,0.6,19.4c-1.8,3.3-4.6,6.1-5.9,9.7c-0.7,1.8-1,3.6-1.6,5.4c-0.5-3,0.5-5.7,1.8-8.3
			c1.8-3.7,4.3-7.2,4.8-11.3c0.3-2.8-0.1-5.5-1.1-8.2c-0.5,3.5-1.8,6.6-4.1,9.3c-3,3.6-5.4,7.5-5.7,12.1c-0.6-1.1-0.5-2.1-0.4-3.2
			c0.4-3.5,1.9-6.6,3.1-9.9c3.9-10.7,2.9-20.8-4.4-30.2c-2.9-3.7-7-6-12-8.1c0.4,0.5,0.4,0.7,0.6,0.8c6.1,5.7,7.6,12.3,4.8,19.7
			c-1.7,4.6-4.3,8.8-6.5,13.1c-4.2,8.1-5,16.4-1.1,24.8c2.8,6,7.5,10.6,13,14.7c0.5,0.4,1,0.7,1.4,1.1c0.4,0.4,0.8,0.8,1.2,1.2
			c-8.6-5.2-19.5-7.2-26.4-14.8c1,3.5,2.9,6.5,5.2,9.3c4.1,4.9,9.9,7.2,16,9.4c7.3,2.6,16.7,11.7,16.8,15.6c0.1,2.1,0.2,5.3-0.1,6.4
			c-0.6,1.8-0.6,1.8-1,2.6c-1,1.9-2.2,3.4-3.1,4.8c-6.3,9.8-20.3,12.4-28.6,8.1c-4.9-2.6-9.5-2.6-14.3,0.4c-4.3,2.8-8.8,5-13.7,5
			c-2.4,0-4.6,0.8-6.8,2.2c-2.6,1.7-5,4.1-8.4,4.7c1.6,0.8,2.8,0.2,3.9-0.4c4.8-2.6,9.7-4.8,15-4.1c1.6,0.2,3.2-0.3,4.7-0.9
			c2.8-1,5.5-2.1,8.3-3.2c-2.9,2.8-5.3,6.1-7.5,9.7c-1.8,2.8-4.1,4.7-6.8,5.1c-4.7,0.8-8,4.5-11.1,8.6c3.1-2.2,6.2-4.7,9.8-5.4
			c5.4-1.1,9.7-4.4,12.9-10.3c1-1.8,2.5-3.2,3.9-4.7c2-2.1,4.4-2.7,6.7-1.6c6.6,3.1,13.4,3.9,20.3,2.4c-3.5,3.6-7.6,5.8-11.9,6.2
			c-6.6,0.7-11.9,3.8-15.6,11.2c-1.3,2.5-3.2,3.6-5.4,4c-2.6,0.5-5.1,1-7.3,3.1c-2.5,1.8-4.2,4.8-6,7.7c2.2-2.2,4.4-4.4,6.6-6.6l0,0
			c0,0,0,0,0,0c3.6-2.5,7.9-1.7,12.1-4c-3.8,6.2-6.5,12.6-10.5,17.7c0.7,0.3,1.2-0.4,1.6-0.9c4-5.5,8.5-10.5,10.9-17.6
			c1.4-4,3.6-6.8,6.8-7.8c3.7-1.1,7.5-1.8,11.2-2.7c-4,3.4-7.4,7.7-8.5,13.9c-1.1,6-3.7,10.1-7.3,13.6c-2.7,2.5-4.6,6-5.1,10.5
			c1.3-3.6,3.3-6.4,5.8-8.6c2.4-2.2,4.9-4.4,6.9-7.8c0.9,5,0.5,9.4-0.4,13.9c1.6-1.7,2.5-3.8,2.8-6.3c0.3-1.7,0-3.4,0.1-5
			c0.2-3.1-0.4-6.3,0.3-9.3c1.1-4.3,3-7.8,5.7-10.6c3-3,6.2-5.7,8.4-9.4c-0.1,8.5,2.1,17.7-3.9,24.7c3.9-1.7,6-5.3,6.6-10.4
			c0.3-3.2,0.3-6.4,0.4-9.6c0.1-4.1,1.3-7.7,3.9-10c3.1-2.8,6.3-5.3,9.6-8.1c0,0.4-0.8,2.5-1.3,3.3c-3,5.9-4.7,12.3-5,19.4
			c-0.2,6.1-1.6,11.5-4.8,16.2c-2.5,3.6-5.3,6.5-8.5,9.1c-2.3,1.9-4.4,4-5.6,7.3c-1.4,3.6-1.7,7.9-4.3,10.7c1.9-1.4,3.5-3.2,4.1-5.9
			c1.4-5.9,5.2-8.4,8.8-11.3c-1.9,5.2-1.3,10.2,0.2,15.2c0.1,2.5-0.1,4.9-0.7,7.2c1.9-3.5,2.2-7.3,1.2-11.3c0,0,0,0,0,0
			c-0.6-6.1,1.2-10.9,4.7-14.8c2.2-2.4,4.3-4.9,5.7-9.1c0,4,0.9,6.9,1.8,9.7c0.9,2.8,0.9,5.7-0.1,8.4c-0.7,2-1.5,3.9-2.3,5.8
			c-1,2.6-1.5,5.4-1.2,8.4c0.6-1.8,0.8-3.9,1.7-5.5c2.7-4.6,5.5-9,4.7-15.8c3.5,4.8,4.9,9.9,4.6,15.8c-0.1,2.1,0.3,4,1,5.8
			c1.3,3,2.6,5.9,4.1,9.3c-0.1-2.8-0.9-4.7-1.6-6.7c-1.1-2.8-1.7-5.8-1.5-9c0.3-5.4-0.5-10.4-3.1-14.7c-2.7-4.6-4.7-9.5-5.3-15.4
			c-1.1-13,2.5-20.8,2.5-20.8c-0.4,5.8,0.6,10.3,2.7,14.5c1.7,3.4,3.6,6.5,5.8,9.3c2.9,3.6,4.6,8,4.5,13.4
			c-0.1,10.1,3.5,17.6,9.3,23.7c-1.7-5.5-5.6-9.4-6.5-15.4c-0.3-4.2,0-9.8-0.5-12.8s-0.6-2.4-0.5-4.2c1.5,3.7,3.6,5.9,5.7,8.2
			c1.6,1.6,3.2,3.4,3.8,5.9c1.4,5.8,4.4,9.5,8.6,12.7c-0.8-1.9-1.7-3-2.7-4c-1.7-1.6-2.9-3.7-3.3-6.3c-0.8-5-3-8.6-5.9-11.8
			c-4.5-4.9-8.3-10.6-11.7-16.9c-3.4-6.4-6-13.3-5.3-18.8c0.7-5.4,2.4-8.2,2.4-8.2s0.9,5,3.3,9.9c2.4,4.9,2.4,4.9,5.4,8.3
			c1.4,1.6,2.7,3.3,4,4.9c2.9,3.3,4.6,7.4,5.2,12.3c0.2,1.5,0.2,3.3,1.3,4.8c0.2-6.8,0.1-13.2-3.7-18.3c3.9,2.4,6.7,6.4,9.9,9.9
			c3.5,3.7,5.4,8.1,4.7,14.4c-0.5,4.5,0.3,8.8,3.2,11.9c2.2,2.3,4.6,4.4,6.2,7.5c-0.5-2.5-1.5-4.5-2.8-6.1
			c-4.2-4.9-4.9-11.1-4.2-17.6c5.9,0.3,8.4,7.8,13.1,10.9c-2.1-2.2-3-5.5-4.6-8c7.3,0.6,11.9,7.1,16.9,12.9c-1.5-2.9-3.2-5.3-4.6-8
			c-2.4-4.4-5.7-6.2-9.6-7.3c-4.4-1.2-9-2.6-11.9-7.6c-4.4-7.8-9.8-13.5-16.4-17.6c-4.5-2.7-7.1-8-9.1-14.4c2.5,1.4,4.7,2.1,6.9,2.6
			c5,1.1,9.2,3.8,11.5,10.5c1.8,5.4,5.3,8.6,9.7,10c4.1,1.3,7.5,3.7,9.6,8.9c0.4,1.1,1,2.1,2.1,2.7c-1.3-5.6-3.2-10.3-7.3-12.6
			c-1.4-0.8-2.8-1.5-4.2-2.2c-3.1-1.3-5.2-4-6.6-7.8c-1.2-3.3-2.1-6.9-4.4-9.4c2.5,1.3,4.9,2.6,7.5,3.4c5,1.4,9.3,4.1,12.8,9.1
			c2.9,4,6,7.6,10,9.7c2.4,1.2,3.9,3.7,4.9,6.7c0.7,2,1.3,4.1,2.1,6c0.6,1.5,1.3,3,3.1,3.3c-3.4-4.7-2.8-11.7-6.8-15.9
			c6.8,0.9,12.3,4.4,16.8,11.8c-3.3-9.8-9.2-12.8-15.8-14.5c-4.3-1.1-8.2-3.3-11-8c-3.3-5.7-6.7-11.1-12.6-11.8
			c0.9-0.2,1.5-1.1,3.1-1.1s3.2-0.3,5.2,0.4c1.2,0.5,2.5,0.8,3.7,1.4c4.7,2.1,9.2,5.2,14,7.1c2.6,1,4.9,2.8,6.8,5.3
			c3.6,4.4,8.2,6.4,12.6,8.8c-0.7-0.9-1.5-1.7-2.4-2.3c-3.9-2.7-7.5-6-10.7-10.2c-1.9-2.5-4.4-3.7-7-4.7c-1.1-0.4-2.2-1-3.9-1.7
			c1.6-0.1,2.6-0.1,3.5-0.3c5.3-1.1,10.5-1,15.6,0.9c2.3,0.8,4.4,2.2,6.8,2.4c0.3-0.2,0.6-0.2,0.8-0.7
			C170.9,206.5,169.5,206,168.3,205.1z"/>
	</g>
	<g>
		<path class="st3" d="M87.9,166.4c-0.3,1.8-0.5,3.6-0.9,5.4c0,0.2-0.1,0.3-0.1,0.5h1.4C88.3,170.4,88.2,168.4,87.9,166.4z"/>
		<path class="st1" d="M77,65.1c1.4-2.2,3-4.3,4.3-6.5c2.5-4.2,3.2-8.6,1-13.1c-0.7,1.3-0.3,2.7-0.5,4c0,0.1,0,0.1,0,0.2
			c-0.3,0.2-0.3,0-0.4-0.2c-1.2,4-3.6,7.4-6.5,10.5c-3.8,4.2-6.8,8.8-7.1,14.4c-0.2,3.4,0.9,8.7,2.4,10.5C71.1,78,72.9,71.3,77,65.1
			z"/>
		<path class="st4" d="M50.6,139.2c-1.2-2.4-1.8-5-2.4-7.5c0,0.1,0,0.2-0.1,0.4c0,0.1-0.3,0.4-0.3,0.2c-0.1-2,0-4,0-5.9
			c0,0,0.2,0,0.2,0c0.1,0.1,0.1,0.2,0.2,0.3c0,0,0,0,0,0c1.9-6.9,2.6-15.3,0.5-18.3c0.5,3.3-0.4,6.3-1.5,9.3
			c-1.3,3.6-2.7,7.2-2.4,11.1C45.1,132.9,46.9,136.5,50.6,139.2z"/>
		<path class="st5" d="M81.6,47.1c0.1-0.6-0.2-1.3,0.7-1.6c-0.3-0.8-0.6-1.7-1.7-2.5c1.1,2.3,0.8,4.4,0.8,6.5
			C81.9,48.8,81.5,48,81.6,47.1z"/>
		<path class="st5" d="M81.7,49.8c0,0,0-0.1,0-0.2c0.2-1.3-0.3-2.7,0.5-4c-0.9,0.3-0.6,1-0.7,1.6c-0.1,0.8,0.3,1.7-0.2,2.5
			C81.4,49.8,81.5,50,81.7,49.8z"/>
		<path class="st6" d="M48.2,131.7c0-1.7,0-3.4,0-5.1c0,0,0,0,0,0C47.8,128.3,47.8,130,48.2,131.7z"/>
		<path class="st6" d="M48,126.3c0,0-0.2,0-0.2,0c0,2-0.1,4,0,5.9c0,0.2,0.2,0,0.3-0.2c0-0.1,0-0.2,0.1-0.4c-0.4-1.7-0.4-3.4,0-5.1
			c0,0,0,0,0,0c0,0,0,0,0,0C48.1,126.5,48.1,126.4,48,126.3z"/>
	</g>
	<path class="st7" d="M119.5,153.2c5.1-2.3,9.1-5.2,11.2-10c1.4-3.1,2.7-6.2,3-9.6c-0.1,0.1-2.3,5.1-5.6,9.5
		c-2.5,3.3-6,5.3-10.8,7.8c-4.5,2.3-15.9,9.3-18.3,14.7C98.9,165.6,109.7,157.7,119.5,153.2z"/>
	<path class="st7" d="M120.7,108.5c1.4,11.1-3.1,20-13,26.9c-2.7,1.9-5.5,3.7-8.1,5.8c-4.8,3.9-8.2,8.5-9.8,14.2
		c-0.9,3.1-1.1,6.4-2,9.7c-0.7-3.1-1.4-6.1-2-9c-1.2-5-0.6-9.9,0.8-14.7c1.4-4.7,4.6-8.6,7.4-12.7c2.1-3.1,2.9-6.3,3.2-9.8
		c0.5-6.5-1.8-12.3-5.6-17.8c-3.1-4.4-6.4-8.8-7.2-14.1c-0.3-2.3-0.1-6.3,1.1-7.8c-0.5,5.6,1.8,10.2,4.7,14.7c1.8,2.8,4,5.3,5.8,8.1
		c3.5,5.6,6,11.6,5.7,18.2c-0.3,5.5-2.3,10.7-4.6,15.7c-1,2.1-2.4,4.1-2.9,6.4c1.1-1.2,2.1-2.4,3.1-3.7c5.9-7.4,10.6-15.1,9.1-24.7
		c-0.7-4.3-1.6-8.5-4.1-12.2c-1.9-3-4.1-5.8-6-8.8c-2.8-4.4-5.5-8.9-5.3-14.1c0.1-4.9,2.8-9.2,5.2-13.5c3.2-5.8,4.8-11.8,3.7-18.4
		c-0.7-4.1-2.7-7.7-5.3-11.1c-1-1.4-2-2.9-3.7-3.9c0.4,1.1,1.1,2,1.7,3c4,6.2,5.5,12.6,2.6,19.6c-2.2,5.3-5.6,10.1-8.7,15
		c-6,9.7-6.6,19.4-0.8,29.4c1.8,3.1,3.7,6.3,4.5,9.9c1.2,5,1.4,10-1.6,14.7c-1.7,2.6-3.4,5.2-5,7.8c-2.2,3.5-4.3,7.1-4.4,11.3
		c-0.1,4.7,1.7,8.9,3.1,13.2c0.4,1.2,0.4,2.6,0.4,2.6c-2.8-5.2-6.6-9.4-10.9-13.4c-4.3-4.1-6.8-9.1-7.7-14.6
		c-0.9-4.8-0.2-9.5,1.2-14.2c0.8-2.9,1.7-5.8,2.1-8.8c0.4-2.9,0.4-5.8-0.4-8.6c0,4.7-1.4,9.1-3.4,13.4c-1.8,4-3.7,7.8-4.6,12.2
		c-1.4,7,0.4,13.1,5.1,18.7c2.6,3.1,5.7,5.8,8.8,8.5c2.9,2.6,5.7,5.3,7.9,8.2c0.2,0.4,2.9,6,4.5,12.3c0,0.1,0,0.1-0.1,0.2h0.1
		c1.2,4.9-1,13.4-3,16.7c0,0,3.7-6.5,7.8-7.3s6.7,7.3,6.7,7.3s-5.6-21.1-4-27.1c0.9-3.1,2-11.4,12-18.4c3.6-2.5,7.1-5.3,10.3-8.3
		c2-2,3.6-4.2,4.6-6.7c1.1-3,1.8-6.1,2.1-9.2C122.3,115.7,122.3,112,120.7,108.5z M94.6,156.4"/>
</g>
<g id="Digital_Original" class="st0">
	
		<image style="display:inline;overflow:visible;" width="1024" height="1024" xlink:href="BrightVeil_AI_WrappedPhoenix.jpg"  transform="matrix(0.3826 0 0 0.3826 -79.295 -13.4463)">
	</image>
</g>
<g id="Digital_Roots" class="st0">
</g>
<g id="Layer_6" class="st0">
	<g class="st8">
		<path class="st9" d="M60.3,139.6c-8.5-1.1-16.4-3.8-23.5-8.8c-1.6-1.1-3.1-2.4-4.9-3.8c1.1,4.1,2.9,7.4,5.6,10.3
			c5,5.3,11.4,7.4,18.6,7.6c4.6,0.1,9.2-0.6,13.7,1.9c-0.3-1.8-1-3-2-4.2C65.8,140.6,63.1,140,60.3,139.6z"/>
		<path class="st9" d="M62.2,149.4c-4.1,0.7-8.2,1.1-12.3,0.7c-2.9-0.3-5.6-0.9-8.7-1.6c3.8,4.5,8.1,7.7,14,7.6c3,0,5.9-1,8.8-1.8
			c2.8-0.9,5.5-1.7,8.4-0.8c0.1,0,0.1,0,0.2,0c0-0.1-0.1-0.1-0.1-0.2c-1-2.2-2.5-3.7-5-4.1C65.7,148.9,63.9,149.1,62.2,149.4z"/>
		<path class="st9" d="M62.4,130.5c-2.5-1.5-5.3-2.4-7.9-3.6c-8.2-3.6-14.7-9-18.9-17c-1.3-2.4-2.4-4.9-3.6-7.4
			c0,0.4-0.1,0.7-0.1,1.1c-0.9,7.6,0.9,14.4,6.2,20.1c4.5,4.8,10.1,7.6,16.2,9.6c5,1.6,10.2,2.9,14.2,6.8c0-0.2,0.1-0.3,0.1-0.5
			C68.3,135.3,65.8,132.6,62.4,130.5z"/>
		<path class="st9" d="M51.8,123.1C51.7,123.1,51.7,123.1,51.8,123.1c-0.1,0.1,0,0.2,0,0.2c0,0,0.1-0.1,0.1-0.1
			C51.8,123.2,51.8,123.1,51.8,123.1z"/>
		<path class="st9" d="M69.5,156.9c-0.8,0.2-1.6,0.6-2.3,1c-2.1,1.1-4.3,2.1-6.6,2.9c-1.6,0.6-3.3,0.9-5.2,1.4
			c4.1,1.7,7.9,2.1,11.9,0.3c2.9-1.3,5.8-3,9.3-3.1C74.3,156.6,72.6,156,69.5,156.9z"/>
		<path class="st9" d="M52.3,123.4c-0.1,0-0.1-0.1-0.2-0.1c-0.1,0-0.2,0.1-0.1,0.2c0,0.1,0.1,0.1,0.1,0.2
			C52.2,123.6,52.3,123.5,52.3,123.4z"/>
		<path class="st9" d="M118.8,149.8c-2.5-0.5-5-1-7.7-0.5c-2.1,0.4-4.3,2.5-4.5,4.6c1.1-0.4,2.3-0.7,3.5-0.5
			c3.2,0.3,6.3,1.4,9.3,2.2c7.7,2.2,15.4-1.8,19-7c0.1-0.1,0.1-0.1,0.2-0.2c-0.1,0-0.2,0-0.3,0C131.9,150.4,125.4,151,118.8,149.8z"
			/>
		<path class="st9" d="M103,159.4c1.7-0.2,3.1,0.4,4.5,0.9c1.5,0.6,2.9,1.4,4.4,2c4,1.8,8,1.5,12.2-0.2c-1.9-0.5-3.6-0.9-5.2-1.4
			c-2.8-0.8-5.3-2.3-8-3.4C107.6,155.9,105.1,156.6,103,159.4z"/>
		<path class="st9" d="M119.7,145.1c5,0.1,10.1,0,14.8-2.3c6.6-3.2,11.4-8.1,13.4-15.3c0.2-0.1,0.2-0.3,0.1-0.5
			c-0.1,0.1-0.2,0.2-0.3,0.2c-0.1,0.1-0.3,0.2-0.4,0.3c-7,6.5-15.3,10.2-24.7,11.7c-2.6,0.4-5.2,0.5-7.7,1.4c-2.9,1.1-5,3-5.6,6.4
			c0.8-0.4,1.4-0.7,2.1-1C114.1,144.9,116.9,145,119.7,145.1z"/>
		<path class="st9" d="M132.3,130.7c8.4-4.2,14.3-10.4,15.6-20.1c0.4-2.6,0.3-5.2-0.1-8c-0.2,0.2-0.2,0.3-0.3,0.3
			c-0.1,0.3-0.3,0.5-0.4,0.8c-5,12.2-13.5,20.7-26.1,25.1c-2.5,0.9-4.9,2-6.9,3.9c-2.1,1.9-3.1,4.3-3.1,7.4
			c3.6-3.7,8.2-4.8,12.7-6.2C126.6,133,129.6,132.1,132.3,130.7z"/>
		<path class="st9" d="M89.5,115c-2.3-2.4-3.9-5.2-4.2-8.6c-0.7-6.1,5-10.9,10.9-9.2c2,0.6,3.8,1.6,5.5,2.9c0.3-1.7-0.5-2.9-1.5-3.9
			c-1.9-2.1-4.1-3.8-6.7-4.8c-2.4-1-4.8-1.4-7.3-0.7c-4.4,1.2-7.1,4.4-8.7,8.5c-1.7,4.5-1.8,9-0.2,13.5c2,5.5,1.9,10.8-0.3,16.2
			c-1.1,2.7-1.8,5.5-1.8,8.4c0,6.3,1.8,12,5.5,17.1c3.4,4.7,7.1,9.1,9,14.8c1.2-3.9,3.3-7.2,5.6-10.4c1.3-1.8,2.6-3.5,3.9-5.3
			c2.7-3.8,4-8,4.4-12.6c0.4-5.9-1.8-10.9-5-15.6C95.8,121.5,92.6,118.3,89.5,115z"/>
		<path class="st9" d="M43.2,97.7c-1.5-5.3-1.8-10.6-1.7-16.1c0-0.5,0-1.1,0-1.9c-4,7.1-4.7,14.3-2.6,21.8c2.3,8.2,7.5,14.4,14,19.7
			c4.7,3.8,10.3,6.3,14.7,10.9c-0.2-3.3-1.3-5.8-3.3-8.1c-2.6-3.1-5.9-5.3-9-7.8C49.4,111.3,45.3,105.2,43.2,97.7z"/>
		<path class="st9" d="M134.4,113.8c5.7-7.3,8.7-15.5,7.1-24.9c-0.5-3-1.6-5.8-3.4-8.4c0,0.5,0,1,0,1.4c0,2.2,0.1,4.3,0,6.5
			c-0.8,11.9-5.4,21.7-15.2,28.9c-3.4,2.5-6.7,5.1-9,8.7c-1.2,1.9-2.1,3.9-2.2,6.4c3.5-3.7,7.7-6.2,11.8-8.8
			C127.7,120.9,131.3,117.7,134.4,113.8z"/>
		<path class="st10" d="M164.1,217.9L164.1,217.9l-1.1,0v0c-1.5,0.2-2.8,1.4-3.1,2.9h-5.2L144,210h-11.4l-10.1-10.1h12.9l6.6,6.6
			h11.9l1.1,1.1c-0.6,1.1-0.6,2.4,0.1,3.5c0,0.1,0.1,0.2,0.4,0.5c0,0,0.3,0.3,0.4,0.4l0,0c0.6,0.4,1.3,0.7,2,0.7
			c0.9,0,1.7-0.3,2.4-1s1-1.5,1-2.4s-0.3-1.7-1-2.4c-0.6-0.6-1.5-1-2.4-1c-0.6,0-1.2,0.2-1.7,0.5l-1.6-1.6h-11.9l-6.6-6.6h-15.3
			h-1.2h-13.7L99,180.7c-2-7.8-0.3-14.2,0.6-16.4c1.1-2.8,3.6-3.7,6.4-2.4c1.2,0.5,2.4,1.1,3.5,1.7c7.6,3.9,13.7,2.3,19.8-2.6
			c0.1-0.1,0.1-0.2,0.1-0.3c-7.6-1-14.2-2.9-16.5-5c6.1,2.2,12,3.7,18.1,1.1c6-2.5,10-7,12.7-13c-4.3,2.1-8.6,3.8-13.2,4.3
			c-4.6,0.5-9.1,0.4-13.6-0.8c8.3,0.4,16.3-0.2,23.3-5.4c7.1-5.3,9.7-12.7,11-21c-4.3,4.5-8.8,8.5-14.3,11.4
			c-5.1,2.7-14.7,5.5-17.5,5.1c0.1-0.3,0.4-0.2,0.7-0.3c3.3-1,6.7-1.8,9.9-3.1c6.5-2.6,12.1-6.4,16-12.4c4.1-6.2,4.7-13.1,3.6-20.2
			c-0.3-2.1-0.9-4.2-1.8-6.4c-1.2,6.4-3.8,11.9-7.4,16.9c-3.6,5.1-7.9,9.3-13.6,11.9c5-4.1,9.6-8.5,12.7-14.2
			c3.6-6.5,5.1-13.4,3.9-20.8c-1-5.8-3.8-10.7-7.1-15.4c-0.5-0.7-1-1.5-1.9-2.1c0.7,2.7,1.2,5.1,1.5,7.7c0.5,6.1,0.5,12.1-1.4,18
			c-1.7,5.5-4.2,10.6-8.3,14.8c-0.1,0.2-0.3,0.2-0.5,0.1c0.1-0.1,0.2-0.2,0.3-0.3c0.3-0.5,0.6-0.9,0.8-1.4c4.4-7.9,7-16.3,5.6-25.4
			c-1.7-11-6.8-20.4-15.3-27.6c-5.3-4.5-11.1-8.1-18.3-9.3c0.7,0.4,1.2,0.8,1.7,1.1c0.5,0.4,1,0.7,1.5,1.1
			c11.4,9.6,18.3,21.7,19.6,36.6c1,11.7-2.3,22-10.3,30.6c-3.1,3.3-5.8,6.7-6.6,11.3c-0.2,0.9-0.3,1.9-0.6,3c-0.6-1.2-1-2.3-1.5-3.3
			c-2.7-5.6-6.9-10.1-11.2-14.5c-1.5-1.6-2.7-3.3-3.5-5.4c-0.8-2.1-0.7-4.2,0.4-6.2c1.4-2.4,3.5-3.3,6.1-2.5c5,1.6,8.2,5.2,10.3,9.8
			c0.1,0.3,0.1,0.7,0.5,0.7c0.1-0.6,0.2-1.2,0.3-1.8c0.4-2,0.4-4.1-0.6-5.9c-0.9-1.6-1.4-3.1-1-5c0.2-0.8-0.1-1.7-0.3-2.5
			c-0.9-3.9-3.5-6.4-6.6-8.7c-2.5-1.8-5.4-2.9-8.3-4.1c-3.8-1.6-6.6-4.2-8.1-8.1c-0.2-0.4-0.2-0.9-0.7-1.1c-0.1,0.7-0.2,1.4-0.3,2
			c-0.2,2.3,0.1,4.5,1.4,6.6c1.8,2.8,4.4,4.3,7.3,5.6c0.2,0.1,0.3,0.2,0.5,0.2c-0.2,0.3-0.5,0.1-0.7,0c-4.4-0.9-8.5-2.6-12-5.7
			c1.2,3.8,4,5.6,7.3,6.9c-0.2,0.4-0.6,0.5-0.9,0.6c-4.1,2.3-6.8,5.6-8.1,10.1c-1.4,4.8-1.3,9.6,0.4,14.3c1.9,5,1.8,10-0.6,14.9
			c-0.1-0.2-0.2-0.4-0.2-0.6c-0.6-3.8-2.3-6.9-5-9.6C65,114.5,62,109.6,60,104c-3.3-9.7-2.8-19.3,0.3-28.9c3-9.1,8-16.8,15-23.3
			c1.6-1.5,3.5-2.7,5.3-3.8c-2.5,0.5-5.1,0.9-7.4,2c-10.4,5-17.8,12.9-22.8,23.2c-3.3,7-4.5,14.3-3.2,22c0.9,5.6,2.6,10.8,5.7,15.6
			c0.3,0.2,0.5,0.5,0.4,1.1c-0.2-0.3-0.4-0.6-0.6-0.8c-0.8-0.7-1.4-1.5-2.1-2.4c-6.6-9.3-8.2-19.7-7-30.8c0.2-2.2,0.8-4.4,1.2-6.8
			c-1.9,2.1-3.2,4.2-4.5,6.3c-5.2,8.3-6,17.2-3,26.4c2.4,7.4,7,13.3,13.1,18.1c0.4,0.3,0.8,0.5,0.8,1.1
			c-10.9-6.1-16.4-16.1-19.5-27.9c-1,3.1-1.9,6.1-2.1,9.2c-0.7,8.3,1.4,15.6,7.4,21.6c5.1,5.1,11.3,8.1,18.1,10
			c1.4,0.4,2.8,0.8,4.2,1.3c-0.1,0.1-0.1,0.2-0.2,0.4c-12.1-2-22.6-7.3-30.7-16.8c0.4,2.9,1.1,5.5,1.8,8.1
			C33.8,140.4,44,146.5,54,147c3,0.2,6,0.1,9,0c0.2-0.1,0.5-0.2,0.7,0c0.1,0.1-0.3,0.2-0.5,0.2c-9.4,1.8-18.4,0.8-27.2-3.5
			c0.8,1.4,1.4,2.5,2.1,3.6c5.2,8.4,12.4,12.5,22.6,9.9c2.1-0.5,4.2-1.2,6.3-1.7c-5.4,3.1-11.1,5-17.5,5c1,1,2.2,1.6,3.2,2.3
			c5.2,3.4,10.6,3.8,16.2,1.2c1.8-0.9,3.6-1.8,5.6-2.5c1.4-0.4,2.6-0.1,3.7,0.8c1.1,0.9,1.6,2,1.9,3.4c0.4,1.7,1.1,6.1-0.2,14.9
			l-6,17.5H60.2h-1.2H43.6l-6.6,6.6H25.1l-1.6,1.6c-0.5-0.3-1.1-0.5-1.7-0.5c-0.7,0-1.3,0.2-1.8,0.5c-0.1,0-0.2,0.1-0.5,0.4
			c-0.3,0.3-0.4,0.4-0.5,0.6c-0.8,1.3-0.7,3,0.5,4.2c0.6,0.6,1.5,1,2.4,1c0.9,0,1.7-0.3,2.4-1c0.6-0.6,1-1.5,1-2.4
			c0-0.6-0.2-1.2-0.5-1.7l1.1-1.1h11.9l6.6-6.6h12.9L47.1,210H35.8L25,220.8h-5.2c-0.4-1.7-1.9-2.9-3.7-2.9c-2.1,0-3.8,1.7-3.8,3.8
			c0,1.9,1.4,3.5,3.2,3.7v0h1.1v0c1.5-0.2,2.8-1.4,3.1-2.9h5.9l10.7-10.7h10.1v7.1l-13,13v4c-1.9,0.4-3.4,1.9-3.7,3.9h0v1.4h0
			c0.3,2.2,2.3,3.9,4.6,3.9c2.5,0,4.6-2.1,4.6-4.6c0-2.3-1.6-4.1-3.8-4.5v-3.2l13-13v-8.3l10.1-10.1v15.3l-8.4,8.4
			c-0.3-0.1-0.7-0.2-1-0.2c-0.7,0-1.3,0.3-1.8,0.7c-0.5,0.5-0.7,1.1-0.7,1.8s0.3,1.3,0.7,1.8c0.5,0.5,1.1,0.7,1.8,0.7
			c0.5,0,1-0.1,1.4-0.4c0.2-0.1,0.5-0.4,0.7-0.7c0.5-0.7,0.6-1.7,0.2-2.4l8.9-8.9v-17.2h13.5v10.6L58,226.2v9.7v0l-14.9,14.9v4.5
			c-1.1,0.3-1.9,1.2-2,2.4h0v0.8h0c0.2,1.4,1.4,2.5,2.9,2.5c1.6,0,2.9-1.3,2.9-2.9c0-1.3-0.9-2.4-2.1-2.8v-3.8L58,238.4v9.2
			l-0.2,0.2c-0.5-0.3-1.1-0.5-1.7-0.5c-0.7,0-1.3,0.2-1.8,0.5c-0.1,0-0.2,0.1-0.3,0.2l-0.6,0.6l0,0c-1,1.3-0.9,3.2,0.3,4.4
			c0.6,0.6,1.5,1,2.4,1s1.7-0.3,2.4-1c0.6-0.6,1-1.5,1-2.4c0-0.6-0.2-1.2-0.5-1.7l0.7-0.7v-11.6v-0.7v-9l15.6-15.6v-11.8L89,185.7
			v19.7v0l-8.3,8.3v0l-4.6,4.6c-0.8-0.5-1.7-0.8-2.6-0.8c-0.9,0-1.8,0.3-2.6,0.8c-0.1,0-0.2,0-0.7,0.6c-0.5,0.5-0.6,0.6-0.6,0.8
			c-1.2,1.8-0.9,4.2,0.6,5.8c0.9,0.9,2,1.4,3.3,1.4s2.4-0.5,3.3-1.4c1.6-1.6,1.8-4.1,0.5-5.9l3.4-3.4v10.5v0l-12,12v13.7v0l-3.4,3.4
			c-0.5-0.3-1.1-0.5-1.7-0.5c-0.7,0-1.3,0.2-1.8,0.5c-0.1,0-0.2,0.1-0.5,0.4c0,0-0.3,0.3-0.4,0.4l0,0c0,0,0,0,0,0l0,0l0,0
			c0,0,0,0,0,0c-1,1.3-0.9,3.2,0.3,4.4c0.6,0.6,1.5,1,2.4,1c0.9,0,1.7-0.3,2.4-1s1-1.5,1-2.4c0-0.6-0.2-1.2-0.5-1.7l2.2-2.2v5
			c-0.8,0.3-1.5,1.1-1.6,2h0v0.7h0c0.2,1.2,1.2,2.2,2.5,2.2c1.4,0,2.5-1.1,2.5-2.5c0-1.1-0.7-2-1.6-2.3v-6.7v-0.7v-13L80.8,229v5.9
			c-1.5,0.4-2.6,1.6-2.9,3.1h0v1.1h0c0.3,1.8,1.8,3.2,3.7,3.2c2.1,0,3.8-1.7,3.8-3.8c0-1.8-1.2-3.3-2.9-3.7v-7.6v-0.7v-12.2l6.5-6.5
			v43.7l-3.2,3.2c-0.5-0.3-1.1-0.5-1.7-0.5c-0.7,0-1.3,0.2-1.8,0.5c-0.1,0-0.2,0.1-0.5,0.4c-0.3,0.3-0.4,0.4-0.5,0.6
			c-0.8,1.3-0.7,3,0.5,4.2c0.6,0.6,1.5,1,2.4,1c0.9,0,1.7-0.3,2.4-1c1.1-1.1,1.3-2.8,0.5-4l2.8-2.8l2.8,2.8
			c-0.6,1.1-0.6,2.4,0.1,3.5c0,0.1,0.1,0.2,0.5,0.6c0.3,0.3,0.4,0.4,0.6,0.5c0.5,0.3,1.1,0.5,1.8,0.5c0.9,0,1.7-0.3,2.4-1
			c1.3-1.3,1.3-3.4,0-4.7c-0.6-0.6-1.5-1-2.4-1c-0.6,0-1.2,0.2-1.7,0.5l-3.2-3.2v-43.7l6.5,6.5v12.2v0.7v7.6
			c-1.5,0.4-2.6,1.6-2.9,3.1h0v1.1h0c0.3,1.8,1.8,3.2,3.7,3.2c2.1,0,3.8-1.7,3.8-3.8c0-1.8-1.2-3.3-2.9-3.7V229l10.3,10.3v13v0.7
			v6.7c-0.8,0.3-1.5,1.1-1.6,2h0v0.7h0c0.2,1.2,1.2,2.2,2.5,2.2c1.4,0,2.5-1.1,2.5-2.5c0-1.1-0.7-2-1.6-2.3v-5l2.2,2.2
			c-0.3,0.5-0.5,1.1-0.5,1.7c0,0.7,0.2,1.3,0.6,1.9c0.1,0.4,0.9,0.9,0.9,0.9l0.1,0c0.5,0.3,1.2,0.5,1.8,0.5c0.9,0,1.7-0.3,2.4-1
			c1.3-1.3,1.3-3.4,0-4.7c-0.6-0.6-1.5-1-2.4-1c-0.6,0-1.2,0.2-1.7,0.5l-3.4-3.4v0v-13.7l-12-12v0v-10.5l3.4,3.4
			c-1.1,1.5-1.1,3.6,0,5.1c0,0.1,0.1,0.2,0.5,0.6c0,0,0.4,0.4,0.5,0.5l0,0c0,0,0.1,0,0.1,0c0.8,0.6,1.7,0.9,2.8,0.9
			c1.2,0,2.4-0.5,3.3-1.4s1.4-2,1.4-3.3s-0.5-2.4-1.4-3.3c-0.9-0.9-2-1.4-3.3-1.4c-0.9,0-1.8,0.3-2.6,0.8l-4.6-4.6v0l-8.3-8.3v0
			v-19.7l13.7,13.7v11.8l15.6,15.6v9v0.7v11.6l0.7,0.7c-0.3,0.5-0.5,1.1-0.5,1.7c0,0.6,0.2,1.3,0.5,1.8c0,0.1,0.1,0.2,0.4,0.5
			c0,0,0.3,0.3,0.4,0.4l0,0c0.6,0.4,1.3,0.7,2,0.7c0.9,0,1.7-0.3,2.4-1s1-1.5,1-2.4s-0.3-1.7-1-2.4c-0.6-0.6-1.5-1-2.4-1
			c-0.6,0-1.2,0.2-1.7,0.5l-0.2-0.2v-9.2l13.2,13.2v3.8c-1.1,0.3-1.9,1.2-2,2.4h0v0.8h0c0.2,1.4,1.4,2.5,2.9,2.5
			c1.6,0,2.9-1.3,2.9-2.9c0-1.3-0.9-2.4-2.1-2.8v-4.5l-14.9-14.9v0v-9.7l-15.6-15.6v-10.6h13.5v17.2l8.9,8.9c-0.4,0.9-0.3,2,0.5,2.8
			c0.5,0.5,1.1,0.7,1.8,0.7s1.3-0.3,1.8-0.7s0.7-1.1,0.7-1.8c0-0.5-0.1-0.9-0.4-1.3l-0.1-0.1c0,0-0.4-0.5-0.7-0.7
			c-0.4-0.3-0.9-0.4-1.4-0.4c-0.4,0-0.7,0.1-1,0.2l-8.4-8.4v-15.3l10.1,10.1v8.3l13,13v3.2c-1.9,0.4-3.4,1.9-3.7,3.9h0v1.4h0
			c0.3,2.2,2.3,3.9,4.6,3.9c2.5,0,4.6-2.1,4.6-4.6c0-2.3-1.6-4.1-3.8-4.5v-4l-13-13v-7.1h10.1l10.7,10.7h5.9
			c0.4,1.7,1.9,2.9,3.7,2.9c2.1,0,3.8-1.7,3.8-3.8C167.4,219.8,166,218.2,164.1,217.9z M156.6,208c0.4-0.4,0.8-0.6,1.4-0.6
			c0.5,0,1,0.2,1.3,0.5l0,0c0.7,0.7,0.7,2,0,2.7c-0.4,0.4-0.8,0.6-1.4,0.6c-0.5,0-1-0.2-1.4-0.6C155.8,209.9,155.8,208.7,156.6,208z
			 M23.2,210.7L23.2,210.7L23.2,210.7c-0.4,0.4-0.9,0.6-1.4,0.6c-0.5,0-1-0.2-1.4-0.6c-0.7-0.7-0.7-2,0-2.7c0.4-0.4,0.8-0.6,1.4-0.6
			c0.5,0,1,0.2,1.4,0.6C23.9,208.7,23.9,209.9,23.2,210.7z M16.2,223.9c-1.2,0-2.2-1-2.2-2.2c0-1.2,1-2.2,2.2-2.2s2.2,1,2.2,2.2
			C18.4,222.9,17.4,223.9,16.2,223.9z M37.4,240.3c0,1.6-1.3,2.9-2.9,2.9s-2.9-1.3-2.9-2.9s1.3-2.9,2.9-2.9S37.4,238.7,37.4,240.3z
			 M49.9,227.9c-0.2,0.2-0.6,0.4-0.9,0.4c-0.3,0-0.7-0.1-0.9-0.4c-0.5-0.5-0.5-1.3,0-1.8c0,0,0,0,0,0c0.2-0.2,0.6-0.4,0.9-0.4
			c0.3,0,0.7,0.1,0.9,0.4C50.4,226.6,50.4,227.4,49.9,227.9z M45.5,258.1c0,0.9-0.7,1.6-1.6,1.6s-1.6-0.7-1.6-1.6s0.7-1.6,1.6-1.6
			S45.5,257.2,45.5,258.1z M57.5,252c-0.4,0.4-0.8,0.6-1.4,0.6c-0.5,0-1-0.2-1.4-0.6c-0.4-0.4-0.6-0.8-0.6-1.4s0.2-1,0.6-1.4
			c0.4-0.4,0.8-0.6,1.4-0.6c0.5,0,1,0.2,1.4,0.6s0.6,0.8,0.6,1.4S57.9,251.6,57.5,252z M75.6,224.2c-0.5,0.5-1.3,0.8-2.1,0.8
			s-1.5-0.3-2.1-0.8c-1.1-1.1-1.1-3,0-4.1c0.5-0.5,1.3-0.8,2.1-0.8s1.5,0.3,2.1,0.8c0.5,0.5,0.8,1.3,0.8,2S76.1,223.6,75.6,224.2z
			 M65,260c-0.4,0.4-0.8,0.6-1.4,0.6c-0.5,0-1-0.2-1.4-0.6c-0.7-0.7-0.7-2,0-2.7c0.4-0.4,0.8-0.6,1.4-0.6c0.5,0,1,0.2,1.4,0.6
			c0.4,0.4,0.6,0.8,0.6,1.4S65.4,259.7,65,260z M70.9,262.1c0,0.7-0.6,1.3-1.3,1.3s-1.3-0.6-1.3-1.3s0.6-1.3,1.3-1.3
			S70.9,261.4,70.9,262.1z M83.9,238.6c0,1.2-1,2.2-2.2,2.2s-2.2-1-2.2-2.2c0-1.2,1-2.2,2.2-2.2S83.9,237.3,83.9,238.6z M85.6,259
			L85.6,259c-0.4,0.4-0.9,0.6-1.4,0.6c-0.5,0-1-0.2-1.4-0.6c-0.4-0.4-0.6-0.8-0.6-1.4s0.2-1,0.6-1.4c0.4-0.4,0.8-0.6,1.4-0.6
			c0.5,0,1,0.2,1.4,0.6C86.3,257,86.3,258.2,85.6,259z M94.2,256.2c0.4-0.4,0.8-0.6,1.4-0.6c0.5,0,1,0.2,1.3,0.5l0,0l0,0
			c0.7,0.7,0.7,2,0,2.7c-0.4,0.4-0.8,0.6-1.4,0.6c-0.5,0-1-0.2-1.4-0.6C93.5,258.2,93.5,257,94.2,256.2z M114.8,257.3
			c0.4-0.4,0.8-0.6,1.4-0.6s1,0.2,1.4,0.6c0.8,0.7,0.8,2,0,2.7c-0.4,0.4-0.8,0.6-1.4,0.6s-1-0.2-1.4-0.6c-0.4-0.4-0.6-0.8-0.6-1.4
			S114.4,257.7,114.8,257.3z M111.4,262.1c0,0.7-0.6,1.3-1.3,1.3s-1.3-0.6-1.3-1.3s0.6-1.3,1.3-1.3S111.4,261.4,111.4,262.1z
			 M104.2,220.1c0.5-0.5,1.3-0.8,2-0.8c0.8,0,1.5,0.3,2,0.8l0.1,0.1c1.1,1.1,1.1,3,0,4.1c-0.5,0.5-1.3,0.8-2,0.8s-1.5-0.3-2-0.8
			c-0.5-0.5-0.8-1.3-0.8-2S103.6,220.6,104.2,220.1z M100.4,238.6c0,1.2-1,2.2-2.2,2.2c-1.2,0-2.2-1-2.2-2.2c0-1.2,1-2.2,2.2-2.2
			C99.4,236.3,100.4,237.3,100.4,238.6z M118.9,160.7c1.6,0.5,3.3,0.9,5.2,1.4c-4.2,1.7-8.2,2-12.2,0.2c-1.5-0.7-2.9-1.4-4.4-2
			c-1.4-0.6-2.8-1.1-4.5-0.9c2.1-2.8,4.6-3.5,7.8-2.1C113.5,158.4,116.1,159.9,118.9,160.7z M118.8,149.8c6.6,1.2,13.1,0.7,19.5-1.4
			c0.1,0,0.2,0,0.3,0c-0.1,0.1-0.1,0.1-0.2,0.2c-3.6,5.2-11.3,9.2-19,7c-3.1-0.9-6.1-1.9-9.3-2.2c-1.2-0.1-2.3,0.1-3.5,0.5
			c0.2-2.1,2.4-4.2,4.5-4.6C113.8,148.8,116.3,149.3,118.8,149.8z M122.5,139.2c9.4-1.5,17.7-5.2,24.7-11.7c0.1-0.1,0.3-0.2,0.4-0.3
			c0.1-0.1,0.2-0.2,0.3-0.2c0.1,0.2,0.1,0.4-0.1,0.5c-2.1,7.2-6.8,12.1-13.4,15.3c-4.7,2.3-9.7,2.4-14.8,2.3
			c-2.8-0.1-5.7-0.1-8.4,0.9c-0.7,0.3-1.3,0.6-2.1,1c0.6-3.4,2.7-5.3,5.6-6.4C117.3,139.7,120,139.6,122.5,139.2z M147.2,103.8
			c0.1-0.3,0.2-0.5,0.4-0.8c0-0.1,0.1-0.1,0.3-0.3c0.5,2.8,0.5,5.4,0.1,8c-1.3,9.7-7.2,15.9-15.6,20.1c-2.8,1.4-5.7,2.3-8.6,3.2
			c-4.5,1.4-9.1,2.5-12.7,6.2c0-3.1,1-5.5,3.1-7.4c2-1.8,4.4-3,6.9-3.9C133.6,124.5,142.2,116,147.2,103.8z M138,88.4
			c0.1-2.1,0-4.3,0-6.5c0-0.5,0-1,0-1.4c1.8,2.6,2.9,5.4,3.4,8.4c1.6,9.4-1.4,17.6-7.1,24.9c-3,3.9-6.7,7.1-10.9,9.8
			c-4.1,2.6-8.3,5.1-11.8,8.8c0.1-2.5,1-4.5,2.2-6.4c2.3-3.6,5.6-6.2,9-8.7C132.6,110.1,137.2,100.3,138,88.4z M76.8,129
			c2.2-5.4,2.3-10.7,0.3-16.2c-1.6-4.5-1.6-9.1,0.2-13.5c1.6-4.1,4.3-7.3,8.7-8.5c2.5-0.7,4.9-0.3,7.3,0.7c2.6,1.1,4.9,2.7,6.7,4.8
			c0.9,1.1,1.8,2.2,1.5,3.9c-1.7-1.3-3.5-2.4-5.5-2.9c-5.9-1.7-11.6,3.1-10.9,9.2c0.4,3.4,2,6.2,4.2,8.6c3.1,3.3,6.3,6.5,8.9,10.2
			c3.2,4.7,5.4,9.7,5,15.6c-0.3,4.6-1.7,8.8-4.4,12.6c-1.3,1.8-2.5,3.6-3.9,5.3c-2.4,3.2-4.4,6.5-5.6,10.4c-1.9-5.7-5.6-10.1-9-14.8
			c-3.7-5.1-5.5-10.8-5.5-17.1C75,134.5,75.8,131.6,76.8,129z M38.9,101.6c-2.1-7.5-1.4-14.7,2.6-21.8c0,0.8,0,1.3,0,1.9
			c-0.1,5.4,0.2,10.8,1.7,16.1c2.1,7.5,6.2,13.6,12.2,18.5c3.1,2.5,6.4,4.8,9,7.8c1.9,2.3,3.1,4.9,3.3,8.1
			c-4.4-4.6-10-7.2-14.7-10.9C46.4,116.1,41.2,109.8,38.9,101.6z M52.3,123.4c0,0.1-0.1,0.2-0.1,0.3c0-0.1-0.1-0.1-0.1-0.2
			c-0.1-0.1,0-0.2,0.1-0.2C52.2,123.4,52.3,123.4,52.3,123.4z M51.8,123.2C51.8,123.3,51.8,123.3,51.8,123.2c-0.1,0-0.1,0-0.2-0.1
			c0,0,0-0.1,0.1-0.1C51.8,123.1,51.8,123.2,51.8,123.2z M54.1,133.3c-6.1-2-11.7-4.8-16.2-9.6c-5.3-5.7-7.1-12.5-6.2-20.1
			c0-0.4,0.1-0.7,0.1-1.1c1.1,2.6,2.3,5,3.6,7.4c4.2,8,10.8,13.4,18.9,17c2.7,1.2,5.4,2.1,7.9,3.6c3.4,2.1,5.9,4.8,6,9
			c0,0.1,0,0.2-0.1,0.5C64.3,136.1,59.1,134.9,54.1,133.3z M56.2,145c-7.2-0.2-13.5-2.2-18.6-7.6c-2.7-2.9-4.5-6.3-5.6-10.3
			c1.7,1.4,3.3,2.6,4.9,3.8c7.1,5,14.9,7.7,23.5,8.8c2.8,0.4,5.5,1,7.6,3.1c1.1,1.1,1.7,2.4,2,4.2C65.4,144.4,60.8,145.1,56.2,145z
			 M63.9,154.2c-2.9,0.9-5.7,1.8-8.8,1.8c-6,0.1-10.2-3.1-14-7.6c3.1,0.7,5.8,1.3,8.7,1.6c4.2,0.4,8.2,0,12.3-0.7
			c1.7-0.3,3.5-0.5,5.3-0.2c2.5,0.4,4.1,1.9,5,4.1c0,0.1,0.1,0.1,0.1,0.2c-0.1,0-0.1,0-0.2,0C69.4,152.5,66.7,153.4,63.9,154.2z
			 M67.2,162.5c-3.9,1.8-7.8,1.4-11.9-0.3c1.9-0.5,3.6-0.8,5.2-1.4c2.3-0.8,4.5-1.8,6.6-2.9c0.7-0.4,1.5-0.8,2.3-1
			c3.1-0.9,4.8-0.3,7,2.5C73,159.5,70.1,161.1,67.2,162.5z M89,183.3l-12.5,12.5l5.1-14.8c2.4-10.7,0.5-17.1-1.7-20.3
			c-1-1.5-2.1-2.9-3.1-4.3c-3.8-5.1-5.6-10.9-6.3-17.1c-0.4-3.1-0.3-6.2-0.7-9.2c-0.4-3.2-1.7-5.8-3.9-8c-3-3.1-6.2-5.9-8.8-9.3
			c-8.1-10.9-10.1-22.9-5.7-35.6c2.8-8.1,8-14.9,14.8-20.2c1.2-0.9,2.5-1.8,3.7-2.7c0.1,0,0.3-0.1,0.3-0.1c0.1,0.1,0,0.2-0.1,0.2
			c-0.6,1.2-1.6,2.1-2.4,3.1c-5.9,7.3-9.8,15.5-11.3,24.9c-1.8,12,0.1,23.2,7.2,33.2c1.4,1.9,3,3.6,4.7,5.1
			c3.1,2.9,4.3,6.5,4.4,10.6c0.2,5.1,0.3,10.2,1.8,15.2c1.1,3.7,2.7,7.1,5.1,10.1c1.6,2.1,3.1,4.3,4.6,6.5c1.4,2.1,3.8,7.4,4.9,10.5
			V183.3L89,183.3z M90.7,183.3L90.7,183.3v-9.7c1.2-4.2,4-10.7,6.5-13.7c3.2-3.9,5.9-8,7.4-12.9c1.1-3.8,1.6-7.7,1.7-11.6
			c0.1-2.9,0.1-5.7,1-8.5c0.7-2.2,1.9-4,3.5-5.5c6.4-6.2,10.7-13.6,12.7-22.3c1-4.6,1-9.2,0.5-13.8c-0.9-10.1-4.6-19.1-11-26.9
			c-0.6-0.7-1.2-1.4-1.8-2.1c-0.6-0.7-1.2-1.4-1.8-2.1c4.9,2.9,9.2,6.5,12.5,11.1c3.9,5.3,6.9,11,8.2,17.5
			c1.5,7.1,0.3,13.9-2.1,20.6c-2.4,6.5-6.7,11.6-11.6,16.3c-1.7,1.7-3.5,3.4-4.8,5.4c-2,3.1-2.4,6.5-2.6,10.1
			c-0.4,6.4-1.4,12.6-4.5,18.3c-1.4,2.5-3.1,4.8-4.9,7.1c-2.2,2.8-5.1,11.8-2.3,20.4l5.7,14.6L90.7,183.3z M137.4,258.1
			c0,0.9-0.7,1.6-1.6,1.6s-1.6-0.7-1.6-1.6s0.7-1.6,1.6-1.6S137.4,257.2,137.4,258.1z M122.3,249.2c0.4-0.4,0.8-0.6,1.4-0.6
			c0.5,0,1,0.2,1.3,0.5l0,0c0.7,0.7,0.7,2,0,2.7c-0.4,0.4-0.8,0.6-1.4,0.6s-1-0.2-1.4-0.6c-0.4-0.4-0.6-0.8-0.6-1.4
			S121.9,249.6,122.3,249.2z M129.8,226.1c0.2-0.2,0.6-0.4,0.9-0.4s0.7,0.1,0.9,0.4c0.5,0.5,0.5,1.3,0,1.8c-0.2,0.2-0.6,0.4-0.9,0.4
			s-0.7-0.1-0.9-0.4C129.3,227.4,129.3,226.6,129.8,226.1z M148.2,240.3c0,1.6-1.3,2.9-2.9,2.9s-2.9-1.3-2.9-2.9s1.3-2.9,2.9-2.9
			S148.2,238.7,148.2,240.3z M163.6,223.9c-1.2,0-2.2-1-2.2-2.2c0-1.2,1-2.2,2.2-2.2c1.2,0,2.2,1,2.2,2.2
			C165.8,222.9,164.8,223.9,163.6,223.9z"/>
	</g>
</g>
<g id="Layer_6_copy" class="st0">
	<g class="st8">
		<path class="st9" d="M95.9,238.6c0,1.2,1,2.2,2.2,2.2c1.2,0,2.2-1,2.2-2.2c0-1.2-1-2.2-2.2-2.2C96.9,236.3,95.9,237.3,95.9,238.6z
			"/>
		<path class="st9" d="M95.6,259.5c0.5,0,1-0.2,1.4-0.6c0.7-0.7,0.7-1.9,0-2.7l0,0l0,0c-0.4-0.3-0.8-0.5-1.3-0.5
			c-0.5,0-1,0.2-1.4,0.6c-0.7,0.7-0.7,2,0,2.7C94.6,259.3,95.1,259.5,95.6,259.5z"/>
		<path class="st9" d="M116.1,260.6c0.5,0,1-0.2,1.4-0.6c0.8-0.7,0.8-2,0-2.7c-0.4-0.4-0.8-0.6-1.4-0.6s-1,0.2-1.4,0.6
			c-0.4,0.4-0.6,0.8-0.6,1.4s0.2,1,0.6,1.4C115.1,260.4,115.6,260.6,116.1,260.6z"/>
		<polygon class="st9" points="76.8,195.6 76.6,195.6 76.5,195.8 		"/>
		<circle class="st9" cx="110.2" cy="262.1" r="1.3"/>
		<path class="st9" d="M106.2,225c0.8,0,1.5-0.3,2-0.8c1.1-1.1,1.1-2.9,0-4.1l-0.1-0.1c-0.5-0.5-1.3-0.8-2-0.8c-0.8,0-1.5,0.3-2,0.8
			c-0.5,0.5-0.8,1.3-0.8,2s0.3,1.5,0.8,2C104.7,224.7,105.5,225,106.2,225z"/>
		<path class="st9" d="M56.1,248.7c-0.5,0-1,0.2-1.4,0.6c-0.4,0.4-0.6,0.8-0.6,1.4s0.2,1,0.6,1.4c0.4,0.4,0.8,0.6,1.4,0.6
			c0.5,0,1-0.2,1.4-0.6c0.4-0.4,0.6-0.8,0.6-1.4s-0.2-1-0.6-1.4S56.7,248.7,56.1,248.7z"/>
		<path class="st9" d="M21.8,207.4c-0.5,0-1,0.2-1.4,0.6c-0.7,0.7-0.7,2,0,2.7c0.4,0.4,0.8,0.6,1.4,0.6c0.5,0,1-0.2,1.3-0.5l0,0l0,0
			c0.7-0.7,0.7-2,0-2.7C22.8,207.6,22.3,207.4,21.8,207.4z"/>
		<path class="st9" d="M49,225.8c-0.3,0-0.7,0.1-0.9,0.4c0,0,0,0,0,0c-0.5,0.5-0.5,1.3,0,1.8c0.2,0.2,0.6,0.4,0.9,0.4
			c0.3,0,0.7-0.1,0.9-0.4c0.5-0.5,0.5-1.3,0-1.8C49.7,225.9,49.4,225.8,49,225.8z"/>
		<path class="st9" d="M16.2,219.4c-1.2,0-2.2,1-2.2,2.2c0,1.2,1,2.2,2.2,2.2s2.2-1,2.2-2.2C18.4,220.4,17.4,219.4,16.2,219.4z"/>
		<circle class="st9" cx="34.5" cy="240.3" r="2.9"/>
		<path class="st9" d="M63.6,256.8c-0.5,0-1,0.2-1.4,0.6c-0.7,0.7-0.7,2,0,2.7c0.4,0.4,0.8,0.6,1.4,0.6c0.5,0,1-0.2,1.4-0.6
			s0.6-0.8,0.6-1.4s-0.2-1-0.6-1.4C64.6,257,64.1,256.8,63.6,256.8z"/>
		<path class="st9" d="M163.6,219.4c-1.2,0-2.2,1-2.2,2.2c0,1.2,1,2.2,2.2,2.2c1.2,0,2.2-1,2.2-2.2
			C165.8,220.4,164.8,219.4,163.6,219.4z"/>
		<circle class="st9" cx="145.3" cy="240.3" r="2.9"/>
		<path class="st9" d="M123.6,252.5c0.5,0,1-0.2,1.4-0.6c0.7-0.7,0.7-1.9,0-2.7l0,0c-0.4-0.3-0.8-0.5-1.3-0.5c-0.5,0-1,0.2-1.4,0.6
			s-0.6,0.8-0.6,1.4s0.2,1,0.6,1.4C122.6,252.3,123.1,252.5,123.6,252.5z"/>
		<path class="st9" d="M130.7,228.3c0.3,0,0.7-0.1,0.9-0.4c0.5-0.5,0.5-1.3,0-1.8c-0.2-0.2-0.6-0.4-0.9-0.4s-0.7,0.1-0.9,0.4
			c-0.5,0.5-0.5,1.3,0,1.8C130.1,228.2,130.4,228.3,130.7,228.3z"/>
		<path class="st9" d="M73.5,219.2c-0.8,0-1.5,0.3-2.1,0.8c-1.1,1.1-1.1,3,0,4.1c0.5,0.5,1.3,0.8,2.1,0.8s1.5-0.3,2.1-0.8
			s0.8-1.3,0.8-2s-0.3-1.5-0.8-2C75,219.5,74.3,219.2,73.5,219.2z"/>
		<path class="st9" d="M157.9,211.3c0.5,0,1-0.2,1.4-0.6c0.7-0.7,0.7-1.9,0-2.7l0,0c-0.4-0.3-0.8-0.5-1.3-0.5c-0.5,0-1,0.2-1.4,0.6
			c-0.7,0.7-0.7,2,0,2.7C156.9,211.1,157.4,211.3,157.9,211.3z"/>
		<circle class="st9" cx="69.6" cy="262.1" r="1.3"/>
		<path class="st9" d="M79.4,238.6c0,1.2,1,2.2,2.2,2.2s2.2-1,2.2-2.2c0-1.2-1-2.2-2.2-2.2S79.4,237.3,79.4,238.6z"/>
		<path class="st9" d="M42.4,258.1c0,0.9,0.7,1.6,1.6,1.6s1.6-0.7,1.6-1.6s-0.7-1.6-1.6-1.6S42.4,257.2,42.4,258.1z"/>
		<path class="st9" d="M84.2,255.7c-0.5,0-1,0.2-1.4,0.6c-0.4,0.4-0.6,0.8-0.6,1.4s0.2,1,0.6,1.4c0.4,0.4,0.8,0.6,1.4,0.6
			c0.5,0,1-0.2,1.3-0.5l0,0c0.7-0.7,0.7-2,0-2.7C85.2,255.9,84.7,255.7,84.2,255.7z"/>
		<circle class="st9" cx="135.8" cy="258.1" r="1.6"/>
		<path class="st11" d="M89,183.3L89,183.3v-9.6c-1-3.1-3.5-8.4-4.9-10.5c-1.5-2.2-3-4.4-4.6-6.5c-2.4-3-4-6.4-5.1-10.1
			c-1.5-5-1.6-10.1-1.8-15.2c-0.1-4.1-1.3-7.7-4.4-10.6c-1.7-1.6-3.3-3.2-4.7-5.1c-7.2-10-9-21.2-7.2-33.2
			c1.4-9.3,5.3-17.6,11.3-24.9c0.8-1,1.8-1.9,2.4-3.1c0.1,0,0.2-0.1,0.1-0.2c0,0-0.2,0.1-0.3,0.1c-1.2,0.9-2.5,1.7-3.7,2.7
			c-6.8,5.3-12,12.1-14.8,20.2c-4.4,12.7-2.4,24.7,5.7,35.6c2.6,3.4,5.8,6.2,8.8,9.3c2.2,2.3,3.6,4.9,3.9,8c0.3,3.1,0.3,6.2,0.7,9.2
			c0.7,6.2,2.6,12,6.3,17.1c1.1,1.4,2.1,2.9,3.1,4.3c2.2,3.2,4.1,9.6,1.7,20.3l-5,14.5h0.2L89,183.3z"/>
		<path class="st11" d="M99.6,160.5c1.8-2.2,3.5-4.6,4.9-7.1c3.1-5.7,4.2-11.9,4.5-18.3c0.2-3.5,0.6-7,2.6-10.1
			c1.3-2,3.1-3.7,4.8-5.4c4.9-4.7,9.2-9.8,11.6-16.3c2.5-6.7,3.6-13.5,2.1-20.6c-1.4-6.5-4.3-12.2-8.2-17.5
			c-3.4-4.6-7.6-8.2-12.5-11.1c0.6,0.7,1.2,1.4,1.8,2.1c0.6,0.7,1.3,1.4,1.8,2.1c6.4,7.8,10.1,16.8,11,26.9
			c0.4,4.6,0.5,9.2-0.5,13.8c-2,8.7-6.2,16.1-12.7,22.3c-1.6,1.5-2.8,3.4-3.5,5.5c-0.9,2.8-0.9,5.7-1,8.5c-0.1,3.9-0.5,7.9-1.7,11.6
			c-1.4,4.9-4.2,9-7.4,12.9c-2.5,3-5.2,9.5-6.5,13.7v9.7v0l12.3,12.3l-5.7-14.6C94.4,172.3,97.3,163.3,99.6,160.5z"/>
		<path class="st11" d="M60.3,139.6c-8.5-1.1-16.4-3.8-23.5-8.8c-1.6-1.1-3.1-2.4-4.9-3.8c1.1,4.1,2.9,7.4,5.6,10.3
			c5,5.3,11.4,7.4,18.6,7.6c4.6,0.1,9.2-0.6,13.7,1.9c-0.3-1.8-1-3-2-4.2C65.8,140.6,63.1,140,60.3,139.6z"/>
		<path class="st11" d="M62.2,149.4c-4.1,0.7-8.2,1.1-12.3,0.7c-2.9-0.3-5.6-0.9-8.7-1.6c3.8,4.5,8.1,7.7,14,7.6c3,0,5.9-1,8.8-1.8
			c2.8-0.9,5.5-1.7,8.4-0.8c0.1,0,0.1,0,0.2,0c0-0.1-0.1-0.1-0.1-0.2c-1-2.2-2.5-3.7-5-4.1C65.7,148.9,63.9,149.1,62.2,149.4z"/>
		<path class="st11" d="M62.4,130.5c-2.5-1.5-5.3-2.4-7.9-3.6c-8.2-3.6-14.7-9-18.9-17c-1.3-2.4-2.4-4.9-3.6-7.4
			c0,0.4-0.1,0.7-0.1,1.1c-0.9,7.6,0.9,14.4,6.2,20.1c4.5,4.8,10.1,7.6,16.2,9.6c5,1.6,10.2,2.9,14.2,6.8c0-0.2,0.1-0.3,0.1-0.5
			C68.3,135.3,65.8,132.6,62.4,130.5z"/>
		<path class="st11" d="M51.8,123.1C51.7,123.1,51.7,123.1,51.8,123.1c-0.1,0.1,0,0.2,0,0.2c0,0,0.1-0.1,0.1-0.1
			C51.8,123.2,51.8,123.1,51.8,123.1z"/>
		<path class="st11" d="M69.5,156.9c-0.8,0.2-1.6,0.6-2.3,1c-2.1,1.1-4.3,2.1-6.6,2.9c-1.6,0.6-3.3,0.9-5.2,1.4
			c4.1,1.7,7.9,2.1,11.9,0.3c2.9-1.3,5.8-3,9.3-3.1C74.3,156.6,72.6,156,69.5,156.9z"/>
		<path class="st11" d="M52.3,123.4c-0.1,0-0.1-0.1-0.2-0.1c-0.1,0-0.2,0.1-0.1,0.2c0,0.1,0.1,0.1,0.1,0.2
			C52.2,123.6,52.3,123.5,52.3,123.4z"/>
		<path class="st11" d="M111.2,149.2c-2.1,0.4-4.3,2.5-4.5,4.6c1.1-0.4,2.3-0.7,3.5-0.5c3.2,0.3,6.3,1.4,9.3,2.2
			c7.7,2.2,15.4-1.8,19-7c0.1-0.1,0.1-0.1,0.2-0.2c-0.1,0-0.2,0-0.3,0c-6.4,2.1-12.9,2.6-19.5,1.4
			C116.3,149.3,113.8,148.8,111.2,149.2z"/>
		<path class="st11" d="M103,159.4c1.7-0.2,3.1,0.4,4.5,0.9c1.5,0.6,2.9,1.4,4.4,2c4,1.8,8,1.5,12.2-0.2c-1.9-0.5-3.6-0.9-5.2-1.4
			c-2.8-0.8-5.3-2.3-8-3.4C107.6,155.9,105.1,156.6,103,159.4z"/>
		<path class="st11" d="M109.2,147c0.8-0.4,1.4-0.7,2.1-1c2.7-1.1,5.5-1,8.4-0.9c5,0.1,10.1,0,14.8-2.3c6.6-3.2,11.4-8.1,13.4-15.3
			c0.2-0.1,0.2-0.3,0.1-0.5c-0.1,0.1-0.2,0.2-0.3,0.2c-0.1,0.1-0.3,0.2-0.4,0.3c-7,6.5-15.3,10.2-24.7,11.7
			c-2.6,0.4-5.2,0.5-7.7,1.4C111.9,141.7,109.8,143.6,109.2,147z"/>
		<path class="st11" d="M114.2,132.7c-2.1,1.9-3.1,4.3-3.1,7.4c3.6-3.7,8.2-4.8,12.7-6.2c2.9-0.9,5.9-1.9,8.6-3.2
			c8.4-4.2,14.3-10.4,15.6-20.1c0.4-2.6,0.3-5.2-0.1-8c-0.2,0.2-0.2,0.3-0.3,0.3c-0.1,0.3-0.3,0.5-0.4,0.8
			c-5,12.2-13.5,20.7-26.1,25.1C118.6,129.7,116.2,130.9,114.2,132.7z"/>
		<path class="st11" d="M99,153.5c2.7-3.8,4-8,4.4-12.6c0.4-5.9-1.8-10.9-5-15.6c-2.6-3.8-5.8-7-8.9-10.2c-2.3-2.4-3.9-5.2-4.2-8.6
			c-0.7-6.1,5-10.9,10.9-9.2c2,0.6,3.8,1.6,5.5,2.9c0.3-1.7-0.5-2.9-1.5-3.9c-1.9-2.1-4.1-3.8-6.7-4.8c-2.4-1-4.8-1.4-7.3-0.7
			c-4.4,1.2-7.1,4.4-8.7,8.5c-1.7,4.5-1.8,9-0.2,13.5c2,5.5,1.9,10.8-0.3,16.2c-1.1,2.7-1.8,5.5-1.8,8.4c0,6.3,1.8,12,5.5,17.1
			c3.4,4.7,7.1,9.1,9,14.8c1.2-3.9,3.3-7.2,5.6-10.4C96.5,157.1,97.8,155.3,99,153.5z"/>
		<path class="st11" d="M43.2,97.7c-1.5-5.3-1.8-10.6-1.7-16.1c0-0.5,0-1.1,0-1.9c-4,7.1-4.7,14.3-2.6,21.8
			c2.3,8.2,7.5,14.4,14,19.7c4.7,3.8,10.3,6.3,14.7,10.9c-0.2-3.3-1.3-5.8-3.3-8.1c-2.6-3.1-5.9-5.3-9-7.8
			C49.4,111.3,45.3,105.2,43.2,97.7z"/>
		<path class="st11" d="M113.9,126c-1.2,1.9-2.1,3.9-2.2,6.4c3.5-3.7,7.7-6.2,11.8-8.8c4.2-2.7,7.9-5.9,10.9-9.8
			c5.7-7.3,8.7-15.5,7.1-24.9c-0.5-3-1.6-5.8-3.4-8.4c0,0.5,0,1,0,1.4c0,2.2,0.1,4.3,0,6.5c-0.8,11.9-5.4,21.7-15.2,28.9
			C119.5,119.8,116.2,122.4,113.9,126z"/>
		<path class="st10" d="M164.1,217.9L164.1,217.9l-1.1,0v0c-1.5,0.2-2.8,1.4-3.1,2.9h-5.2L144,210h-11.4l-10.1-10.1h12.9l6.6,6.6
			h11.9l1.1,1.1c-0.6,1.1-0.6,2.4,0.1,3.5c0,0.1,0.1,0.2,0.4,0.5c0,0,0.3,0.3,0.4,0.4l0,0c0.6,0.4,1.3,0.7,2,0.7
			c0.9,0,1.7-0.3,2.4-1s1-1.5,1-2.4s-0.3-1.7-1-2.4c-0.6-0.6-1.5-1-2.4-1c-0.6,0-1.2,0.2-1.7,0.5l-1.6-1.6h-11.9l-6.6-6.6h-15.3
			h-1.2h-13.7l-1-2.7H103h-2.4l3.9,3.9v11.8l15.6,15.6v9v0.7v11.6l0.7,0.7c-0.3,0.5-0.5,1.1-0.5,1.7c0,0.6,0.2,1.3,0.5,1.8
			c0,0.1,0.1,0.2,0.4,0.5c0,0,0.3,0.3,0.4,0.4l0,0c0.6,0.4,1.3,0.7,2,0.7c0.9,0,1.7-0.3,2.4-1s1-1.5,1-2.4s-0.3-1.7-1-2.4
			c-0.6-0.6-1.5-1-2.4-1c-0.6,0-1.2,0.2-1.7,0.5l-0.2-0.2v-9.2l13.2,13.2v3.8c-1.1,0.3-1.9,1.2-2,2.4h0v0.8h0
			c0.2,1.4,1.4,2.5,2.9,2.5c1.6,0,2.9-1.3,2.9-2.9c0-1.3-0.9-2.4-2.1-2.8v-4.5l-14.9-14.9v0v-9.7l-15.6-15.6v-10.6h13.5v17.2
			l8.9,8.9c-0.4,0.9-0.3,2,0.5,2.8c0.5,0.5,1.1,0.7,1.8,0.7s1.3-0.3,1.8-0.7s0.7-1.1,0.7-1.8c0-0.5-0.1-0.9-0.4-1.3l-0.1-0.1
			c0,0-0.4-0.5-0.7-0.7c-0.4-0.3-0.9-0.4-1.4-0.4c-0.4,0-0.7,0.1-1,0.2l-8.4-8.4v-15.3l10.1,10.1v8.3l13,13v3.2
			c-1.9,0.4-3.4,1.9-3.7,3.9h0v1.4h0c0.3,2.2,2.3,3.9,4.6,3.9c2.5,0,4.6-2.1,4.6-4.6c0-2.3-1.6-4.1-3.8-4.5v-4l-13-13v-7.1h10.1
			l10.7,10.7h5.9c0.4,1.7,1.9,2.9,3.7,2.9c2.1,0,3.8-1.7,3.8-3.8C167.4,219.8,166,218.2,164.1,217.9z M156.6,208
			c0.4-0.4,0.8-0.6,1.4-0.6c0.5,0,1,0.2,1.3,0.5l0,0c0.7,0.7,0.7,2,0,2.7c-0.4,0.4-0.8,0.6-1.4,0.6c-0.5,0-1-0.2-1.4-0.6
			C155.8,209.9,155.8,208.7,156.6,208z M137.4,258.1c0,0.9-0.7,1.6-1.6,1.6s-1.6-0.7-1.6-1.6s0.7-1.6,1.6-1.6
			S137.4,257.2,137.4,258.1z M122.3,249.2c0.4-0.4,0.8-0.6,1.4-0.6c0.5,0,1,0.2,1.3,0.5l0,0c0.7,0.7,0.7,2,0,2.7
			c-0.4,0.4-0.8,0.6-1.4,0.6s-1-0.2-1.4-0.6c-0.4-0.4-0.6-0.8-0.6-1.4S121.9,249.6,122.3,249.2z M129.8,226.1
			c0.2-0.2,0.6-0.4,0.9-0.4s0.7,0.1,0.9,0.4c0.5,0.5,0.5,1.3,0,1.8c-0.2,0.2-0.6,0.4-0.9,0.4s-0.7-0.1-0.9-0.4
			C129.3,227.4,129.3,226.6,129.8,226.1z M148.2,240.3c0,1.6-1.3,2.9-2.9,2.9s-2.9-1.3-2.9-2.9s1.3-2.9,2.9-2.9
			S148.2,238.7,148.2,240.3z M163.6,223.9c-1.2,0-2.2-1-2.2-2.2c0-1.2,1-2.2,2.2-2.2c1.2,0,2.2,1,2.2,2.2
			C165.8,222.9,164.8,223.9,163.6,223.9z"/>
		<path class="st10" d="M89,205.4L89,205.4l-8.3,8.3v0l-4.6,4.6c-0.8-0.5-1.7-0.8-2.6-0.8c-0.9,0-1.8,0.3-2.6,0.8
			c-0.1,0-0.2,0-0.7,0.6c-0.5,0.5-0.6,0.6-0.6,0.8c-1.2,1.8-0.9,4.2,0.6,5.8c0.9,0.9,2,1.4,3.3,1.4s2.4-0.5,3.3-1.4
			c1.6-1.6,1.8-4.1,0.5-5.9l3.4-3.4v10.5v0l-12,12v13.7v0l-3.4,3.4c-0.5-0.3-1.1-0.5-1.7-0.5c-0.7,0-1.3,0.2-1.8,0.5
			c-0.1,0-0.2,0.1-0.5,0.4c0,0-0.3,0.3-0.4,0.4l0,0c0,0,0,0,0,0l0,0l0,0c0,0,0,0,0,0c-1,1.3-0.9,3.2,0.3,4.4c0.6,0.6,1.5,1,2.4,1
			c0.9,0,1.7-0.3,2.4-1s1-1.5,1-2.4c0-0.6-0.2-1.2-0.5-1.7l2.2-2.2v5c-0.8,0.3-1.5,1.1-1.6,2h0v0.7h0c0.2,1.2,1.2,2.2,2.5,2.2
			c1.4,0,2.5-1.1,2.5-2.5c0-1.1-0.7-2-1.6-2.3v-6.7v-0.7v-13L80.8,229v5.9c-1.5,0.4-2.6,1.6-2.9,3.1h0v1.1h0
			c0.3,1.8,1.8,3.2,3.7,3.2c2.1,0,3.8-1.7,3.8-3.8c0-1.8-1.2-3.3-2.9-3.7v-7.6v-0.7v-12.2l6.5-6.5v43.7l-3.2,3.2
			c-0.5-0.3-1.1-0.5-1.7-0.5c-0.7,0-1.3,0.2-1.8,0.5c-0.1,0-0.2,0.1-0.5,0.4c-0.3,0.3-0.4,0.4-0.5,0.6c-0.8,1.3-0.7,3,0.5,4.2
			c0.6,0.6,1.5,1,2.4,1c0.9,0,1.7-0.3,2.4-1c1.1-1.1,1.3-2.8,0.5-4l2.8-2.8l2.8,2.8c-0.6,1.1-0.6,2.4,0.1,3.5c0,0.1,0.1,0.2,0.5,0.6
			c0.3,0.3,0.4,0.4,0.6,0.5c0.5,0.3,1.1,0.5,1.8,0.5c0.9,0,1.7-0.3,2.4-1c1.3-1.3,1.3-3.4,0-4.7c-0.6-0.6-1.5-1-2.4-1
			c-0.6,0-1.2,0.2-1.7,0.5l-3.2-3.2v-43.7l6.5,6.5v12.2v0.7v7.6c-1.5,0.4-2.6,1.6-2.9,3.1h0v1.1h0c0.3,1.8,1.8,3.2,3.7,3.2
			c2.1,0,3.8-1.7,3.8-3.8c0-1.8-1.2-3.3-2.9-3.7V229l10.3,10.3v13v0.7v6.7c-0.8,0.3-1.5,1.1-1.6,2h0v0.7h0c0.2,1.2,1.2,2.2,2.5,2.2
			c1.4,0,2.5-1.1,2.5-2.5c0-1.1-0.7-2-1.6-2.3v-5l2.2,2.2c-0.3,0.5-0.5,1.1-0.5,1.7c0,0.7,0.2,1.3,0.6,1.9c0.1,0.4,0.9,0.9,0.9,0.9
			l0.1,0c0.5,0.3,1.2,0.5,1.8,0.5c0.9,0,1.7-0.3,2.4-1c1.3-1.3,1.3-3.4,0-4.7c-0.6-0.6-1.5-1-2.4-1c-0.6,0-1.2,0.2-1.7,0.5l-3.4-3.4
			v0v-13.7l-12-12v0v-10.5l3.4,3.4c-1.1,1.5-1.1,3.6,0,5.1c0,0.1,0.1,0.2,0.5,0.6c0,0,0.4,0.4,0.5,0.5l0,0c0,0,0.1,0,0.1,0
			c0.8,0.6,1.7,0.9,2.8,0.9c1.2,0,2.4-0.5,3.3-1.4s1.4-2,1.4-3.3s-0.5-2.4-1.4-3.3c-0.9-0.9-2-1.4-3.3-1.4c-0.9,0-1.8,0.3-2.6,0.8
			l-4.6-4.6v0l-8.3-8.3v0v-9.9H89V205.4z M75.6,224.2c-0.5,0.5-1.3,0.8-2.1,0.8s-1.5-0.3-2.1-0.8c-1.1-1.1-1.1-3,0-4.1
			c0.5-0.5,1.3-0.8,2.1-0.8s1.5,0.3,2.1,0.8c0.5,0.5,0.8,1.3,0.8,2S76.1,223.6,75.6,224.2z M65,260c-0.4,0.4-0.8,0.6-1.4,0.6
			c-0.5,0-1-0.2-1.4-0.6c-0.7-0.7-0.7-2,0-2.7c0.4-0.4,0.8-0.6,1.4-0.6c0.5,0,1,0.2,1.4,0.6c0.4,0.4,0.6,0.8,0.6,1.4
			S65.4,259.7,65,260z M70.9,262.1c0,0.7-0.6,1.3-1.3,1.3s-1.3-0.6-1.3-1.3s0.6-1.3,1.3-1.3S70.9,261.4,70.9,262.1z M83.9,238.6
			c0,1.2-1,2.2-2.2,2.2s-2.2-1-2.2-2.2c0-1.2,1-2.2,2.2-2.2S83.9,237.3,83.9,238.6z M85.6,259L85.6,259c-0.4,0.4-0.9,0.6-1.4,0.6
			c-0.5,0-1-0.2-1.4-0.6c-0.4-0.4-0.6-0.8-0.6-1.4s0.2-1,0.6-1.4c0.4-0.4,0.8-0.6,1.4-0.6c0.5,0,1,0.2,1.4,0.6
			C86.3,257,86.3,258.2,85.6,259z M94.2,256.2c0.4-0.4,0.8-0.6,1.4-0.6c0.5,0,1,0.2,1.3,0.5l0,0l0,0c0.7,0.7,0.7,2,0,2.7
			c-0.4,0.4-0.8,0.6-1.4,0.6c-0.5,0-1-0.2-1.4-0.6C93.5,258.2,93.5,257,94.2,256.2z M114.8,257.3c0.4-0.4,0.8-0.6,1.4-0.6
			s1,0.2,1.4,0.6c0.8,0.7,0.8,2,0,2.7c-0.4,0.4-0.8,0.6-1.4,0.6s-1-0.2-1.4-0.6c-0.4-0.4-0.6-0.8-0.6-1.4S114.4,257.7,114.8,257.3z
			 M111.4,262.1c0,0.7-0.6,1.3-1.3,1.3s-1.3-0.6-1.3-1.3s0.6-1.3,1.3-1.3S111.4,261.4,111.4,262.1z M104.2,220.1
			c0.5-0.5,1.3-0.8,2-0.8c0.8,0,1.5,0.3,2,0.8l0.1,0.1c1.1,1.1,1.1,3,0,4.1c-0.5,0.5-1.3,0.8-2,0.8s-1.5-0.3-2-0.8
			c-0.5-0.5-0.8-1.3-0.8-2S103.6,220.6,104.2,220.1z M100.4,238.6c0,1.2-1,2.2-2.2,2.2c-1.2,0-2.2-1-2.2-2.2c0-1.2,1-2.2,2.2-2.2
			C99.4,236.3,100.4,237.3,100.4,238.6z"/>
		<path class="st10" d="M76.5,195.8l0.1-0.3h-1.8l-0.9,2.7H60.2h-1.2H43.6l-6.6,6.6H25.1l-1.6,1.6c-0.5-0.3-1.1-0.5-1.7-0.5
			c-0.7,0-1.3,0.2-1.8,0.5c-0.1,0-0.2,0.1-0.5,0.4c-0.3,0.3-0.4,0.4-0.5,0.6c-0.8,1.3-0.7,3,0.5,4.2c0.6,0.6,1.5,1,2.4,1
			c0.9,0,1.7-0.3,2.4-1c0.6-0.6,1-1.5,1-2.4c0-0.6-0.2-1.2-0.5-1.7l1.1-1.1h11.9l6.6-6.6h12.9L47.1,210H35.8L25,220.8h-5.2
			c-0.4-1.7-1.9-2.9-3.7-2.9c-2.1,0-3.8,1.7-3.8,3.8c0,1.9,1.4,3.5,3.2,3.7v0h1.1v0c1.5-0.2,2.8-1.4,3.1-2.9h5.9l10.7-10.7h10.1v7.1
			l-13,13v4c-1.9,0.4-3.4,1.9-3.7,3.9h0v1.4h0c0.3,2.2,2.3,3.9,4.6,3.9c2.5,0,4.6-2.1,4.6-4.6c0-2.3-1.6-4.1-3.8-4.5v-3.2l13-13
			v-8.3l10.1-10.1v15.3l-8.4,8.4c-0.3-0.1-0.7-0.2-1-0.2c-0.7,0-1.3,0.3-1.8,0.7c-0.5,0.5-0.7,1.1-0.7,1.8s0.3,1.3,0.7,1.8
			c0.5,0.5,1.1,0.7,1.8,0.7c0.5,0,1-0.1,1.4-0.4c0.2-0.1,0.5-0.4,0.7-0.7c0.5-0.7,0.6-1.7,0.2-2.4l8.9-8.9v-17.2h13.5v10.6L58,226.2
			v9.7v0l-14.9,14.9v4.5c-1.1,0.3-1.9,1.2-2,2.4h0v0.8h0c0.2,1.4,1.4,2.5,2.9,2.5c1.6,0,2.9-1.3,2.9-2.9c0-1.3-0.9-2.4-2.1-2.8v-3.8
			L58,238.4v9.2l-0.2,0.2c-0.5-0.3-1.1-0.5-1.7-0.5c-0.7,0-1.3,0.2-1.8,0.5c-0.1,0-0.2,0.1-0.3,0.2l-0.6,0.6l0,0
			c-1,1.3-0.9,3.2,0.3,4.4c0.6,0.6,1.5,1,2.4,1s1.7-0.3,2.4-1c0.6-0.6,1-1.5,1-2.4c0-0.6-0.2-1.2-0.5-1.7l0.7-0.7v-11.6v-0.7v-9
			l15.6-15.6v-11.8l3.9-3.9h-2.4L76.5,195.8z M23.2,210.7L23.2,210.7L23.2,210.7c-0.4,0.4-0.9,0.6-1.4,0.6c-0.5,0-1-0.2-1.4-0.6
			c-0.7-0.7-0.7-2,0-2.7c0.4-0.4,0.8-0.6,1.4-0.6c0.5,0,1,0.2,1.4,0.6C23.9,208.7,23.9,209.9,23.2,210.7z M16.2,223.9
			c-1.2,0-2.2-1-2.2-2.2c0-1.2,1-2.2,2.2-2.2s2.2,1,2.2,2.2C18.4,222.9,17.4,223.9,16.2,223.9z M37.4,240.3c0,1.6-1.3,2.9-2.9,2.9
			s-2.9-1.3-2.9-2.9s1.3-2.9,2.9-2.9S37.4,238.7,37.4,240.3z M49.9,227.9c-0.2,0.2-0.6,0.4-0.9,0.4c-0.3,0-0.7-0.1-0.9-0.4
			c-0.5-0.5-0.5-1.3,0-1.8c0,0,0,0,0,0c0.2-0.2,0.6-0.4,0.9-0.4c0.3,0,0.7,0.1,0.9,0.4C50.4,226.6,50.4,227.4,49.9,227.9z
			 M45.5,258.1c0,0.9-0.7,1.6-1.6,1.6s-1.6-0.7-1.6-1.6s0.7-1.6,1.6-1.6S45.5,257.2,45.5,258.1z M57.5,252c-0.4,0.4-0.8,0.6-1.4,0.6
			c-0.5,0-1-0.2-1.4-0.6c-0.4-0.4-0.6-0.8-0.6-1.4s0.2-1,0.6-1.4c0.4-0.4,0.8-0.6,1.4-0.6c0.5,0,1,0.2,1.4,0.6s0.6,0.8,0.6,1.4
			S57.9,251.6,57.5,252z"/>
		<path class="st10" d="M90.7,183.3L90.7,183.3v-9.7c1.2-4.2,4-10.7,6.5-13.7c3.2-3.9,5.9-8,7.4-12.9c1.1-3.8,1.6-7.7,1.7-11.6
			c0.1-2.9,0.1-5.7,1-8.5c0.7-2.2,1.9-4,3.5-5.5c6.4-6.2,10.7-13.6,12.7-22.3c1-4.6,1-9.2,0.5-13.8c-0.9-10.1-4.6-19.1-11-26.9
			c-0.6-0.7-1.2-1.4-1.8-2.1c-0.6-0.7-1.2-1.4-1.8-2.1c4.9,2.9,9.2,6.5,12.5,11.1c3.9,5.3,6.9,11,8.2,17.5
			c1.5,7.1,0.3,13.9-2.1,20.6c-2.4,6.5-6.7,11.6-11.6,16.3c-1.7,1.7-3.5,3.4-4.8,5.4c-2,3.1-2.4,6.5-2.6,10.1
			c-0.4,6.4-1.4,12.6-4.5,18.3c-1.4,2.5-3.1,4.8-4.9,7.1c-2.2,2.8-5.1,11.8-2.3,20.4l5.7,14.6h1.8L99,180.7
			c-2-7.8-0.3-14.2,0.6-16.4c1.1-2.8,3.6-3.7,6.4-2.4c1.2,0.5,2.4,1.1,3.5,1.7c7.6,3.9,13.7,2.3,19.8-2.6c0.1-0.1,0.1-0.2,0.1-0.3
			c-7.6-1-14.2-2.9-16.5-5c6.1,2.2,12,3.7,18.1,1.1c6-2.5,10-7,12.7-13c-4.3,2.1-8.6,3.8-13.2,4.3c-4.6,0.5-9.1,0.4-13.6-0.8
			c8.3,0.4,16.3-0.2,23.3-5.4c7.1-5.3,9.7-12.7,11-21c-4.3,4.5-8.8,8.5-14.3,11.4c-5.1,2.7-14.7,5.5-17.5,5.1
			c0.1-0.3,0.4-0.2,0.7-0.3c3.3-1,6.7-1.8,9.9-3.1c6.5-2.6,12.1-6.4,16-12.4c4.1-6.2,4.7-13.1,3.6-20.2c-0.3-2.1-0.9-4.2-1.8-6.4
			c-1.2,6.4-3.8,11.9-7.4,16.9c-3.6,5.1-7.9,9.3-13.6,11.9c5-4.1,9.6-8.5,12.7-14.2c3.6-6.5,5.1-13.4,3.9-20.8
			c-1-5.8-3.8-10.7-7.1-15.4c-0.5-0.7-1-1.5-1.9-2.1c0.7,2.7,1.2,5.1,1.5,7.7c0.5,6.1,0.5,12.1-1.4,18c-1.7,5.5-4.2,10.6-8.3,14.8
			c-0.1,0.2-0.3,0.2-0.5,0.1c0.1-0.1,0.2-0.2,0.3-0.3c0.3-0.5,0.6-0.9,0.8-1.4c4.4-7.9,7-16.3,5.6-25.4c-1.7-11-6.8-20.4-15.3-27.6
			c-5.3-4.5-11.1-8.1-18.3-9.3c0.7,0.4,1.2,0.8,1.7,1.1c0.5,0.4,1,0.7,1.5,1.1c11.4,9.6,18.3,21.7,19.6,36.6
			c1,11.7-2.3,22-10.3,30.6c-3.1,3.3-5.8,6.7-6.6,11.3c-0.2,0.9-0.3,1.9-0.6,3c-0.6-1.2-1-2.3-1.5-3.3c-2.7-5.6-6.9-10.1-11.2-14.5
			c-1.5-1.6-2.7-3.3-3.5-5.4c-0.8-2.1-0.7-4.2,0.4-6.2c1.4-2.4,3.5-3.3,6.1-2.5c5,1.6,8.2,5.2,10.3,9.8c0.1,0.3,0.1,0.7,0.5,0.7
			c0.1-0.6,0.2-1.2,0.3-1.8c0.4-2,0.4-4.1-0.6-5.9c-0.9-1.6-1.4-3.1-1-5c0.2-0.8-0.1-1.7-0.3-2.5c-0.9-3.9-3.5-6.4-6.6-8.7
			c-2.5-1.8-5.4-2.9-8.3-4.1c-3.8-1.6-6.6-4.2-8.1-8.1c-0.2-0.4-0.2-0.9-0.7-1.1c-0.1,0.7-0.2,1.4-0.3,2c-0.2,2.3,0.1,4.5,1.4,6.6
			c1.8,2.8,4.4,4.3,7.3,5.6c0.2,0.1,0.3,0.2,0.5,0.2c-0.2,0.3-0.5,0.1-0.7,0c-4.4-0.9-8.5-2.6-12-5.7c1.2,3.8,4,5.6,7.3,6.9
			c-0.2,0.4-0.6,0.5-0.9,0.6c-4.1,2.3-6.8,5.6-8.1,10.1c-1.4,4.8-1.3,9.6,0.4,14.3c1.9,5,1.8,10-0.6,14.9c-0.1-0.2-0.2-0.4-0.2-0.6
			c-0.6-3.8-2.3-6.9-5-9.6C65,114.5,62,109.6,60,104c-3.3-9.7-2.8-19.3,0.3-28.9c3-9.1,8-16.8,15-23.3c1.6-1.5,3.5-2.7,5.3-3.8
			c-2.5,0.5-5.1,0.9-7.4,2c-10.4,5-17.8,12.9-22.8,23.2c-3.3,7-4.5,14.3-3.2,22c0.9,5.6,2.6,10.8,5.7,15.6c0.3,0.2,0.5,0.5,0.4,1.1
			c-0.2-0.3-0.4-0.6-0.6-0.8c-0.8-0.7-1.4-1.5-2.1-2.4c-6.6-9.3-8.2-19.7-7-30.8c0.2-2.2,0.8-4.4,1.2-6.8c-1.9,2.1-3.2,4.2-4.5,6.3
			c-5.2,8.3-6,17.2-3,26.4c2.4,7.4,7,13.3,13.1,18.1c0.4,0.3,0.8,0.5,0.8,1.1c-10.9-6.1-16.4-16.1-19.5-27.9c-1,3.1-1.9,6.1-2.1,9.2
			c-0.7,8.3,1.4,15.6,7.4,21.6c5.1,5.1,11.3,8.1,18.1,10c1.4,0.4,2.8,0.8,4.2,1.3c-0.1,0.1-0.1,0.2-0.2,0.4
			c-12.1-2-22.6-7.3-30.7-16.8c0.4,2.9,1.1,5.5,1.8,8.1C33.8,140.4,44,146.5,54,147c3,0.2,6,0.1,9,0c0.2-0.1,0.5-0.2,0.7,0
			c0.1,0.1-0.3,0.2-0.5,0.2c-9.4,1.8-18.4,0.8-27.2-3.5c0.8,1.4,1.4,2.5,2.1,3.6c5.2,8.4,12.4,12.5,22.6,9.9
			c2.1-0.5,4.2-1.2,6.3-1.7c-5.4,3.1-11.1,5-17.5,5c1,1,2.2,1.6,3.2,2.3c5.2,3.4,10.6,3.8,16.2,1.2c1.8-0.9,3.6-1.8,5.6-2.5
			c1.4-0.4,2.6-0.1,3.7,0.8c1.1,0.9,1.6,2,1.9,3.4c0.4,1.7,1.1,6.1-0.2,14.9l-5.1,14.8h1.8l5-14.5c2.4-10.7,0.5-17.1-1.7-20.3
			c-1-1.5-2.1-2.9-3.1-4.3c-3.8-5.1-5.6-10.9-6.3-17.1c-0.4-3.1-0.3-6.2-0.7-9.2c-0.4-3.2-1.7-5.8-3.9-8c-3-3.1-6.2-5.9-8.8-9.3
			c-8.1-10.9-10.1-22.9-5.7-35.6c2.8-8.1,8-14.9,14.8-20.2c1.2-0.9,2.5-1.8,3.7-2.7c0.1,0,0.3-0.1,0.3-0.1c0.1,0.1,0,0.2-0.1,0.2
			c-0.6,1.2-1.6,2.1-2.4,3.1c-5.9,7.3-9.8,15.5-11.3,24.9c-1.8,12,0.1,23.2,7.2,33.2c1.4,1.9,3,3.6,4.7,5.1
			c3.1,2.9,4.3,6.5,4.4,10.6c0.2,5.1,0.3,10.2,1.8,15.2c1.1,3.7,2.7,7.1,5.1,10.1c1.6,2.1,3.1,4.3,4.6,6.5c1.4,2.1,3.8,7.4,4.9,10.5
			v9.6v0l-12.3,12.3h2.4l9.8-9.8v9.8h1.7v-9.8l9.8,9.8h2.4L90.7,183.3z M118.9,160.7c1.6,0.5,3.3,0.9,5.2,1.4
			c-4.2,1.7-8.2,2-12.2,0.2c-1.5-0.7-2.9-1.4-4.4-2c-1.4-0.6-2.8-1.1-4.5-0.9c2.1-2.8,4.6-3.5,7.8-2.1
			C113.5,158.4,116.1,159.9,118.9,160.7z M118.8,149.8c6.6,1.2,13.1,0.7,19.5-1.4c0.1,0,0.2,0,0.3,0c-0.1,0.1-0.1,0.1-0.2,0.2
			c-3.6,5.2-11.3,9.2-19,7c-3.1-0.9-6.1-1.9-9.3-2.2c-1.2-0.1-2.3,0.1-3.5,0.5c0.2-2.1,2.4-4.2,4.5-4.6
			C113.8,148.8,116.3,149.3,118.8,149.8z M122.5,139.2c9.4-1.5,17.7-5.2,24.7-11.7c0.1-0.1,0.3-0.2,0.4-0.3c0.1-0.1,0.2-0.2,0.3-0.2
			c0.1,0.2,0.1,0.4-0.1,0.5c-2.1,7.2-6.8,12.1-13.4,15.3c-4.7,2.3-9.7,2.4-14.8,2.3c-2.8-0.1-5.7-0.1-8.4,0.9
			c-0.7,0.3-1.3,0.6-2.1,1c0.6-3.4,2.7-5.3,5.6-6.4C117.3,139.7,120,139.6,122.5,139.2z M147.2,103.8c0.1-0.3,0.2-0.5,0.4-0.8
			c0-0.1,0.1-0.1,0.3-0.3c0.5,2.8,0.5,5.4,0.1,8c-1.3,9.7-7.2,15.9-15.6,20.1c-2.8,1.4-5.7,2.3-8.6,3.2c-4.5,1.4-9.1,2.5-12.7,6.2
			c0-3.1,1-5.5,3.1-7.4c2-1.8,4.4-3,6.9-3.9C133.6,124.5,142.2,116,147.2,103.8z M138,88.4c0.1-2.1,0-4.3,0-6.5c0-0.5,0-1,0-1.4
			c1.8,2.6,2.9,5.4,3.4,8.4c1.6,9.4-1.4,17.6-7.1,24.9c-3,3.9-6.7,7.1-10.9,9.8c-4.1,2.6-8.3,5.1-11.8,8.8c0.1-2.5,1-4.5,2.2-6.4
			c2.3-3.6,5.6-6.2,9-8.7C132.6,110.1,137.2,100.3,138,88.4z M76.5,159.4c-3.5,0.1-6.4,1.7-9.3,3.1c-3.9,1.8-7.8,1.4-11.9-0.3
			c1.9-0.5,3.6-0.8,5.2-1.4c2.3-0.8,4.5-1.8,6.6-2.9c0.7-0.4,1.5-0.8,2.3-1C72.6,156,74.3,156.6,76.5,159.4z M72.5,153.3
			c0,0.1,0.1,0.1,0.1,0.2c-0.1,0-0.1,0-0.2,0c-2.9-0.9-5.7,0-8.4,0.8c-2.9,0.9-5.7,1.8-8.8,1.8c-6,0.1-10.2-3.1-14-7.6
			c3.1,0.7,5.8,1.3,8.7,1.6c4.2,0.4,8.2,0,12.3-0.7c1.7-0.3,3.5-0.5,5.3-0.2C70,149.6,71.5,151,72.5,153.3z M69.9,146.9
			c-4.5-2.5-9.1-1.8-13.7-1.9c-7.2-0.2-13.5-2.2-18.6-7.6c-2.7-2.9-4.5-6.3-5.6-10.3c1.7,1.4,3.3,2.6,4.9,3.8
			c7.1,5,14.9,7.7,23.5,8.8c2.8,0.4,5.5,1,7.6,3.1C68.9,143.8,69.6,145.1,69.9,146.9z M68.3,140c-4-3.9-9.2-5.1-14.2-6.8
			c-6.1-2-11.7-4.8-16.2-9.6c-5.3-5.7-7.1-12.5-6.2-20.1c0-0.4,0.1-0.7,0.1-1.1c1.1,2.6,2.3,5,3.6,7.4c4.2,8,10.8,13.4,18.9,17
			c2.7,1.2,5.4,2.1,7.9,3.6c3.4,2.1,5.9,4.8,6,9C68.4,139.7,68.4,139.8,68.3,140z M51.7,123.2C51.7,123.1,51.7,123.1,51.7,123.2
			c0.1,0,0.1,0,0.2,0.1c0,0-0.1,0.1-0.1,0.1C51.7,123.3,51.7,123.2,51.7,123.2z M52.1,123.4c0.1,0,0.1,0.1,0.2,0.1
			c0,0.1-0.1,0.2-0.1,0.3c0-0.1-0.1-0.1-0.1-0.2C52,123.4,52,123.4,52.1,123.4z M64.3,124.1c1.9,2.3,3.1,4.9,3.3,8.1
			c-4.4-4.6-10-7.2-14.7-10.9c-6.5-5.3-11.7-11.5-14-19.7c-2.1-7.5-1.4-14.7,2.6-21.8c0,0.8,0,1.3,0,1.9c-0.1,5.4,0.2,10.8,1.7,16.1
			c2.1,7.5,6.2,13.6,12.2,18.5C58.4,118.8,61.7,121.1,64.3,124.1z M89.6,169.2c-1.9-5.7-5.6-10.1-9-14.8c-3.7-5.1-5.5-10.8-5.5-17.1
			c0-2.9,0.7-5.7,1.8-8.4c2.2-5.4,2.3-10.7,0.3-16.2c-1.6-4.5-1.6-9.1,0.2-13.5c1.6-4.1,4.3-7.3,8.7-8.5c2.5-0.7,4.9-0.3,7.3,0.7
			c2.6,1.1,4.9,2.7,6.7,4.8c0.9,1.1,1.8,2.2,1.5,3.9c-1.7-1.3-3.5-2.4-5.5-2.9c-5.9-1.7-11.6,3.1-10.9,9.2c0.4,3.4,2,6.2,4.2,8.6
			c3.1,3.3,6.3,6.5,8.9,10.2c3.2,4.7,5.4,9.7,5,15.6c-0.3,4.6-1.7,8.8-4.4,12.6c-1.3,1.8-2.5,3.6-3.9,5.3
			C92.8,162,90.8,165.4,89.6,169.2z"/>
	</g>
</g>
<g id="Organic_Roots" class="st0">
	<g class="st8">
		<path class="st7" d="M99.1,181c0,0,0-0.1,0-0.1C99.1,180.9,99.1,181,99.1,181z"/>
		<path class="st7" d="M98.7,178.2c0,0,0,0.2,0,0.4C98.7,178.3,98.7,178.2,98.7,178.2z"/>
		<path class="st7" d="M98.8,178.6c0,0.2,0,0.4,0.1,0.6C98.8,178.9,98.8,178.7,98.8,178.6z"/>
	</g>
	<path class="st12" d="M92,159"/>
	<path class="st12" d="M168.3,205.1c-6.4-4.5-13.3-5.4-20.4-4.2c-2.4,0.4-4.7,0-7-1.1c-3.7-1.8-7.5-3.2-11.6-2.9
		c-4.3,0.2-8.5,0.3-12.8,0.1c-3.2-0.2-6.3-0.8-9.3-2.8c-3.3-2.3-5-5.9-7.4-9.6c-0.2-0.4-1.1-1.4-1.7-3.7s0-8.6,0-8.6H80.7
		c0,0,0.6,6.8,0,8.6s-0.6,1.8-1,2.6c-1,1.9-2.2,3.4-3.1,4.8c-6.3,9.8-20.3,12.4-28.6,8.1c-4.9-2.6-9.5-2.6-14.3,0.4
		c-4.3,2.8-8.8,5-13.7,5c-2.4,0-4.6,0.8-6.8,2.2c-2.6,1.7-5,4.1-8.4,4.7c1.6,0.8,2.8,0.2,3.9-0.4c4.8-2.6,9.7-4.8,15-4.1
		c1.6,0.2,3.2-0.3,4.7-0.9c2.8-1,5.5-2.1,8.3-3.2c-2.9,2.8-5.3,6.1-7.5,9.7c-1.8,2.8-4.1,4.7-6.8,5.1c-4.7,0.8-8,4.5-11.1,8.6
		c3.1-2.2,6.2-4.7,9.8-5.4c5.4-1.1,9.7-4.4,12.9-10.3c1-1.8,2.5-3.2,3.9-4.7c2-2.1,4.4-2.7,6.7-1.6c6.6,3.1,13.4,3.9,20.3,2.4
		c-3.5,3.6-7.6,5.8-11.9,6.2c-6.6,0.7-11.9,3.8-15.6,11.2c-1.3,2.5-3.2,3.6-5.4,4c-2.6,0.5-5.1,1-7.3,3.1c-2.5,1.8-4.2,4.8-6,7.7
		c2.2-2.2,4.4-4.4,6.6-6.6l0,0c0,0,0,0,0,0c3.6-2.5,7.9-1.7,12.1-4c-3.8,6.2-6.5,12.6-10.5,17.7c0.7,0.3,1.2-0.4,1.6-0.9
		c4-5.5,8.5-10.5,10.9-17.6c1.4-4,3.6-6.8,6.8-7.8c3.7-1.1,7.5-1.8,11.2-2.7c-4,3.4-7.4,7.7-8.5,13.9c-1.1,6-3.7,10.1-7.3,13.6
		c-2.7,2.5-4.6,6-5.1,10.5c1.3-3.6,3.3-6.4,5.8-8.6c2.4-2.2,4.9-4.4,6.9-7.8c0.9,5,0.5,9.4-0.4,13.9c1.6-1.7,2.5-3.8,2.8-6.3
		c0.3-1.7,0-3.4,0.1-5c0.2-3.1-0.4-6.3,0.3-9.3c1.1-4.3,3-7.8,5.7-10.6c3-3,6.2-5.7,8.4-9.4c-0.1,8.5,2.1,17.7-3.9,24.7
		c3.9-1.7,6-5.3,6.6-10.4c0.3-3.2,0.3-6.4,0.4-9.6c0.1-4.1,1.3-7.7,3.9-10c3.1-2.8,6.3-5.3,9.6-8.1c0,0.4-0.8,2.5-1.3,3.3
		c-3,5.9-4.7,12.3-5,19.4c-0.2,6.1-1.6,11.5-4.8,16.2c-2.5,3.6-5.3,6.5-8.5,9.1c-2.3,1.9-4.4,4-5.6,7.3c-1.4,3.6-1.7,7.9-4.3,10.7
		c1.9-1.4,3.5-3.2,4.1-5.9c1.4-5.9,5.2-8.4,8.8-11.3c-1.9,5.2-1.3,10.2,0.2,15.2c0.1,2.5-0.1,4.9-0.7,7.2c1.9-3.5,2.2-7.3,1.2-11.3
		c0,0,0,0,0,0c-0.6-6.1,1.2-10.9,4.7-14.8c2.2-2.4,4.3-4.9,5.7-9.1c0,4,0.9,6.9,1.8,9.7c0.9,2.8,0.9,5.7-0.1,8.4
		c-0.7,2-1.5,3.9-2.3,5.8c-1,2.6-1.5,5.4-1.2,8.4c0.6-1.8,0.8-3.9,1.7-5.5c2.7-4.6,5.5-9,4.7-15.8c3.5,4.8,4.9,9.9,4.6,15.8
		c-0.1,2.1,0.3,4,1,5.8c1.3,3,2.6,5.9,4.1,9.3c-0.1-2.8-0.9-4.7-1.6-6.7c-1.1-2.8-1.7-5.8-1.5-9c0.3-5.4-0.5-10.4-3.1-14.7
		c-2.7-4.6-4.7-9.5-5.3-15.4c-1.1-13,2.5-20.8,2.5-20.8c-0.4,5.8,0.6,10.3,2.7,14.5c1.7,3.4,3.6,6.5,5.8,9.3c2.9,3.6,4.6,8,4.5,13.4
		c-0.1,10.1,3.5,17.6,9.3,23.7c-1.7-5.5-5.6-9.4-6.5-15.4c-0.3-4.2,0-9.8-0.5-12.8s-0.6-2.4-0.5-4.2c1.5,3.7,3.6,5.9,5.7,8.2
		c1.6,1.6,3.2,3.4,3.8,5.9c1.4,5.8,4.4,9.5,8.6,12.7c-0.8-1.9-1.7-3-2.7-4c-1.7-1.6-2.9-3.7-3.3-6.3c-0.8-5-3-8.6-5.9-11.8
		c-4.5-4.9-8.3-10.6-11.7-16.9c-3.4-6.4-6-13.3-5.3-18.8c0.7-5.4,2.4-8.2,2.4-8.2s0.9,5,3.3,9.9c2.4,4.9,2.4,4.9,5.4,8.3
		c1.4,1.6,2.7,3.3,4,4.9c2.9,3.3,4.6,7.4,5.2,12.3c0.2,1.5,0.2,3.3,1.3,4.8c0.2-6.8,0.1-13.2-3.7-18.3c3.9,2.4,6.7,6.4,9.9,9.9
		c3.5,3.7,5.4,8.1,4.7,14.4c-0.5,4.5,0.3,8.8,3.2,11.9c2.2,2.3,4.6,4.4,6.2,7.5c-0.5-2.5-1.5-4.5-2.8-6.1
		c-4.2-4.9-4.9-11.1-4.2-17.6c5.9,0.3,8.4,7.8,13.1,10.9c-2.1-2.2-3-5.5-4.6-8c7.3,0.6,11.9,7.1,16.9,12.9c-1.5-2.9-3.2-5.3-4.6-8
		c-2.4-4.4-5.7-6.2-9.6-7.3c-4.4-1.2-9-2.6-11.9-7.6c-4.4-7.8-9.8-13.5-16.4-17.6c-4.5-2.7-7.1-8-9.1-14.4c2.5,1.4,4.7,2.1,6.9,2.6
		c5,1.1,9.2,3.8,11.5,10.5c1.8,5.4,5.3,8.6,9.7,10c4.1,1.3,7.5,3.7,9.6,8.9c0.4,1.1,1,2.1,2.1,2.7c-1.3-5.6-3.2-10.3-7.3-12.6
		c-1.4-0.8-2.8-1.5-4.2-2.2c-3.1-1.3-5.2-4-6.6-7.8c-1.2-3.3-2.1-6.9-4.4-9.4c2.5,1.3,4.9,2.6,7.5,3.4c5,1.4,9.3,4.1,12.8,9.1
		c2.9,4,6,7.6,10,9.7c2.4,1.2,3.9,3.7,4.9,6.7c0.7,2,1.3,4.1,2.1,6c0.6,1.5,1.3,3,3.1,3.3c-3.4-4.7-2.8-11.7-6.8-15.9
		c6.8,0.9,12.3,4.4,16.8,11.8c-3.3-9.8-9.2-12.8-15.8-14.5c-4.3-1.1-8.2-3.3-11-8c-3.3-5.7-6.7-11.1-12.6-11.8
		c0.9-0.2,1.5-1.1,3.1-1.1s3.2-0.3,5.2,0.4c1.2,0.5,2.5,0.8,3.7,1.4c4.7,2.1,9.2,5.2,14,7.1c2.6,1,4.9,2.8,6.8,5.3
		c3.6,4.4,8.2,6.4,12.6,8.8c-0.7-0.9-1.5-1.7-2.4-2.3c-3.9-2.7-7.5-6-10.7-10.2c-1.9-2.5-4.4-3.7-7-4.7c-1.1-0.4-2.2-1-3.9-1.7
		c1.6-0.1,2.6-0.1,3.5-0.3c5.3-1.1,10.5-1,15.6,0.9c2.3,0.8,4.4,2.2,6.8,2.4c0.3-0.2,0.6-0.2,0.8-0.7
		C170.9,206.5,169.5,206,168.3,205.1z"/>
</g>
</svg>
