<?xml version="1.0" encoding="UTF-8"?>
<svg id="Layer_1" xmlns="http://www.w3.org/2000/svg" version="1.1" viewBox="0 0 175.7 274.6">
  <!-- Generator: Adobe Illustrator 29.8.1, SVG Export Plug-In . SVG Version: 2.1.1 Build 2)  -->
  <defs>
    <style>
      .st0 {
        fill: #e86607;
      }

      .st1 {
        fill: #c67e4a;
      }

      .st2 {
        fill: #00e635;
      }

      .st3 {
        fill: #efa505;
      }

      .st4 {
        fill: none;
      }

      .st5 {
        display: none;
      }

      .st6 {
        fill: #0caa91;
      }
    </style>
  </defs>
  <g id="Organic_Final">
    <g>
      <path class="st0" d="M128.3,94.5s-.1.2-.2.6v.2c-.1,0,.1-.7.2-.8Z"/>
      <path class="st0" d="M128.3,94.5h0Z"/>
      <path class="st0" d="M99.1,180.9v.1-.1Z"/>
      <path class="st0" d="M98.8,178.6v-.4c-.1,0-.1.2,0,.4Z"/>
      <path class="st0" d="M98.8,178.6c0,.2,0,.4.1.6-.1-.3-.1-.5-.1-.6Z"/>
      <path class="st3" d="M168.3,205.1c-6.4-4.5-13.3-5.4-20.4-4.2-2.4.4-4.7,0-7-1.1-3.7-1.8-7.5-3.2-11.6-2.9-4.3.2-8.5.3-12.8.1-3.2-.2-6.3-.8-9.3-2.8-3.3-2.3-5-5.9-7.4-9.6-.2-.4-1.1-1.4-1.7-3.7-.3-1.2-.3-3.4-.2-5.3-.1-4.1,7-10.4,11.7-12.3,4.7-1.9,9.7-3.5,14.2-5.9,8.2-4.4,12.5-10.1,13.8-19.1.3-2.9,1.2-6.8-.6-11.8-3-8.1-8.2-21.6-8.9-24.3-.7-2.8-.5-5,0-6.8v-.2c.6-2.3,1.3-4.5,2.2-6.6-3.9,3.3-6.1,7.2-5,12.1,1.3,5.7,4.7,13.5,5.1,16.8s.1,4.5-.3,9.2c-.4,4.7-5.2,13.9-12.1,18.6-6.7,4.5-14.1,8.4-18.6,15.2,0-1,.7-1.7,1.2-2.5,3.2-4.9,7.9-8.6,12.7-12.3,9.3-7.2,14.2-16,13.8-27-.2-5.5-2.1-10.6-4.3-15.7-2.8-6.6-6.7-12.8-9.7-19.3-2-4.3-2.7-8.7-1.4-13.3.7-2.3,2-4.3,3.1-6.5-8.1,5.8-11.5,13.1-8.9,22.3.9,3,2.3,5.8,3.7,8.6,3.1,6.2,5.6,12.5,5.3,19.5-.1,2.8-1,6.5-2,7.8,1.5-8.4-.7-16-4.9-23.2-1.7-3.1-3.4-6.2-5.2-9.2-3.3-5.8-4.2-11.7-1.2-17.9,1.2-2.6,2.1-5.3,3.2-8,3.4-8.3,3.3-16.4-1.6-24.2-2.2-3.6-4.8-7-7.3-10.5-4.1-5.7-6-11.7-4.2-18.4.8-2.5,1.9-4.7,3.3-7.3-1.7,1.1-2.5,2.2-3.5,3.3-6.4,6.7-8.9,14.3-6.4,22.9,1,3.3,2.4,6.4,3.8,9.5,3,6.6,2.5,12.9-2.1,18.9-2.3,3-4.5,6.2-6.7,9.3-6.2,8.6-7.4,17.8-3.5,27.4,1.1,2.8,2.3,5.7,4.2,8.2,4.7,6.4,4.2,12.8.6,19.4-1.8,3.3-4.6,6.1-5.9,9.7-.7,1.8-1,3.6-1.6,5.4-.5-3,.5-5.7,1.8-8.3,1.8-3.7,4.3-7.2,4.8-11.3.3-2.8-.1-5.5-1.1-8.2-.5,3.5-1.8,6.6-4.1,9.3-3,3.6-5.4,7.5-5.7,12.1-.6-1.1-.5-2.1-.4-3.2.4-3.5,1.9-6.6,3.1-9.9,3.9-10.7,2.9-20.8-4.4-30.2-2.9-3.7-7-6-12-8.1.4.5.4.7.6.8,6.1,5.7,7.6,12.3,4.8,19.7-1.7,4.6-4.3,8.8-6.5,13.1-4.2,8.1-5,16.4-1.1,24.8,2.8,6,7.5,10.6,13,14.7.5.4,1,.7,1.4,1.1.4.4.8.8,1.2,1.2-8.6-5.2-19.5-7.2-26.4-14.8,1,3.5,2.9,6.5,5.2,9.3,4.1,4.9,9.9,7.2,16,9.4,7.3,2.6,16.7,11.7,16.8,15.6.1,2.1.2,5.3-.1,6.4q-.6,1.8-1,2.6c-1,1.9-2.2,3.4-3.1,4.8-6.3,9.8-20.3,12.4-28.6,8.1-4.9-2.6-9.5-2.6-14.3.4-4.3,2.8-8.8,5-13.7,5-2.4,0-4.6.8-6.8,2.2-2.6,1.7-5,4.1-8.4,4.7,1.6.8,2.8.2,3.9-.4,4.8-2.6,9.7-4.8,15-4.1,1.6.2,3.2-.3,4.7-.9,2.8-1,5.5-2.1,8.3-3.2-2.9,2.8-5.3,6.1-7.5,9.7-1.8,2.8-4.1,4.7-6.8,5.1-4.7.8-8,4.5-11.1,8.6,3.1-2.2,6.2-4.7,9.8-5.4,5.4-1.1,9.7-4.4,12.9-10.3,1-1.8,2.5-3.2,3.9-4.7,2-2.1,4.4-2.7,6.7-1.6,6.6,3.1,13.4,3.9,20.3,2.4-3.5,3.6-7.6,5.8-11.9,6.2-6.6.7-11.9,3.8-15.6,11.2-1.3,2.5-3.2,3.6-5.4,4-2.6.5-5.1,1-7.3,3.1-2.5,1.8-4.2,4.8-6,7.7,2.2-2.2,4.4-4.4,6.6-6.6h0c3.6-2.5,7.9-1.7,12.1-4-3.8,6.2-6.5,12.6-10.5,17.7.7.3,1.2-.4,1.6-.9,4-5.5,8.5-10.5,10.9-17.6,1.4-4,3.6-6.8,6.8-7.8,3.7-1.1,7.5-1.8,11.2-2.7-4,3.4-7.4,7.7-8.5,13.9-1.1,6-3.7,10.1-7.3,13.6-2.7,2.5-4.6,6-5.1,10.5,1.3-3.6,3.3-6.4,5.8-8.6,2.4-2.2,4.9-4.4,6.9-7.8.9,5,.5,9.4-.4,13.9,1.6-1.7,2.5-3.8,2.8-6.3.3-1.7,0-3.4.1-5,.2-3.1-.4-6.3.3-9.3,1.1-4.3,3-7.8,5.7-10.6,3-3,6.2-5.7,8.4-9.4-.1,8.5,2.1,17.7-3.9,24.7,3.9-1.7,6-5.3,6.6-10.4.3-3.2.3-6.4.4-9.6.1-4.1,1.3-7.7,3.9-10,3.1-2.8,6.3-5.3,9.6-8.1,0,.4-.8,2.5-1.3,3.3-3,5.9-4.7,12.3-5,19.4-.2,6.1-1.6,11.5-4.8,16.2-2.5,3.6-5.3,6.5-8.5,9.1-2.3,1.9-4.4,4-5.6,7.3-1.4,3.6-1.7,7.9-4.3,10.7,1.9-1.4,3.5-3.2,4.1-5.9,1.4-5.9,5.2-8.4,8.8-11.3-1.9,5.2-1.3,10.2.2,15.2.1,2.5-.1,4.9-.7,7.2,1.9-3.5,2.2-7.3,1.2-11.3h0c-.6-6.1,1.2-10.9,4.7-14.8,2.2-2.4,4.3-4.9,5.7-9.1,0,4,.9,6.9,1.8,9.7s.9,5.7-.1,8.4c-.7,2-1.5,3.9-2.3,5.8-1,2.6-1.5,5.4-1.2,8.4.6-1.8.8-3.9,1.7-5.5,2.7-4.6,5.5-9,4.7-15.8,3.5,4.8,4.9,9.9,4.6,15.8-.1,2.1.3,4,1,5.8,1.3,3,2.6,5.9,4.1,9.3-.1-2.8-.9-4.7-1.6-6.7-1.1-2.8-1.7-5.8-1.5-9,.3-5.4-.5-10.4-3.1-14.7-2.7-4.6-4.7-9.5-5.3-15.4-1.1-13,2.5-20.8,2.5-20.8-.4,5.8.6,10.3,2.7,14.5,1.7,3.4,3.6,6.5,5.8,9.3,2.9,3.6,4.6,8,4.5,13.4-.1,10.1,3.5,17.6,9.3,23.7-1.7-5.5-5.6-9.4-6.5-15.4-.3-4.2,0-9.8-.5-12.8s-.6-2.4-.5-4.2c1.5,3.7,3.6,5.9,5.7,8.2,1.6,1.6,3.2,3.4,3.8,5.9,1.4,5.8,4.4,9.5,8.6,12.7-.8-1.9-1.7-3-2.7-4-1.7-1.6-2.9-3.7-3.3-6.3-.8-5-3-8.6-5.9-11.8-4.5-4.9-8.3-10.6-11.7-16.9-3.4-6.4-6-13.3-5.3-18.8.7-5.4,2.4-8.2,2.4-8.2,0,0,.9,5,3.3,9.9s2.4,4.9,5.4,8.3c1.4,1.6,2.7,3.3,4,4.9,2.9,3.3,4.6,7.4,5.2,12.3.2,1.5.2,3.3,1.3,4.8.2-6.8.1-13.2-3.7-18.3,3.9,2.4,6.7,6.4,9.9,9.9,3.5,3.7,5.4,8.1,4.7,14.4-.5,4.5.3,8.8,3.2,11.9,2.2,2.3,4.6,4.4,6.2,7.5-.5-2.5-1.5-4.5-2.8-6.1-4.2-4.9-4.9-11.1-4.2-17.6,5.9.3,8.4,7.8,13.1,10.9-2.1-2.2-3-5.5-4.6-8,7.3.6,11.9,7.1,16.9,12.9-1.5-2.9-3.2-5.3-4.6-8-2.4-4.4-5.7-6.2-9.6-7.3-4.4-1.2-9-2.6-11.9-7.6-4.4-7.8-9.8-13.5-16.4-17.6-4.5-2.7-7.1-8-9.1-14.4,2.5,1.4,4.7,2.1,6.9,2.6,5,1.1,9.2,3.8,11.5,10.5,1.8,5.4,5.3,8.6,9.7,10,4.1,1.3,7.5,3.7,9.6,8.9.4,1.1,1,2.1,2.1,2.7-1.3-5.6-3.2-10.3-7.3-12.6-1.4-.8-2.8-1.5-4.2-2.2-3.1-1.3-5.2-4-6.6-7.8-1.2-3.3-2.1-6.9-4.4-9.4,2.5,1.3,4.9,2.6,7.5,3.4,5,1.4,9.3,4.1,12.8,9.1,2.9,4,6,7.6,10,9.7,2.4,1.2,3.9,3.7,4.9,6.7.7,2,1.3,4.1,2.1,6,.6,1.5,1.3,3,3.1,3.3-3.4-4.7-2.8-11.7-6.8-15.9,6.8.9,12.3,4.4,16.8,11.8-3.3-9.8-9.2-12.8-15.8-14.5-4.3-1.1-8.2-3.3-11-8-3.3-5.7-6.7-11.1-12.6-11.8.9-.2,1.5-1.1,3.1-1.1s3.2-.3,5.2.4c1.2.5,2.5.8,3.7,1.4,4.7,2.1,9.2,5.2,14,7.1,2.6,1,4.9,2.8,6.8,5.3,3.6,4.4,8.2,6.4,12.6,8.8-.7-.9-1.5-1.7-2.4-2.3-3.9-2.7-7.5-6-10.7-10.2-1.9-2.5-4.4-3.7-7-4.7-1.1-.4-2.2-1-3.9-1.7,1.6-.1,2.6-.1,3.5-.3,5.3-1.1,10.5-1,15.6.9,2.3.8,4.4,2.2,6.8,2.4.3-.2.6-.2.8-.7-.8-.4-2.2-.9-3.4-1.8Z"/>
    </g>
    <g>
      <path class="st1" d="M81.6,47.1c.1-.6-.2-1.3.7-1.6-.3-.8-.6-1.7-1.7-2.5,1.1,2.3.8,4.4.8,6.5.5-.7.1-1.5.2-2.4Z"/>
      <path class="st1" d="M81.7,49.8v-.2c.2-1.3-.3-2.7.5-4-.9.3-.6,1-.7,1.6-.1.8.3,1.7-.2,2.5.1.1.2.3.4.1Z"/>
    </g>
  </g>
  <g id="Layer_6" class="st5">
    <g>
      <path class="st4" d="M60.3,139.6c-8.5-1.1-16.4-3.8-23.5-8.8-1.6-1.1-3.1-2.4-4.9-3.8,1.1,4.1,2.9,7.4,5.6,10.3,5,5.3,11.4,7.4,18.6,7.6,4.6.1,9.2-.6,13.7,1.9-.3-1.8-1-3-2-4.2-2-2-4.7-2.6-7.5-3Z"/>
      <path class="st4" d="M62.2,149.4c-4.1.7-8.2,1.1-12.3.7-2.9-.3-5.6-.9-8.7-1.6,3.8,4.5,8.1,7.7,14,7.6,3,0,5.9-1,8.8-1.8,2.8-.9,5.5-1.7,8.4-.8h.2c0-.1-.1-.1-.1-.2-1-2.2-2.5-3.7-5-4.1-1.8-.3-3.6-.1-5.3.2Z"/>
      <path class="st4" d="M62.4,130.5c-2.5-1.5-5.3-2.4-7.9-3.6-8.2-3.6-14.7-9-18.9-17-1.3-2.4-2.4-4.9-3.6-7.4,0,.4-.1.7-.1,1.1-.9,7.6.9,14.4,6.2,20.1,4.5,4.8,10.1,7.6,16.2,9.6,5,1.6,10.2,2.9,14.2,6.8,0-.2.1-.3.1-.5-.3-4.3-2.8-7-6.2-9.1Z"/>
      <path class="st4" d="M51.8,123.1q-.1,0,0,0c-.1.1,0,.2,0,.2l.1-.1c-.1,0-.1-.1-.1-.1Z"/>
      <path class="st4" d="M69.5,156.9c-.8.2-1.6.6-2.3,1-2.1,1.1-4.3,2.1-6.6,2.9-1.6.6-3.3.9-5.2,1.4,4.1,1.7,7.9,2.1,11.9.3,2.9-1.3,5.8-3,9.3-3.1-2.3-2.8-4-3.4-7.1-2.5Z"/>
      <path class="st4" d="M52.3,123.4c-.1,0-.1-.1-.2-.1s-.2.1-.1.2c0,.1.1.1.1.2.1-.1.2-.2.2-.3Z"/>
      <path class="st4" d="M118.8,149.8c-2.5-.5-5-1-7.7-.5-2.1.4-4.3,2.5-4.5,4.6,1.1-.4,2.3-.7,3.5-.5,3.2.3,6.3,1.4,9.3,2.2,7.7,2.2,15.4-1.8,19-7l.2-.2h-.3c-6.4,2-12.9,2.6-19.5,1.4Z"/>
      <path class="st4" d="M103,159.4c1.7-.2,3.1.4,4.5.9,1.5.6,2.9,1.4,4.4,2,4,1.8,8,1.5,12.2-.2-1.9-.5-3.6-.9-5.2-1.4-2.8-.8-5.3-2.3-8-3.4-3.3-1.4-5.8-.7-7.9,2.1Z"/>
      <path class="st4" d="M119.7,145.1c5,.1,10.1,0,14.8-2.3,6.6-3.2,11.4-8.1,13.4-15.3.2-.1.2-.3.1-.5-.1.1-.2.2-.3.2-.1.1-.3.2-.4.3-7,6.5-15.3,10.2-24.7,11.7-2.6.4-5.2.5-7.7,1.4-2.9,1.1-5,3-5.6,6.4.8-.4,1.4-.7,2.1-1,2.7-1.1,5.5-1,8.3-.9Z"/>
      <path class="st4" d="M132.3,130.7c8.4-4.2,14.3-10.4,15.6-20.1.4-2.6.3-5.2-.1-8-.2.2-.2.3-.3.3-.1.3-.3.5-.4.8-5,12.2-13.5,20.7-26.1,25.1-2.5.9-4.9,2-6.9,3.9-2.1,1.9-3.1,4.3-3.1,7.4,3.6-3.7,8.2-4.8,12.7-6.2,2.9-.9,5.9-1.8,8.6-3.2Z"/>
      <path class="st4" d="M89.5,115c-2.3-2.4-3.9-5.2-4.2-8.6-.7-6.1,5-10.9,10.9-9.2,2,.6,3.8,1.6,5.5,2.9.3-1.7-.5-2.9-1.5-3.9-1.9-2.1-4.1-3.8-6.7-4.8-2.4-1-4.8-1.4-7.3-.7-4.4,1.2-7.1,4.4-8.7,8.5-1.7,4.5-1.8,9-.2,13.5,2,5.5,1.9,10.8-.3,16.2-1.1,2.7-1.8,5.5-1.8,8.4,0,6.3,1.8,12,5.5,17.1,3.4,4.7,7.1,9.1,9,14.8,1.2-3.9,3.3-7.2,5.6-10.4,1.3-1.8,2.6-3.5,3.9-5.3,2.7-3.8,4-8,4.4-12.6.4-5.9-1.8-10.9-5-15.6-2.8-3.8-6-7-9.1-10.3Z"/>
      <path class="st4" d="M43.2,97.7c-1.5-5.3-1.8-10.6-1.7-16.1v-1.9c-4,7.1-4.7,14.3-2.6,21.8,2.3,8.2,7.5,14.4,14,19.7,4.7,3.8,10.3,6.3,14.7,10.9-.2-3.3-1.3-5.8-3.3-8.1-2.6-3.1-5.9-5.3-9-7.8-5.9-4.9-10-11-12.1-18.5Z"/>
      <path class="st4" d="M134.4,113.8c5.7-7.3,8.7-15.5,7.1-24.9-.5-3-1.6-5.8-3.4-8.4v1.4c0,2.2.1,4.3,0,6.5-.8,11.9-5.4,21.7-15.2,28.9-3.4,2.5-6.7,5.1-9,8.7-1.2,1.9-2.1,3.9-2.2,6.4,3.5-3.7,7.7-6.2,11.8-8.8,4.2-2.7,7.8-5.9,10.9-9.8Z"/>
      <path class="st6" d="M164.1,217.9h-1.1c-1.5.2-2.8,1.4-3.1,2.9h-5.2l-10.7-10.8h-11.4l-10.1-10.1h12.9l6.6,6.6h11.9l1.1,1.1c-.6,1.1-.6,2.4.1,3.5,0,.1.1.2.4.5l.4.4h0c.6.4,1.3.7,2,.7.9,0,1.7-.3,2.4-1s1-1.5,1-2.4-.3-1.7-1-2.4c-.6-.6-1.5-1-2.4-1-.6,0-1.2.2-1.7.5l-1.6-1.6h-11.9l-6.6-6.6h-30.2l-6.9-17.5c-2-7.8-.3-14.2.6-16.4,1.1-2.8,3.6-3.7,6.4-2.4,1.2.5,2.4,1.1,3.5,1.7,7.6,3.9,13.7,2.3,19.8-2.6.1-.1.1-.2.1-.3-7.6-1-14.2-2.9-16.5-5,6.1,2.2,12,3.7,18.1,1.1,6-2.5,10-7,12.7-13-4.3,2.1-8.6,3.8-13.2,4.3-4.6.5-9.1.4-13.6-.8,8.3.4,16.3-.2,23.3-5.4,7.1-5.3,9.7-12.7,11-21-4.3,4.5-8.8,8.5-14.3,11.4-5.1,2.7-14.7,5.5-17.5,5.1.1-.3.4-.2.7-.3,3.3-1,6.7-1.8,9.9-3.1,6.5-2.6,12.1-6.4,16-12.4,4.1-6.2,4.7-13.1,3.6-20.2-.3-2.1-.9-4.2-1.8-6.4-1.2,6.4-3.8,11.9-7.4,16.9-3.6,5.1-7.9,9.3-13.6,11.9,5-4.1,9.6-8.5,12.7-14.2,3.6-6.5,5.1-13.4,3.9-20.8-1-5.8-3.8-10.7-7.1-15.4-.5-.7-1-1.5-1.9-2.1.7,2.7,1.2,5.1,1.5,7.7.5,6.1.5,12.1-1.4,18-1.7,5.5-4.2,10.6-8.3,14.8-.1.2-.3.2-.5.1l.3-.3c.3-.5.6-.9.8-1.4,4.4-7.9,7-16.3,5.6-25.4-1.7-11-6.8-20.4-15.3-27.6-5.3-4.5-11.1-8.1-18.3-9.3.7.4,1.2.8,1.7,1.1.5.4,1,.7,1.5,1.1,11.4,9.6,18.3,21.7,19.6,36.6,1,11.7-2.3,22-10.3,30.6-3.1,3.3-5.8,6.7-6.6,11.3-.2.9-.3,1.9-.6,3-.6-1.2-1-2.3-1.5-3.3-2.7-5.6-6.9-10.1-11.2-14.5-1.5-1.6-2.7-3.3-3.5-5.4s-.7-4.2.4-6.2c1.4-2.4,3.5-3.3,6.1-2.5,5,1.6,8.2,5.2,10.3,9.8.1.3.1.7.5.7.1-.6.2-1.2.3-1.8.4-2,.4-4.1-.6-5.9-.9-1.6-1.4-3.1-1-5,.2-.8-.1-1.7-.3-2.5-.9-3.9-3.5-6.4-6.6-8.7-2.5-1.8-5.4-2.9-8.3-4.1-3.8-1.6-6.6-4.2-8.1-8.1-.2-.4-.2-.9-.7-1.1-.1.7-.2,1.4-.3,2-.2,2.3.1,4.5,1.4,6.6,1.8,2.8,4.4,4.3,7.3,5.6.2.1.3.2.5.2-.2.3-.5.1-.7,0-4.4-.9-8.5-2.6-12-5.7,1.2,3.8,4,5.6,7.3,6.9-.2.4-.6.5-.9.6-4.1,2.3-6.8,5.6-8.1,10.1-1.4,4.8-1.3,9.6.4,14.3,1.9,5,1.8,10-.6,14.9-.1-.2-.2-.4-.2-.6-.6-3.8-2.3-6.9-5-9.6-4-3.8-7-8.7-9-14.3-3.3-9.7-2.8-19.3.3-28.9,3-9.1,8-16.8,15-23.3,1.6-1.5,3.5-2.7,5.3-3.8-2.5.5-5.1.9-7.4,2-10.4,5-17.8,12.9-22.8,23.2-3.3,7-4.5,14.3-3.2,22,.9,5.6,2.6,10.8,5.7,15.6.3.2.5.5.4,1.1-.2-.3-.4-.6-.6-.8-.8-.7-1.4-1.5-2.1-2.4-6.6-9.3-8.2-19.7-7-30.8.2-2.2.8-4.4,1.2-6.8-1.9,2.1-3.2,4.2-4.5,6.3-5.2,8.3-6,17.2-3,26.4,2.4,7.4,7,13.3,13.1,18.1.4.3.8.5.8,1.1-10.9-6.1-16.4-16.1-19.5-27.9-1,3.1-1.9,6.1-2.1,9.2-.7,8.3,1.4,15.6,7.4,21.6,5.1,5.1,11.3,8.1,18.1,10,1.4.4,2.8.8,4.2,1.3-.1.1-.1.2-.2.4-12.1-2-22.6-7.3-30.7-16.8.4,2.9,1.1,5.5,1.8,8.1,3.6,11.5,13.8,17.6,23.8,18.1,3,.2,6,.1,9,0,.2-.1.5-.2.7,0,.1.1-.3.2-.5.2-9.4,1.8-18.4.8-27.2-3.5.8,1.4,1.4,2.5,2.1,3.6,5.2,8.4,12.4,12.5,22.6,9.9,2.1-.5,4.2-1.2,6.3-1.7-5.4,3.1-11.1,5-17.5,5,1,1,2.2,1.6,3.2,2.3,5.2,3.4,10.6,3.8,16.2,1.2,1.8-.9,3.6-1.8,5.6-2.5,1.4-.4,2.6-.1,3.7.8,1.1.9,1.6,2,1.9,3.4.4,1.7,1.1,6.1-.2,14.9l-6,17.5h-30.3l-6.6,6.6h-11.9l-1.6,1.6c-.5-.3-1.1-.5-1.7-.5-.7,0-1.3.2-1.8.5-.1,0-.2.1-.5.4-.3.3-.4.4-.5.6-.8,1.3-.7,3,.5,4.2.6.6,1.5,1,2.4,1s1.7-.3,2.4-1c.6-.6,1-1.5,1-2.4,0-.6-.2-1.2-.5-1.7l1.1-1.1h11.9l6.6-6.6h12.9l-10.2,10.3h-11.3l-10.8,10.8h-5.2c-.4-1.7-1.9-2.9-3.7-2.9-2.1,0-3.8,1.7-3.8,3.8,0,1.9,1.4,3.5,3.2,3.7h1.1c1.5-.2,2.8-1.4,3.1-2.9h5.9l10.7-10.7h10.1v7.1l-13,13v4c-1.9.4-3.4,1.9-3.7,3.9h0v1.4h0c.3,2.2,2.3,3.9,4.6,3.9,2.5,0,4.6-2.1,4.6-4.6,0-2.3-1.6-4.1-3.8-4.5v-3.2l13-13v-8.3l10.1-10.1v15.3l-8.4,8.4c-.3-.1-.7-.2-1-.2-.7,0-1.3.3-1.8.7-.5.5-.7,1.1-.7,1.8s.3,1.3.7,1.8c.5.5,1.1.7,1.8.7.5,0,1-.1,1.4-.4.2-.1.5-.4.7-.7.5-.7.6-1.7.2-2.4l8.9-8.9v-17.2h13.5v10.6l-15.5,15.3v9.7h0l-14.9,14.9v4.5c-1.1.3-1.9,1.2-2,2.4h0v.8h0c.2,1.4,1.4,2.5,2.9,2.5,1.6,0,2.9-1.3,2.9-2.9,0-1.3-.9-2.4-2.1-2.8v-3.8l13.2-13.1v9.2l-.2.2c-.5-.3-1.1-.5-1.7-.5-.7,0-1.3.2-1.8.5-.1,0-.2.1-.3.2l-.6.6h0c-1,1.3-.9,3.2.3,4.4.6.6,1.5,1,2.4,1s1.7-.3,2.4-1c.6-.6,1-1.5,1-2.4,0-.6-.2-1.2-.5-1.7l.7-.7v-21.3l15.6-15.6v-11.8l13.7-13.8v19.7h0l-8.3,8.3h0l-4.6,4.6c-.8-.5-1.7-.8-2.6-.8s-1.8.3-2.6.8c-.1,0-.2,0-.7.6-.5.5-.6.6-.6.8-1.2,1.8-.9,4.2.6,5.8.9.9,2,1.4,3.3,1.4s2.4-.5,3.3-1.4c1.6-1.6,1.8-4.1.5-5.9l3.4-3.4v10.5h0l-12,12v13.7h0l-3.4,3.4c-.5-.3-1.1-.5-1.7-.5-.7,0-1.3.2-1.8.5-.1,0-.2.1-.5.4,0,0-.3.3-.4.4h0c-1,1.3-.9,3.2.3,4.4.6.6,1.5,1,2.4,1s1.7-.3,2.4-1,1-1.5,1-2.4c0-.6-.2-1.2-.5-1.7l2.2-2.2v5c-.8.3-1.5,1.1-1.6,2h0v.7h0c.2,1.2,1.2,2.2,2.5,2.2,1.4,0,2.5-1.1,2.5-2.5,0-1.1-.7-2-1.6-2.3v-20.4l10.3-10.4v5.9c-1.5.4-2.6,1.6-2.9,3.1h0v1.1h0c.3,1.8,1.8,3.2,3.7,3.2,2.1,0,3.8-1.7,3.8-3.8,0-1.8-1.2-3.3-2.9-3.7v-20.5l6.5-6.5v43.7l-3.2,3.2c-.5-.3-1.1-.5-1.7-.5-.7,0-1.3.2-1.8.5-.1,0-.2.1-.5.4-.3.3-.4.4-.5.6-.8,1.3-.7,3,.5,4.2.6.6,1.5,1,2.4,1s1.7-.3,2.4-1c1.1-1.1,1.3-2.8.5-4l2.8-2.8,2.8,2.8c-.6,1.1-.6,2.4.1,3.5,0,.1.1.2.5.6.3.3.4.4.6.5.5.3,1.1.5,1.8.5.9,0,1.7-.3,2.4-1,1.3-1.3,1.3-3.4,0-4.7-.6-.6-1.5-1-2.4-1-.6,0-1.2.2-1.7.5l-3.2-3.2v-43.7l6.5,6.5v20.5c-1.5.4-2.6,1.6-2.9,3.1h0v1.1h0c.3,1.8,1.8,3.2,3.7,3.2,2.1,0,3.8-1.7,3.8-3.8,0-1.8-1.2-3.3-2.9-3.7v-5.8l10.3,10.3v20.4c-.8.3-1.5,1.1-1.6,2h0v.7h0c.2,1.2,1.2,2.2,2.5,2.2,1.4,0,2.5-1.1,2.5-2.5,0-1.1-.7-2-1.6-2.3v-5l2.2,2.2c-.3.5-.5,1.1-.5,1.7,0,.7.2,1.3.6,1.9.1.4.9.9.9.9h.1c.5.3,1.2.5,1.8.5.9,0,1.7-.3,2.4-1,1.3-1.3,1.3-3.4,0-4.7-.6-.6-1.5-1-2.4-1-.6,0-1.2.2-1.7.5l-3.4-3.4h0v-13.7l-12-12h0v-10.5l3.4,3.4c-1.1,1.5-1.1,3.6,0,5.1,0,.1.1.2.5.6,0,0,.4.4.5.5h.1c.8.6,1.7.9,2.8.9,1.2,0,2.4-.5,3.3-1.4s1.4-2,1.4-3.3-.5-2.4-1.4-3.3c-.9-.9-2-1.4-3.3-1.4-.9,0-1.8.3-2.6.8l-4.6-4.6h0l-8.3-8.3h0v-19.7l13.7,13.7v11.8l15.6,15.6v21.3l.7.7c-.3.5-.5,1.1-.5,1.7s.2,1.3.5,1.8c0,.1.1.2.4.5,0,0,.3.3.4.4h0c.6.4,1.3.7,2,.7.9,0,1.7-.3,2.4-1s1-1.5,1-2.4-.3-1.7-1-2.4c-.6-.6-1.5-1-2.4-1-.6,0-1.2.2-1.7.5l-.2-.2v-9.2l13.2,13.2v3.8c-1.1.3-1.9,1.2-2,2.4h0v.8h0c.2,1.4,1.4,2.5,2.9,2.5,1.6,0,2.9-1.3,2.9-2.9,0-1.3-.9-2.4-2.1-2.8v-4.5l-14.9-14.9h0v-9.7l-15.6-15.6v-10.6h13.5v17.2l8.9,8.9c-.4.9-.3,2,.5,2.8.5.5,1.1.7,1.8.7s1.3-.3,1.8-.7.7-1.1.7-1.8c0-.5-.1-.9-.4-1.3l-.1-.1s-.4-.5-.7-.7c-.4-.3-.9-.4-1.4-.4-.4,0-.7.1-1,.2l-8.4-8.4v-15.3l10.1,10.1v8.3l13,13v3.2c-1.9.4-3.4,1.9-3.7,3.9h0v1.4h0c.3,2.2,2.3,3.9,4.6,3.9,2.5,0,4.6-2.1,4.6-4.6,0-2.3-1.6-4.1-3.8-4.5v-4l-13-13v-7.1h10.1l10.7,10.7h5.9c.4,1.7,1.9,2.9,3.7,2.9,2.1,0,3.8-1.7,3.8-3.8,0-1.4-1.4-3-3.3-3.3ZM156.6,208c.4-.4.8-.6,1.4-.6.5,0,1,.2,1.3.5h0c.7.7.7,2,0,2.7-.4.4-.8.6-1.4.6-.5,0-1-.2-1.4-.6-.7-.7-.7-1.9.1-2.6ZM23.2,210.7h0c-.4.4-.9.6-1.4.6s-1-.2-1.4-.6c-.7-.7-.7-2,0-2.7.4-.4.8-.6,1.4-.6.5,0,1,.2,1.4.6.7.7.7,1.9,0,2.7ZM16.2,223.9c-1.2,0-2.2-1-2.2-2.2s1-2.2,2.2-2.2,2.2,1,2.2,2.2c0,1.2-1,2.2-2.2,2.2ZM37.4,240.3c0,1.6-1.3,2.9-2.9,2.9s-2.9-1.3-2.9-2.9,1.3-2.9,2.9-2.9,2.9,1.3,2.9,2.9ZM49.9,227.9c-.2.2-.6.4-.9.4s-.7-.1-.9-.4c-.5-.5-.5-1.3,0-1.8h0c.2-.2.6-.4.9-.4s.7.1.9.4c.5.5.5,1.3,0,1.8ZM45.5,258.1c0,.9-.7,1.6-1.6,1.6s-1.6-.7-1.6-1.6.7-1.6,1.6-1.6,1.6.7,1.6,1.6ZM57.5,252c-.4.4-.8.6-1.4.6-.5,0-1-.2-1.4-.6-.4-.4-.6-.8-.6-1.4s.2-1,.6-1.4c.4-.4.8-.6,1.4-.6.5,0,1,.2,1.4.6s.6.8.6,1.4-.2,1-.6,1.4ZM75.6,224.2c-.5.5-1.3.8-2.1.8s-1.5-.3-2.1-.8c-1.1-1.1-1.1-3,0-4.1.5-.5,1.3-.8,2.1-.8s1.5.3,2.1.8c.5.5.8,1.3.8,2s-.3,1.5-.8,2.1ZM65,260c-.4.4-.8.6-1.4.6-.5,0-1-.2-1.4-.6-.7-.7-.7-2,0-2.7.4-.4.8-.6,1.4-.6.5,0,1,.2,1.4.6s.6.8.6,1.4-.2,1-.6,1.3ZM70.9,262.1c0,.7-.6,1.3-1.3,1.3s-1.3-.6-1.3-1.3.6-1.3,1.3-1.3,1.3.6,1.3,1.3ZM83.9,238.6c0,1.2-1,2.2-2.2,2.2s-2.2-1-2.2-2.2,1-2.2,2.2-2.2,2.2.9,2.2,2.2ZM85.6,259h0c-.4.4-.9.6-1.4.6s-1-.2-1.4-.6-.6-.8-.6-1.4.2-1,.6-1.4.8-.6,1.4-.6c.5,0,1,.2,1.4.6.7.8.7,2,0,2.8ZM94.2,256.2c.4-.4.8-.6,1.4-.6.5,0,1,.2,1.3.5h0c.7.7.7,2,0,2.7-.4.4-.8.6-1.4.6-.5,0-1-.2-1.4-.6-.6-.6-.6-1.8.1-2.6ZM114.8,257.3c.4-.4.8-.6,1.4-.6s1,.2,1.4.6c.8.7.8,2,0,2.7-.4.4-.8.6-1.4.6s-1-.2-1.4-.6-.6-.8-.6-1.4.2-.9.6-1.3ZM111.4,262.1c0,.7-.6,1.3-1.3,1.3s-1.3-.6-1.3-1.3.6-1.3,1.3-1.3,1.3.6,1.3,1.3ZM104.2,220.1c.5-.5,1.3-.8,2-.8.8,0,1.5.3,2,.8l.1.1c1.1,1.1,1.1,3,0,4.1-.5.5-1.3.8-2,.8s-1.5-.3-2-.8-.8-1.3-.8-2,.1-1.7.7-2.2ZM100.4,238.6c0,1.2-1,2.2-2.2,2.2s-2.2-1-2.2-2.2,1-2.2,2.2-2.2c1.2-.1,2.2.9,2.2,2.2ZM118.9,160.7c1.6.5,3.3.9,5.2,1.4-4.2,1.7-8.2,2-12.2.2-1.5-.7-2.9-1.4-4.4-2-1.4-.6-2.8-1.1-4.5-.9,2.1-2.8,4.6-3.5,7.8-2.1,2.7,1.1,5.3,2.6,8.1,3.4ZM118.8,149.8c6.6,1.2,13.1.7,19.5-1.4h.3l-.2.2c-3.6,5.2-11.3,9.2-19,7-3.1-.9-6.1-1.9-9.3-2.2-1.2-.1-2.3.1-3.5.5.2-2.1,2.4-4.2,4.5-4.6,2.7-.5,5.2,0,7.7.5ZM122.5,139.2c9.4-1.5,17.7-5.2,24.7-11.7.1-.1.3-.2.4-.3.1-.1.2-.2.3-.2.1.2.1.4-.1.5-2.1,7.2-6.8,12.1-13.4,15.3-4.7,2.3-9.7,2.4-14.8,2.3-2.8-.1-5.7-.1-8.4.9-.7.3-1.3.6-2.1,1,.6-3.4,2.7-5.3,5.6-6.4,2.6-.9,5.3-1,7.8-1.4ZM147.2,103.8c.1-.3.2-.5.4-.8,0-.1.1-.1.3-.3.5,2.8.5,5.4.1,8-1.3,9.7-7.2,15.9-15.6,20.1-2.8,1.4-5.7,2.3-8.6,3.2-4.5,1.4-9.1,2.5-12.7,6.2,0-3.1,1-5.5,3.1-7.4,2-1.8,4.4-3,6.9-3.9,12.5-4.4,21.1-12.9,26.1-25.1ZM138,88.4c.1-2.1,0-4.3,0-6.5v-1.4c1.8,2.6,2.9,5.4,3.4,8.4,1.6,9.4-1.4,17.6-7.1,24.9-3,3.9-6.7,7.1-10.9,9.8-4.1,2.6-8.3,5.1-11.8,8.8.1-2.5,1-4.5,2.2-6.4,2.3-3.6,5.6-6.2,9-8.7,9.8-7.2,14.4-17,15.2-28.9ZM76.8,129c2.2-5.4,2.3-10.7.3-16.2-1.6-4.5-1.6-9.1.2-13.5,1.6-4.1,4.3-7.3,8.7-8.5,2.5-.7,4.9-.3,7.3.7,2.6,1.1,4.9,2.7,6.7,4.8.9,1.1,1.8,2.2,1.5,3.9-1.7-1.3-3.5-2.4-5.5-2.9-5.9-1.7-11.6,3.1-10.9,9.2.4,3.4,2,6.2,4.2,8.6,3.1,3.3,6.3,6.5,8.9,10.2,3.2,4.7,5.4,9.7,5,15.6-.3,4.6-1.7,8.8-4.4,12.6-1.3,1.8-2.5,3.6-3.9,5.3-2.4,3.2-4.4,6.5-5.6,10.4-1.9-5.7-5.6-10.1-9-14.8-3.7-5.1-5.5-10.8-5.5-17.1.2-2.8,1-5.7,2-8.3ZM38.9,101.6c-2.1-7.5-1.4-14.7,2.6-21.8v1.9c-.1,5.4.2,10.8,1.7,16.1,2.1,7.5,6.2,13.6,12.2,18.5,3.1,2.5,6.4,4.8,9,7.8,1.9,2.3,3.1,4.9,3.3,8.1-4.4-4.6-10-7.2-14.7-10.9-6.6-5.2-11.8-11.5-14.1-19.7ZM52.3,123.4c0,.1-.1.2-.1.3,0-.1-.1-.1-.1-.2-.1-.1,0-.2.1-.2,0,.1.1.1.1.1ZM51.8,123.2q0,.1,0,0t-.2-.1s0-.1.1-.1c.1.1.1.2.1.2ZM54.1,133.3c-6.1-2-11.7-4.8-16.2-9.6-5.3-5.7-7.1-12.5-6.2-20.1,0-.4.1-.7.1-1.1,1.1,2.6,2.3,5,3.6,7.4,4.2,8,10.8,13.4,18.9,17,2.7,1.2,5.4,2.1,7.9,3.6,3.4,2.1,5.9,4.8,6,9,0,.1,0,.2-.1.5-3.8-3.9-9-5.1-14-6.7ZM56.2,145c-7.2-.2-13.5-2.2-18.6-7.6-2.7-2.9-4.5-6.3-5.6-10.3,1.7,1.4,3.3,2.6,4.9,3.8,7.1,5,14.9,7.7,23.5,8.8,2.8.4,5.5,1,7.6,3.1,1.1,1.1,1.7,2.4,2,4.2-4.6-2.6-9.2-1.9-13.8-2ZM63.9,154.2c-2.9.9-5.7,1.8-8.8,1.8-6,.1-10.2-3.1-14-7.6,3.1.7,5.8,1.3,8.7,1.6,4.2.4,8.2,0,12.3-.7,1.7-.3,3.5-.5,5.3-.2,2.5.4,4.1,1.9,5,4.1,0,.1.1.1.1.2h-.2c-2.9-.9-5.6,0-8.4.8ZM67.2,162.5c-3.9,1.8-7.8,1.4-11.9-.3,1.9-.5,3.6-.8,5.2-1.4,2.3-.8,4.5-1.8,6.6-2.9.7-.4,1.5-.8,2.3-1,3.1-.9,4.8-.3,7,2.5-3.4.1-6.3,1.7-9.2,3.1ZM89,183.3l-12.5,12.5,5.1-14.8c2.4-10.7.5-17.1-1.7-20.3-1-1.5-2.1-2.9-3.1-4.3-3.8-5.1-5.6-10.9-6.3-17.1-.4-3.1-.3-6.2-.7-9.2-.4-3.2-1.7-5.8-3.9-8-3-3.1-6.2-5.9-8.8-9.3-8.1-10.9-10.1-22.9-5.7-35.6,2.8-8.1,8-14.9,14.8-20.2,1.2-.9,2.5-1.8,3.7-2.7.1,0,.3-.1.3-.1.1.1,0,.2-.1.2-.6,1.2-1.6,2.1-2.4,3.1-5.9,7.3-9.8,15.5-11.3,24.9-1.8,12,.1,23.2,7.2,33.2,1.4,1.9,3,3.6,4.7,5.1,3.1,2.9,4.3,6.5,4.4,10.6.2,5.1.3,10.2,1.8,15.2,1.1,3.7,2.7,7.1,5.1,10.1,1.6,2.1,3.1,4.3,4.6,6.5,1.4,2.1,3.8,7.4,4.9,10.5v9.7h-.1ZM90.7,183.3h0v-9.7c1.2-4.2,4-10.7,6.5-13.7,3.2-3.9,5.9-8,7.4-12.9,1.1-3.8,1.6-7.7,1.7-11.6.1-2.9.1-5.7,1-8.5.7-2.2,1.9-4,3.5-5.5,6.4-6.2,10.7-13.6,12.7-22.3,1-4.6,1-9.2.5-13.8-.9-10.1-4.6-19.1-11-26.9-.6-.7-1.2-1.4-1.8-2.1-.6-.7-1.2-1.4-1.8-2.1,4.9,2.9,9.2,6.5,12.5,11.1,3.9,5.3,6.9,11,8.2,17.5,1.5,7.1.3,13.9-2.1,20.6-2.4,6.5-6.7,11.6-11.6,16.3-1.7,1.7-3.5,3.4-4.8,5.4-2,3.1-2.4,6.5-2.6,10.1-.4,6.4-1.4,12.6-4.5,18.3-1.4,2.5-3.1,4.8-4.9,7.1-2.2,2.8-5.1,11.8-2.3,20.4l5.7,14.6-12.3-12.3ZM137.4,258.1c0,.9-.7,1.6-1.6,1.6s-1.6-.7-1.6-1.6.7-1.6,1.6-1.6,1.6.7,1.6,1.6ZM122.3,249.2c.4-.4.8-.6,1.4-.6.5,0,1,.2,1.3.5h0c.7.7.7,2,0,2.7-.4.4-.8.6-1.4.6s-1-.2-1.4-.6c-.4-.4-.6-.8-.6-1.4s.3-.8.7-1.2ZM129.8,226.1c.2-.2.6-.4.9-.4s.7.1.9.4c.5.5.5,1.3,0,1.8-.2.2-.6.4-.9.4s-.7-.1-.9-.4c-.5-.5-.5-1.3,0-1.8ZM148.2,240.3c0,1.6-1.3,2.9-2.9,2.9s-2.9-1.3-2.9-2.9,1.3-2.9,2.9-2.9,2.9,1.3,2.9,2.9ZM163.6,223.9c-1.2,0-2.2-1-2.2-2.2s1-2.2,2.2-2.2,2.2,1,2.2,2.2-1,2.2-2.2,2.2Z"/>
    </g>
  </g>
  <g id="Layer_6_copy" class="st5">
    <g>
      <path class="st4" d="M95.9,238.6c0,1.2,1,2.2,2.2,2.2s2.2-1,2.2-2.2-1-2.2-2.2-2.2c-1.2-.1-2.2.9-2.2,2.2Z"/>
      <path class="st4" d="M95.6,259.5c.5,0,1-.2,1.4-.6.7-.7.7-1.9,0-2.7h0c-.4-.3-.8-.5-1.3-.5s-1,.2-1.4.6c-.7.7-.7,2,0,2.7.3.3.8.5,1.3.5Z"/>
      <path class="st4" d="M116.1,260.6c.5,0,1-.2,1.4-.6.8-.7.8-2,0-2.7-.4-.4-.8-.6-1.4-.6s-1,.2-1.4.6-.6.8-.6,1.4.2,1,.6,1.4c.4.3.9.5,1.4.5Z"/>
      <polygon class="st4" points="76.8 195.6 76.6 195.6 76.5 195.8 76.8 195.6"/>
      <circle class="st4" cx="110.2" cy="262.1" r="1.3"/>
      <path class="st4" d="M106.2,225c.8,0,1.5-.3,2-.8,1.1-1.1,1.1-2.9,0-4.1l-.1-.1c-.5-.5-1.3-.8-2-.8-.8,0-1.5.3-2,.8s-.8,1.3-.8,2,.3,1.5.8,2c.6.7,1.4,1,2.1,1Z"/>
      <path class="st4" d="M56.1,248.7c-.5,0-1,.2-1.4.6-.4.4-.6.8-.6,1.4s.2,1,.6,1.4c.4.4.8.6,1.4.6.5,0,1-.2,1.4-.6.4-.4.6-.8.6-1.4s-.2-1-.6-1.4-.8-.6-1.4-.6Z"/>
      <path class="st4" d="M21.8,207.4c-.5,0-1,.2-1.4.6-.7.7-.7,2,0,2.7.4.4.8.6,1.4.6.5,0,1-.2,1.3-.5h0c.7-.7.7-2,0-2.7-.3-.5-.8-.7-1.3-.7Z"/>
      <path class="st4" d="M49,225.8c-.3,0-.7.1-.9.4h0c-.5.5-.5,1.3,0,1.8.2.2.6.4.9.4s.7-.1.9-.4c.5-.5.5-1.3,0-1.8-.2-.3-.5-.4-.9-.4Z"/>
      <path class="st4" d="M16.2,219.4c-1.2,0-2.2,1-2.2,2.2s1,2.2,2.2,2.2,2.2-1,2.2-2.2c0-1.2-1-2.2-2.2-2.2Z"/>
      <circle class="st4" cx="34.5" cy="240.3" r="2.9"/>
      <path class="st4" d="M63.6,256.8c-.5,0-1,.2-1.4.6-.7.7-.7,2,0,2.7.4.4.8.6,1.4.6.5,0,1-.2,1.4-.6s.6-.8.6-1.4-.2-1-.6-1.4c-.4-.3-.9-.5-1.4-.5Z"/>
      <path class="st4" d="M163.6,219.4c-1.2,0-2.2,1-2.2,2.2s1,2.2,2.2,2.2,2.2-1,2.2-2.2-1-2.2-2.2-2.2Z"/>
      <circle class="st4" cx="145.3" cy="240.3" r="2.9"/>
      <path class="st4" d="M123.6,252.5c.5,0,1-.2,1.4-.6.7-.7.7-1.9,0-2.7h0c-.4-.3-.8-.5-1.3-.5s-1,.2-1.4.6-.6.8-.6,1.4.2,1,.6,1.4c.3.2.8.4,1.3.4Z"/>
      <path class="st4" d="M130.7,228.3c.3,0,.7-.1.9-.4.5-.5.5-1.3,0-1.8-.2-.2-.6-.4-.9-.4s-.7.1-.9.4c-.5.5-.5,1.3,0,1.8.3.3.6.4.9.4Z"/>
      <path class="st4" d="M73.5,219.2c-.8,0-1.5.3-2.1.8-1.1,1.1-1.1,3,0,4.1.5.5,1.3.8,2.1.8s1.5-.3,2.1-.8.8-1.3.8-2-.3-1.5-.8-2c-.6-.6-1.3-.9-2.1-.9Z"/>
      <path class="st4" d="M157.9,211.3c.5,0,1-.2,1.4-.6.7-.7.7-1.9,0-2.7h0c-.4-.3-.8-.5-1.3-.5s-1,.2-1.4.6c-.7.7-.7,2,0,2.7.3.3.8.5,1.3.5Z"/>
      <circle class="st4" cx="69.6" cy="262.1" r="1.3"/>
      <path class="st4" d="M79.4,238.6c0,1.2,1,2.2,2.2,2.2s2.2-1,2.2-2.2-1-2.2-2.2-2.2-2.2.9-2.2,2.2Z"/>
      <path class="st4" d="M42.4,258.1c0,.9.7,1.6,1.6,1.6s1.6-.7,1.6-1.6-.7-1.6-1.6-1.6-1.6.7-1.6,1.6Z"/>
      <path class="st4" d="M84.2,255.7c-.5,0-1,.2-1.4.6s-.6.8-.6,1.4.2,1,.6,1.4.8.6,1.4.6c.5,0,1-.2,1.3-.5h0c.7-.7.7-2,0-2.7-.3-.6-.8-.8-1.3-.8Z"/>
      <circle class="st4" cx="135.8" cy="258.1" r="1.6"/>
      <path class="st2" d="M89,183.3h0v-9.6c-1-3.1-3.5-8.4-4.9-10.5-1.5-2.2-3-4.4-4.6-6.5-2.4-3-4-6.4-5.1-10.1-1.5-5-1.6-10.1-1.8-15.2-.1-4.1-1.3-7.7-4.4-10.6-1.7-1.6-3.3-3.2-4.7-5.1-7.2-10-9-21.2-7.2-33.2,1.4-9.3,5.3-17.6,11.3-24.9.8-1,1.8-1.9,2.4-3.1.1,0,.2-.1.1-.2,0,0-.2.1-.3.1-1.2.9-2.5,1.7-3.7,2.7-6.8,5.3-12,12.1-14.8,20.2-4.4,12.7-2.4,24.7,5.7,35.6,2.6,3.4,5.8,6.2,8.8,9.3,2.2,2.3,3.6,4.9,3.9,8s.3,6.2.7,9.2c.7,6.2,2.6,12,6.3,17.1,1.1,1.4,2.1,2.9,3.1,4.3,2.2,3.2,4.1,9.6,1.7,20.3l-5,14.5h.2l12.3-12.3Z"/>
      <path class="st2" d="M99.6,160.5c1.8-2.2,3.5-4.6,4.9-7.1,3.1-5.7,4.2-11.9,4.5-18.3.2-3.5.6-7,2.6-10.1,1.3-2,3.1-3.7,4.8-5.4,4.9-4.7,9.2-9.8,11.6-16.3,2.5-6.7,3.6-13.5,2.1-20.6-1.4-6.5-4.3-12.2-8.2-17.5-3.4-4.6-7.6-8.2-12.5-11.1.6.7,1.2,1.4,1.8,2.1.6.7,1.3,1.4,1.8,2.1,6.4,7.8,10.1,16.8,11,26.9.4,4.6.5,9.2-.5,13.8-2,8.7-6.2,16.1-12.7,22.3-1.6,1.5-2.8,3.4-3.5,5.5-.9,2.8-.9,5.7-1,8.5-.1,3.9-.5,7.9-1.7,11.6-1.4,4.9-4.2,9-7.4,12.9-2.5,3-5.2,9.5-6.5,13.7v9.7h0l12.3,12.3-5.7-14.6c-2.9-8.6,0-17.6,2.3-20.4Z"/>
      <path class="st2" d="M60.3,139.6c-8.5-1.1-16.4-3.8-23.5-8.8-1.6-1.1-3.1-2.4-4.9-3.8,1.1,4.1,2.9,7.4,5.6,10.3,5,5.3,11.4,7.4,18.6,7.6,4.6.1,9.2-.6,13.7,1.9-.3-1.8-1-3-2-4.2-2-2-4.7-2.6-7.5-3Z"/>
      <path class="st2" d="M62.2,149.4c-4.1.7-8.2,1.1-12.3.7-2.9-.3-5.6-.9-8.7-1.6,3.8,4.5,8.1,7.7,14,7.6,3,0,5.9-1,8.8-1.8,2.8-.9,5.5-1.7,8.4-.8h.2c0-.1-.1-.1-.1-.2-1-2.2-2.5-3.7-5-4.1-1.8-.3-3.6-.1-5.3.2Z"/>
      <path class="st2" d="M62.4,130.5c-2.5-1.5-5.3-2.4-7.9-3.6-8.2-3.6-14.7-9-18.9-17-1.3-2.4-2.4-4.9-3.6-7.4,0,.4-.1.7-.1,1.1-.9,7.6.9,14.4,6.2,20.1,4.5,4.8,10.1,7.6,16.2,9.6,5,1.6,10.2,2.9,14.2,6.8,0-.2.1-.3.1-.5-.3-4.3-2.8-7-6.2-9.1Z"/>
      <path class="st2" d="M51.8,123.1q-.1,0,0,0c-.1.1,0,.2,0,.2l.1-.1c-.1,0-.1-.1-.1-.1Z"/>
      <path class="st2" d="M69.5,156.9c-.8.2-1.6.6-2.3,1-2.1,1.1-4.3,2.1-6.6,2.9-1.6.6-3.3.9-5.2,1.4,4.1,1.7,7.9,2.1,11.9.3,2.9-1.3,5.8-3,9.3-3.1-2.3-2.8-4-3.4-7.1-2.5Z"/>
      <path class="st2" d="M52.3,123.4c-.1,0-.1-.1-.2-.1s-.2.1-.1.2c0,.1.1.1.1.2.1-.1.2-.2.2-.3Z"/>
      <path class="st2" d="M111.2,149.2c-2.1.4-4.3,2.5-4.5,4.6,1.1-.4,2.3-.7,3.5-.5,3.2.3,6.3,1.4,9.3,2.2,7.7,2.2,15.4-1.8,19-7l.2-.2h-.3c-6.4,2.1-12.9,2.6-19.5,1.4-2.6-.4-5.1-.9-7.7-.5Z"/>
      <path class="st2" d="M103,159.4c1.7-.2,3.1.4,4.5.9,1.5.6,2.9,1.4,4.4,2,4,1.8,8,1.5,12.2-.2-1.9-.5-3.6-.9-5.2-1.4-2.8-.8-5.3-2.3-8-3.4-3.3-1.4-5.8-.7-7.9,2.1Z"/>
      <path class="st2" d="M109.2,147c.8-.4,1.4-.7,2.1-1,2.7-1.1,5.5-1,8.4-.9,5,.1,10.1,0,14.8-2.3,6.6-3.2,11.4-8.1,13.4-15.3.2-.1.2-.3.1-.5-.1.1-.2.2-.3.2-.1.1-.3.2-.4.3-7,6.5-15.3,10.2-24.7,11.7-2.6.4-5.2.5-7.7,1.4-3,1.1-5.1,3-5.7,6.4Z"/>
      <path class="st2" d="M114.2,132.7c-2.1,1.9-3.1,4.3-3.1,7.4,3.6-3.7,8.2-4.8,12.7-6.2,2.9-.9,5.9-1.9,8.6-3.2,8.4-4.2,14.3-10.4,15.6-20.1.4-2.6.3-5.2-.1-8-.2.2-.2.3-.3.3-.1.3-.3.5-.4.8-5,12.2-13.5,20.7-26.1,25.1-2.5.9-4.9,2.1-6.9,3.9Z"/>
      <path class="st2" d="M99,153.5c2.7-3.8,4-8,4.4-12.6.4-5.9-1.8-10.9-5-15.6-2.6-3.8-5.8-7-8.9-10.2-2.3-2.4-3.9-5.2-4.2-8.6-.7-6.1,5-10.9,10.9-9.2,2,.6,3.8,1.6,5.5,2.9.3-1.7-.5-2.9-1.5-3.9-1.9-2.1-4.1-3.8-6.7-4.8-2.4-1-4.8-1.4-7.3-.7-4.4,1.2-7.1,4.4-8.7,8.5-1.7,4.5-1.8,9-.2,13.5,2,5.5,1.9,10.8-.3,16.2-1.1,2.7-1.8,5.5-1.8,8.4,0,6.3,1.8,12,5.5,17.1,3.4,4.7,7.1,9.1,9,14.8,1.2-3.9,3.3-7.2,5.6-10.4,1.2-1.8,2.5-3.6,3.7-5.4Z"/>
      <path class="st2" d="M43.2,97.7c-1.5-5.3-1.8-10.6-1.7-16.1v-1.9c-4,7.1-4.7,14.3-2.6,21.8,2.3,8.2,7.5,14.4,14,19.7,4.7,3.8,10.3,6.3,14.7,10.9-.2-3.3-1.3-5.8-3.3-8.1-2.6-3.1-5.9-5.3-9-7.8-5.9-4.9-10-11-12.1-18.5Z"/>
      <path class="st2" d="M113.9,126c-1.2,1.9-2.1,3.9-2.2,6.4,3.5-3.7,7.7-6.2,11.8-8.8,4.2-2.7,7.9-5.9,10.9-9.8,5.7-7.3,8.7-15.5,7.1-24.9-.5-3-1.6-5.8-3.4-8.4v1.4c0,2.2.1,4.3,0,6.5-.8,11.9-5.4,21.7-15.2,28.9-3.4,2.5-6.7,5.1-9,8.7Z"/>
      <path class="st6" d="M164.1,217.9h-1.1c-1.5.2-2.8,1.4-3.1,2.9h-5.2l-10.7-10.8h-11.4l-10.1-10.1h12.9l6.6,6.6h11.9l1.1,1.1c-.6,1.1-.6,2.4.1,3.5,0,.1.1.2.4.5l.4.4h0c.6.4,1.3.7,2,.7.9,0,1.7-.3,2.4-1s1-1.5,1-2.4-.3-1.7-1-2.4c-.6-.6-1.5-1-2.4-1-.6,0-1.2.2-1.7.5l-1.6-1.6h-11.9l-6.6-6.6h-30.2l-1-2.7h-4.3l3.9,3.9v11.8l15.6,15.6v21.3l.7.7c-.3.5-.5,1.1-.5,1.7s.2,1.3.5,1.8c0,.1.1.2.4.5,0,0,.3.3.4.4h0c.6.4,1.3.7,2,.7.9,0,1.7-.3,2.4-1s1-1.5,1-2.4-.3-1.7-1-2.4c-.6-.6-1.5-1-2.4-1-.6,0-1.2.2-1.7.5l-.2-.2v-9.2l13.2,13.2v3.8c-1.1.3-1.9,1.2-2,2.4h0v.8h0c.2,1.4,1.4,2.5,2.9,2.5,1.6,0,2.9-1.3,2.9-2.9,0-1.3-.9-2.4-2.1-2.8v-4.5l-14.9-14.9h0v-9.7l-15.6-15.6v-10.6h13.5v17.2l8.9,8.9c-.4.9-.3,2,.5,2.8.5.5,1.1.7,1.8.7s1.3-.3,1.8-.7.7-1.1.7-1.8c0-.5-.1-.9-.4-1.3l-.1-.1s-.4-.5-.7-.7c-.4-.3-.9-.4-1.4-.4-.4,0-.7.1-1,.2l-8.4-8.4v-15.3l10.1,10.1v8.3l13,13v3.2c-1.9.4-3.4,1.9-3.7,3.9h0v1.4h0c.3,2.2,2.3,3.9,4.6,3.9,2.5,0,4.6-2.1,4.6-4.6,0-2.3-1.6-4.1-3.8-4.5v-4l-13-13v-7.1h10.1l10.7,10.7h5.9c.4,1.7,1.9,2.9,3.7,2.9,2.1,0,3.8-1.7,3.8-3.8.1-1.6-1.3-3.2-3.2-3.5ZM156.6,208c.4-.4.8-.6,1.4-.6.5,0,1,.2,1.3.5h0c.7.7.7,2,0,2.7-.4.4-.8.6-1.4.6-.5,0-1-.2-1.4-.6-.7-.7-.7-1.9.1-2.6ZM137.4,258.1c0,.9-.7,1.6-1.6,1.6s-1.6-.7-1.6-1.6.7-1.6,1.6-1.6,1.6.7,1.6,1.6ZM122.3,249.2c.4-.4.8-.6,1.4-.6.5,0,1,.2,1.3.5h0c.7.7.7,2,0,2.7-.4.4-.8.6-1.4.6s-1-.2-1.4-.6c-.4-.4-.6-.8-.6-1.4s.3-.8.7-1.2ZM129.8,226.1c.2-.2.6-.4.9-.4s.7.1.9.4c.5.5.5,1.3,0,1.8-.2.2-.6.4-.9.4s-.7-.1-.9-.4c-.5-.5-.5-1.3,0-1.8ZM148.2,240.3c0,1.6-1.3,2.9-2.9,2.9s-2.9-1.3-2.9-2.9,1.3-2.9,2.9-2.9,2.9,1.3,2.9,2.9ZM163.6,223.9c-1.2,0-2.2-1-2.2-2.2s1-2.2,2.2-2.2,2.2,1,2.2,2.2-1,2.2-2.2,2.2Z"/>
      <path class="st6" d="M89,205.4h0l-8.3,8.3h0l-4.6,4.6c-.8-.5-1.7-.8-2.6-.8s-1.8.3-2.6.8c-.1,0-.2,0-.7.6-.5.5-.6.6-.6.8-1.2,1.8-.9,4.2.6,5.8.9.9,2,1.4,3.3,1.4s2.4-.5,3.3-1.4c1.6-1.6,1.8-4.1.5-5.9l3.4-3.4v10.5h0l-12,12v13.7h0l-3.4,3.4c-.5-.3-1.1-.5-1.7-.5-.7,0-1.3.2-1.8.5-.1,0-.2.1-.5.4,0,0-.3.3-.4.4h0c-1,1.3-.9,3.2.3,4.4.6.6,1.5,1,2.4,1s1.7-.3,2.4-1,1-1.5,1-2.4c0-.6-.2-1.2-.5-1.7l2.2-2.2v5c-.8.3-1.5,1.1-1.6,2h0v.7h0c.2,1.2,1.2,2.2,2.5,2.2,1.4,0,2.5-1.1,2.5-2.5,0-1.1-.7-2-1.6-2.3v-20.4l10.3-10.4v5.9c-1.5.4-2.6,1.6-2.9,3.1h0v1.1h0c.3,1.8,1.8,3.2,3.7,3.2,2.1,0,3.8-1.7,3.8-3.8,0-1.8-1.2-3.3-2.9-3.7v-20.5l6.5-6.5v43.7l-3.2,3.2c-.5-.3-1.1-.5-1.7-.5-.7,0-1.3.2-1.8.5-.1,0-.2.1-.5.4-.3.3-.4.4-.5.6-.8,1.3-.7,3,.5,4.2.6.6,1.5,1,2.4,1s1.7-.3,2.4-1c1.1-1.1,1.3-2.8.5-4l2.8-2.8,2.8,2.8c-.6,1.1-.6,2.4.1,3.5,0,.1.1.2.5.6.3.3.4.4.6.5.5.3,1.1.5,1.8.5.9,0,1.7-.3,2.4-1,1.3-1.3,1.3-3.4,0-4.7-.6-.6-1.5-1-2.4-1-.6,0-1.2.2-1.7.5l-3.2-3.2v-43.7l6.5,6.5v20.5c-1.5.4-2.6,1.6-2.9,3.1h0v1.1h0c.3,1.8,1.8,3.2,3.7,3.2,2.1,0,3.8-1.7,3.8-3.8,0-1.8-1.2-3.3-2.9-3.7v-5.8l10.3,10.3v20.4c-.8.3-1.5,1.1-1.6,2h0v.7h0c.2,1.2,1.2,2.2,2.5,2.2,1.4,0,2.5-1.1,2.5-2.5,0-1.1-.7-2-1.6-2.3v-5l2.2,2.2c-.3.5-.5,1.1-.5,1.7,0,.7.2,1.3.6,1.9.1.4.9.9.9.9h.1c.5.3,1.2.5,1.8.5.9,0,1.7-.3,2.4-1,1.3-1.3,1.3-3.4,0-4.7-.6-.6-1.5-1-2.4-1-.6,0-1.2.2-1.7.5l-3.4-3.4h0v-13.7l-12-12h0v-10.5l3.4,3.4c-1.1,1.5-1.1,3.6,0,5.1,0,.1.1.2.5.6,0,0,.4.4.5.5h.1c.8.6,1.7.9,2.8.9,1.2,0,2.4-.5,3.3-1.4s1.4-2,1.4-3.3-.5-2.4-1.4-3.3c-.9-.9-2-1.4-3.3-1.4-.9,0-1.8.3-2.6.8l-4.6-4.6h0l-8.3-8.3h0v-9.9h-1.9v10.1ZM75.6,224.2c-.5.5-1.3.8-2.1.8s-1.5-.3-2.1-.8c-1.1-1.1-1.1-3,0-4.1.5-.5,1.3-.8,2.1-.8s1.5.3,2.1.8c.5.5.8,1.3.8,2s-.3,1.5-.8,2.1ZM65,260c-.4.4-.8.6-1.4.6-.5,0-1-.2-1.4-.6-.7-.7-.7-2,0-2.7.4-.4.8-.6,1.4-.6.5,0,1,.2,1.4.6s.6.8.6,1.4-.2,1-.6,1.3ZM70.9,262.1c0,.7-.6,1.3-1.3,1.3s-1.3-.6-1.3-1.3.6-1.3,1.3-1.3,1.3.6,1.3,1.3ZM83.9,238.6c0,1.2-1,2.2-2.2,2.2s-2.2-1-2.2-2.2,1-2.2,2.2-2.2,2.2.9,2.2,2.2ZM85.6,259h0c-.4.4-.9.6-1.4.6s-1-.2-1.4-.6-.6-.8-.6-1.4.2-1,.6-1.4.8-.6,1.4-.6c.5,0,1,.2,1.4.6.7.8.7,2,0,2.8ZM94.2,256.2c.4-.4.8-.6,1.4-.6.5,0,1,.2,1.3.5h0c.7.7.7,2,0,2.7-.4.4-.8.6-1.4.6-.5,0-1-.2-1.4-.6-.6-.6-.6-1.8.1-2.6ZM114.8,257.3c.4-.4.8-.6,1.4-.6s1,.2,1.4.6c.8.7.8,2,0,2.7-.4.4-.8.6-1.4.6s-1-.2-1.4-.6-.6-.8-.6-1.4.2-.9.6-1.3ZM111.4,262.1c0,.7-.6,1.3-1.3,1.3s-1.3-.6-1.3-1.3.6-1.3,1.3-1.3,1.3.6,1.3,1.3ZM104.2,220.1c.5-.5,1.3-.8,2-.8.8,0,1.5.3,2,.8l.1.1c1.1,1.1,1.1,3,0,4.1-.5.5-1.3.8-2,.8s-1.5-.3-2-.8-.8-1.3-.8-2,.1-1.7.7-2.2ZM100.4,238.6c0,1.2-1,2.2-2.2,2.2s-2.2-1-2.2-2.2,1-2.2,2.2-2.2c1.2-.1,2.2.9,2.2,2.2Z"/>
      <path class="st6" d="M76.5,195.8l.1-.3h-1.8l-.9,2.7h-30.3l-6.6,6.6h-11.9l-1.6,1.6c-.5-.3-1.1-.5-1.7-.5-.7,0-1.3.2-1.8.5-.1,0-.2.1-.5.4-.3.3-.4.4-.5.6-.8,1.3-.7,3,.5,4.2.6.6,1.5,1,2.4,1s1.7-.3,2.4-1c.6-.6,1-1.5,1-2.4,0-.6-.2-1.2-.5-1.7l1.1-1.1h11.9l6.6-6.6h12.9l-10.2,10.2h-11.3l-10.8,10.8h-5.2c-.4-1.7-1.9-2.9-3.7-2.9-2.1,0-3.8,1.7-3.8,3.8,0,1.9,1.4,3.5,3.2,3.7h1.1c1.5-.2,2.8-1.4,3.1-2.9h5.9l10.7-10.7h10.1v7.1l-13,13v4c-1.9.4-3.4,1.9-3.7,3.9h0v1.4h0c.3,2.2,2.3,3.9,4.6,3.9,2.5,0,4.6-2.1,4.6-4.6,0-2.3-1.6-4.1-3.8-4.5v-3.2l13-13v-8.3l10.1-10.1v15.3l-8.4,8.4c-.3-.1-.7-.2-1-.2-.7,0-1.3.3-1.8.7-.5.5-.7,1.1-.7,1.8s.3,1.3.7,1.8c.5.5,1.1.7,1.8.7.5,0,1-.1,1.4-.4.2-.1.5-.4.7-.7.5-.7.6-1.7.2-2.4l8.9-8.9v-17.2h13.5v10.6l-15.5,15.3v9.7h0l-14.9,14.9v4.5c-1.1.3-1.9,1.2-2,2.4h0v.8h0c.2,1.4,1.4,2.5,2.9,2.5,1.6,0,2.9-1.3,2.9-2.9,0-1.3-.9-2.4-2.1-2.8v-3.8l13.2-13.1v9.2l-.2.2c-.5-.3-1.1-.5-1.7-.5-.7,0-1.3.2-1.8.5-.1,0-.2.1-.3.2l-.6.6h0c-1,1.3-.9,3.2.3,4.4.6.6,1.5,1,2.4,1s1.7-.3,2.4-1c.6-.6,1-1.5,1-2.4,0-.6-.2-1.2-.5-1.7l.7-.7v-21.3l15.6-15.6v-11.8l3.9-3.9h-2.4l-.3.2ZM23.2,210.7h0c-.4.4-.9.6-1.4.6s-1-.2-1.4-.6c-.7-.7-.7-2,0-2.7.4-.4.8-.6,1.4-.6.5,0,1,.2,1.4.6.7.7.7,1.9,0,2.7ZM16.2,223.9c-1.2,0-2.2-1-2.2-2.2s1-2.2,2.2-2.2,2.2,1,2.2,2.2c0,1.2-1,2.2-2.2,2.2ZM37.4,240.3c0,1.6-1.3,2.9-2.9,2.9s-2.9-1.3-2.9-2.9,1.3-2.9,2.9-2.9,2.9,1.3,2.9,2.9ZM49.9,227.9c-.2.2-.6.4-.9.4s-.7-.1-.9-.4c-.5-.5-.5-1.3,0-1.8h0c.2-.2.6-.4.9-.4s.7.1.9.4c.5.5.5,1.3,0,1.8ZM45.5,258.1c0,.9-.7,1.6-1.6,1.6s-1.6-.7-1.6-1.6.7-1.6,1.6-1.6,1.6.7,1.6,1.6ZM57.5,252c-.4.4-.8.6-1.4.6-.5,0-1-.2-1.4-.6-.4-.4-.6-.8-.6-1.4s.2-1,.6-1.4c.4-.4.8-.6,1.4-.6.5,0,1,.2,1.4.6s.6.8.6,1.4-.2,1-.6,1.4Z"/>
      <path class="st6" d="M90.7,183.3h0v-9.7c1.2-4.2,4-10.7,6.5-13.7,3.2-3.9,5.9-8,7.4-12.9,1.1-3.8,1.6-7.7,1.7-11.6.1-2.9.1-5.7,1-8.5.7-2.2,1.9-4,3.5-5.5,6.4-6.2,10.7-13.6,12.7-22.3,1-4.6,1-9.2.5-13.8-.9-10.1-4.6-19.1-11-26.9-.6-.7-1.2-1.4-1.8-2.1-.6-.7-1.2-1.4-1.8-2.1,4.9,2.9,9.2,6.5,12.5,11.1,3.9,5.3,6.9,11,8.2,17.5,1.5,7.1.3,13.9-2.1,20.6-2.4,6.5-6.7,11.6-11.6,16.3-1.7,1.7-3.5,3.4-4.8,5.4-2,3.1-2.4,6.5-2.6,10.1-.4,6.4-1.4,12.6-4.5,18.3-1.4,2.5-3.1,4.8-4.9,7.1-2.2,2.8-5.1,11.8-2.3,20.4l5.7,14.6h1.8l-5.8-14.9c-2-7.8-.3-14.2.6-16.4,1.1-2.8,3.6-3.7,6.4-2.4,1.2.5,2.4,1.1,3.5,1.7,7.6,3.9,13.7,2.3,19.8-2.6.1-.1.1-.2.1-.3-7.6-1-14.2-2.9-16.5-5,6.1,2.2,12,3.7,18.1,1.1,6-2.5,10-7,12.7-13-4.3,2.1-8.6,3.8-13.2,4.3-4.6.5-9.1.4-13.6-.8,8.3.4,16.3-.2,23.3-5.4,7.1-5.3,9.7-12.7,11-21-4.3,4.5-8.8,8.5-14.3,11.4-5.1,2.7-14.7,5.5-17.5,5.1.1-.3.4-.2.7-.3,3.3-1,6.7-1.8,9.9-3.1,6.5-2.6,12.1-6.4,16-12.4,4.1-6.2,4.7-13.1,3.6-20.2-.3-2.1-.9-4.2-1.8-6.4-1.2,6.4-3.8,11.9-7.4,16.9-3.6,5.1-7.9,9.3-13.6,11.9,5-4.1,9.6-8.5,12.7-14.2,3.6-6.5,5.1-13.4,3.9-20.8-1-5.8-3.8-10.7-7.1-15.4-.5-.7-1-1.5-1.9-2.1.7,2.7,1.2,5.1,1.5,7.7.5,6.1.5,12.1-1.4,18-1.7,5.5-4.2,10.6-8.3,14.8-.1.2-.3.2-.5.1l.3-.3c.3-.5.6-.9.8-1.4,4.4-7.9,7-16.3,5.6-25.4-1.7-11-6.8-20.4-15.3-27.6-5.3-4.5-11.1-8.1-18.3-9.3.7.4,1.2.8,1.7,1.1.5.4,1,.7,1.5,1.1,11.4,9.6,18.3,21.7,19.6,36.6,1,11.7-2.3,22-10.3,30.6-3.1,3.3-5.8,6.7-6.6,11.3-.2.9-.3,1.9-.6,3-.6-1.2-1-2.3-1.5-3.3-2.7-5.6-6.9-10.1-11.2-14.5-1.5-1.6-2.7-3.3-3.5-5.4s-.7-4.2.4-6.2c1.4-2.4,3.5-3.3,6.1-2.5,5,1.6,8.2,5.2,10.3,9.8.1.3.1.7.5.7.1-.6.2-1.2.3-1.8.4-2,.4-4.1-.6-5.9-.9-1.6-1.4-3.1-1-5,.2-.8-.1-1.7-.3-2.5-.9-3.9-3.5-6.4-6.6-8.7-2.5-1.8-5.4-2.9-8.3-4.1-3.8-1.6-6.6-4.2-8.1-8.1-.2-.4-.2-.9-.7-1.1-.1.7-.2,1.4-.3,2-.2,2.3.1,4.5,1.4,6.6,1.8,2.8,4.4,4.3,7.3,5.6.2.1.3.2.5.2-.2.3-.5.1-.7,0-4.4-.9-8.5-2.6-12-5.7,1.2,3.8,4,5.6,7.3,6.9-.2.4-.6.5-.9.6-4.1,2.3-6.8,5.6-8.1,10.1-1.4,4.8-1.3,9.6.4,14.3,1.9,5,1.8,10-.6,14.9-.1-.2-.2-.4-.2-.6-.6-3.8-2.3-6.9-5-9.6-4-3.8-7-8.7-9-14.3-3.3-9.7-2.8-19.3.3-28.9,3-9.1,8-16.8,15-23.3,1.6-1.5,3.5-2.7,5.3-3.8-2.5.5-5.1.9-7.4,2-10.4,5-17.8,12.9-22.8,23.2-3.3,7-4.5,14.3-3.2,22,.9,5.6,2.6,10.8,5.7,15.6.3.2.5.5.4,1.1-.2-.3-.4-.6-.6-.8-.8-.7-1.4-1.5-2.1-2.4-6.6-9.3-8.2-19.7-7-30.8.2-2.2.8-4.4,1.2-6.8-1.9,2.1-3.2,4.2-4.5,6.3-5.2,8.3-6,17.2-3,26.4,2.4,7.4,7,13.3,13.1,18.1.4.3.8.5.8,1.1-10.9-6.1-16.4-16.1-19.5-27.9-1,3.1-1.9,6.1-2.1,9.2-.7,8.3,1.4,15.6,7.4,21.6,5.1,5.1,11.3,8.1,18.1,10,1.4.4,2.8.8,4.2,1.3-.1.1-.1.2-.2.4-12.1-2-22.6-7.3-30.7-16.8.4,2.9,1.1,5.5,1.8,8.1,3.6,11.5,13.8,17.6,23.8,18.1,3,.2,6,.1,9,0,.2-.1.5-.2.7,0,.1.1-.3.2-.5.2-9.4,1.8-18.4.8-27.2-3.5.8,1.4,1.4,2.5,2.1,3.6,5.2,8.4,12.4,12.5,22.6,9.9,2.1-.5,4.2-1.2,6.3-1.7-5.4,3.1-11.1,5-17.5,5,1,1,2.2,1.6,3.2,2.3,5.2,3.4,10.6,3.8,16.2,1.2,1.8-.9,3.6-1.8,5.6-2.5,1.4-.4,2.6-.1,3.7.8,1.1.9,1.6,2,1.9,3.4.4,1.7,1.1,6.1-.2,14.9l-5.1,14.8h1.8l5-14.5c2.4-10.7.5-17.1-1.7-20.3-1-1.5-2.1-2.9-3.1-4.3-3.8-5.1-5.6-10.9-6.3-17.1-.4-3.1-.3-6.2-.7-9.2-.4-3.2-1.7-5.8-3.9-8-3-3.1-6.2-5.9-8.8-9.3-8.1-10.9-10.1-22.9-5.7-35.6,2.8-8.1,8-14.9,14.8-20.2,1.2-.9,2.5-1.8,3.7-2.7.1,0,.3-.1.3-.1.1.1,0,.2-.1.2-.6,1.2-1.6,2.1-2.4,3.1-5.9,7.3-9.8,15.5-11.3,24.9-1.8,12,.1,23.2,7.2,33.2,1.4,1.9,3,3.6,4.7,5.1,3.1,2.9,4.3,6.5,4.4,10.6.2,5.1.3,10.2,1.8,15.2,1.1,3.7,2.7,7.1,5.1,10.1,1.6,2.1,3.1,4.3,4.6,6.5,1.4,2.1,3.8,7.4,4.9,10.5v9.6h0l-12.3,12.3h2.4l9.8-9.8v9.8h1.7v-9.8l9.8,9.8h2.4l-12.2-12.1ZM118.9,160.7c1.6.5,3.3.9,5.2,1.4-4.2,1.7-8.2,2-12.2.2-1.5-.7-2.9-1.4-4.4-2-1.4-.6-2.8-1.1-4.5-.9,2.1-2.8,4.6-3.5,7.8-2.1,2.7,1.1,5.3,2.6,8.1,3.4ZM118.8,149.8c6.6,1.2,13.1.7,19.5-1.4h.3l-.2.2c-3.6,5.2-11.3,9.2-19,7-3.1-.9-6.1-1.9-9.3-2.2-1.2-.1-2.3.1-3.5.5.2-2.1,2.4-4.2,4.5-4.6,2.7-.5,5.2,0,7.7.5ZM122.5,139.2c9.4-1.5,17.7-5.2,24.7-11.7.1-.1.3-.2.4-.3.1-.1.2-.2.3-.2.1.2.1.4-.1.5-2.1,7.2-6.8,12.1-13.4,15.3-4.7,2.3-9.7,2.4-14.8,2.3-2.8-.1-5.7-.1-8.4.9-.7.3-1.3.6-2.1,1,.6-3.4,2.7-5.3,5.6-6.4,2.6-.9,5.3-1,7.8-1.4ZM147.2,103.8c.1-.3.2-.5.4-.8,0-.1.1-.1.3-.3.5,2.8.5,5.4.1,8-1.3,9.7-7.2,15.9-15.6,20.1-2.8,1.4-5.7,2.3-8.6,3.2-4.5,1.4-9.1,2.5-12.7,6.2,0-3.1,1-5.5,3.1-7.4,2-1.8,4.4-3,6.9-3.9,12.5-4.4,21.1-12.9,26.1-25.1ZM138,88.4c.1-2.1,0-4.3,0-6.5v-1.4c1.8,2.6,2.9,5.4,3.4,8.4,1.6,9.4-1.4,17.6-7.1,24.9-3,3.9-6.7,7.1-10.9,9.8-4.1,2.6-8.3,5.1-11.8,8.8.1-2.5,1-4.5,2.2-6.4,2.3-3.6,5.6-6.2,9-8.7,9.8-7.2,14.4-17,15.2-28.9ZM76.5,159.4c-3.5.1-6.4,1.7-9.3,3.1-3.9,1.8-7.8,1.4-11.9-.3,1.9-.5,3.6-.8,5.2-1.4,2.3-.8,4.5-1.8,6.6-2.9.7-.4,1.5-.8,2.3-1,3.2-.9,4.9-.3,7.1,2.5ZM72.5,153.3c0,.1.1.1.1.2h-.2c-2.9-.9-5.7,0-8.4.8-2.9.9-5.7,1.8-8.8,1.8-6,.1-10.2-3.1-14-7.6,3.1.7,5.8,1.3,8.7,1.6,4.2.4,8.2,0,12.3-.7,1.7-.3,3.5-.5,5.3-.2,2.5.4,4,1.8,5,4.1ZM69.9,146.9c-4.5-2.5-9.1-1.8-13.7-1.9-7.2-.2-13.5-2.2-18.6-7.6-2.7-2.9-4.5-6.3-5.6-10.3,1.7,1.4,3.3,2.6,4.9,3.8,7.1,5,14.9,7.7,23.5,8.8,2.8.4,5.5,1,7.6,3.1.9,1,1.6,2.3,1.9,4.1ZM68.3,140c-4-3.9-9.2-5.1-14.2-6.8-6.1-2-11.7-4.8-16.2-9.6-5.3-5.7-7.1-12.5-6.2-20.1,0-.4.1-.7.1-1.1,1.1,2.6,2.3,5,3.6,7.4,4.2,8,10.8,13.4,18.9,17,2.7,1.2,5.4,2.1,7.9,3.6,3.4,2.1,5.9,4.8,6,9,.2.3.2.4.1.6ZM51.7,123.2q0-.1,0,0t.2.1l-.1.1c-.1-.1-.1-.2-.1-.2ZM52.1,123.4c.1,0,.1.1.2.1,0,.1-.1.2-.1.3,0-.1-.1-.1-.1-.2q-.1-.2,0-.2ZM64.3,124.1c1.9,2.3,3.1,4.9,3.3,8.1-4.4-4.6-10-7.2-14.7-10.9-6.5-5.3-11.7-11.5-14-19.7-2.1-7.5-1.4-14.7,2.6-21.8v1.9c-.1,5.4.2,10.8,1.7,16.1,2.1,7.5,6.2,13.6,12.2,18.5,3,2.5,6.3,4.8,8.9,7.8ZM89.6,169.2c-1.9-5.7-5.6-10.1-9-14.8-3.7-5.1-5.5-10.8-5.5-17.1,0-2.9.7-5.7,1.8-8.4,2.2-5.4,2.3-10.7.3-16.2-1.6-4.5-1.6-9.1.2-13.5,1.6-4.1,4.3-7.3,8.7-8.5,2.5-.7,4.9-.3,7.3.7,2.6,1.1,4.9,2.7,6.7,4.8.9,1.1,1.8,2.2,1.5,3.9-1.7-1.3-3.5-2.4-5.5-2.9-5.9-1.7-11.6,3.1-10.9,9.2.4,3.4,2,6.2,4.2,8.6,3.1,3.3,6.3,6.5,8.9,10.2,3.2,4.7,5.4,9.7,5,15.6-.3,4.6-1.7,8.8-4.4,12.6-1.3,1.8-2.5,3.6-3.9,5.3-2.2,3.3-4.2,6.7-5.4,10.5Z"/>
    </g>
  </g>
  <g id="Organic_Roots" class="st5">
    <g>
      <path class="st3" d="M99.1,181v-.1.1Z"/>
      <path class="st3" d="M98.7,178.2v.4-.4Z"/>
      <path class="st3" d="M98.8,178.6c0,.2,0,.4.1.6-.1-.3-.1-.5-.1-.6Z"/>
    </g>
    <path class="st3" d="M92,159"/>
    <path class="st3" d="M168.3,205.1c-6.4-4.5-13.3-5.4-20.4-4.2-2.4.4-4.7,0-7-1.1-3.7-1.8-7.5-3.2-11.6-2.9-4.3.2-8.5.3-12.8.1-3.2-.2-6.3-.8-9.3-2.8-3.3-2.3-5-5.9-7.4-9.6-.2-.4-1.1-1.4-1.7-3.7s0-8.6,0-8.6h-17.4s.6,6.8,0,8.6-.6,1.8-1,2.6c-1,1.9-2.2,3.4-3.1,4.8-6.3,9.8-20.3,12.4-28.6,8.1-4.9-2.6-9.5-2.6-14.3.4-4.3,2.8-8.8,5-13.7,5-2.4,0-4.6.8-6.8,2.2-2.6,1.7-5,4.1-8.4,4.7,1.6.8,2.8.2,3.9-.4,4.8-2.6,9.7-4.8,15-4.1,1.6.2,3.2-.3,4.7-.9,2.8-1,5.5-2.1,8.3-3.2-2.9,2.8-5.3,6.1-7.5,9.7-1.8,2.8-4.1,4.7-6.8,5.1-4.7.8-8,4.5-11.1,8.6,3.1-2.2,6.2-4.7,9.8-5.4,5.4-1.1,9.7-4.4,12.9-10.3,1-1.8,2.5-3.2,3.9-4.7,2-2.1,4.4-2.7,6.7-1.6,6.6,3.1,13.4,3.9,20.3,2.4-3.5,3.6-7.6,5.8-11.9,6.2-6.6.7-11.9,3.8-15.6,11.2-1.3,2.5-3.2,3.6-5.4,4-2.6.5-5.1,1-7.3,3.1-2.5,1.8-4.2,4.8-6,7.7,2.2-2.2,4.4-4.4,6.6-6.6h0c3.6-2.5,7.9-1.7,12.1-4-3.8,6.2-6.5,12.6-10.5,17.7.7.3,1.2-.4,1.6-.9,4-5.5,8.5-10.5,10.9-17.6,1.4-4,3.6-6.8,6.8-7.8,3.7-1.1,7.5-1.8,11.2-2.7-4,3.4-7.4,7.7-8.5,13.9-1.1,6-3.7,10.1-7.3,13.6-2.7,2.5-4.6,6-5.1,10.5,1.3-3.6,3.3-6.4,5.8-8.6,2.4-2.2,4.9-4.4,6.9-7.8.9,5,.5,9.4-.4,13.9,1.6-1.7,2.5-3.8,2.8-6.3.3-1.7,0-3.4.1-5,.2-3.1-.4-6.3.3-9.3,1.1-4.3,3-7.8,5.7-10.6,3-3,6.2-5.7,8.4-9.4-.1,8.5,2.1,17.7-3.9,24.7,3.9-1.7,6-5.3,6.6-10.4.3-3.2.3-6.4.4-9.6.1-4.1,1.3-7.7,3.9-10,3.1-2.8,6.3-5.3,9.6-8.1,0,.4-.8,2.5-1.3,3.3-3,5.9-4.7,12.3-5,19.4-.2,6.1-1.6,11.5-4.8,16.2-2.5,3.6-5.3,6.5-8.5,9.1-2.3,1.9-4.4,4-5.6,7.3-1.4,3.6-1.7,7.9-4.3,10.7,1.9-1.4,3.5-3.2,4.1-5.9,1.4-5.9,5.2-8.4,8.8-11.3-1.9,5.2-1.3,10.2.2,15.2.1,2.5-.1,4.9-.7,7.2,1.9-3.5,2.2-7.3,1.2-11.3h0c-.6-6.1,1.2-10.9,4.7-14.8,2.2-2.4,4.3-4.9,5.7-9.1,0,4,.9,6.9,1.8,9.7s.9,5.7-.1,8.4c-.7,2-1.5,3.9-2.3,5.8-1,2.6-1.5,5.4-1.2,8.4.6-1.8.8-3.9,1.7-5.5,2.7-4.6,5.5-9,4.7-15.8,3.5,4.8,4.9,9.9,4.6,15.8-.1,2.1.3,4,1,5.8,1.3,3,2.6,5.9,4.1,9.3-.1-2.8-.9-4.7-1.6-6.7-1.1-2.8-1.7-5.8-1.5-9,.3-5.4-.5-10.4-3.1-14.7-2.7-4.6-4.7-9.5-5.3-15.4-1.1-13,2.5-20.8,2.5-20.8-.4,5.8.6,10.3,2.7,14.5,1.7,3.4,3.6,6.5,5.8,9.3,2.9,3.6,4.6,8,4.5,13.4-.1,10.1,3.5,17.6,9.3,23.7-1.7-5.5-5.6-9.4-6.5-15.4-.3-4.2,0-9.8-.5-12.8s-.6-2.4-.5-4.2c1.5,3.7,3.6,5.9,5.7,8.2,1.6,1.6,3.2,3.4,3.8,5.9,1.4,5.8,4.4,9.5,8.6,12.7-.8-1.9-1.7-3-2.7-4-1.7-1.6-2.9-3.7-3.3-6.3-.8-5-3-8.6-5.9-11.8-4.5-4.9-8.3-10.6-11.7-16.9-3.4-6.4-6-13.3-5.3-18.8.7-5.4,2.4-8.2,2.4-8.2,0,0,.9,5,3.3,9.9s2.4,4.9,5.4,8.3c1.4,1.6,2.7,3.3,4,4.9,2.9,3.3,4.6,7.4,5.2,12.3.2,1.5.2,3.3,1.3,4.8.2-6.8.1-13.2-3.7-18.3,3.9,2.4,6.7,6.4,9.9,9.9,3.5,3.7,5.4,8.1,4.7,14.4-.5,4.5.3,8.8,3.2,11.9,2.2,2.3,4.6,4.4,6.2,7.5-.5-2.5-1.5-4.5-2.8-6.1-4.2-4.9-4.9-11.1-4.2-17.6,5.9.3,8.4,7.8,13.1,10.9-2.1-2.2-3-5.5-4.6-8,7.3.6,11.9,7.1,16.9,12.9-1.5-2.9-3.2-5.3-4.6-8-2.4-4.4-5.7-6.2-9.6-7.3-4.4-1.2-9-2.6-11.9-7.6-4.4-7.8-9.8-13.5-16.4-17.6-4.5-2.7-7.1-8-9.1-14.4,2.5,1.4,4.7,2.1,6.9,2.6,5,1.1,9.2,3.8,11.5,10.5,1.8,5.4,5.3,8.6,9.7,10,4.1,1.3,7.5,3.7,9.6,8.9.4,1.1,1,2.1,2.1,2.7-1.3-5.6-3.2-10.3-7.3-12.6-1.4-.8-2.8-1.5-4.2-2.2-3.1-1.3-5.2-4-6.6-7.8-1.2-3.3-2.1-6.9-4.4-9.4,2.5,1.3,4.9,2.6,7.5,3.4,5,1.4,9.3,4.1,12.8,9.1,2.9,4,6,7.6,10,9.7,2.4,1.2,3.9,3.7,4.9,6.7.7,2,1.3,4.1,2.1,6,.6,1.5,1.3,3,3.1,3.3-3.4-4.7-2.8-11.7-6.8-15.9,6.8.9,12.3,4.4,16.8,11.8-3.3-9.8-9.2-12.8-15.8-14.5-4.3-1.1-8.2-3.3-11-8-3.3-5.7-6.7-11.1-12.6-11.8.9-.2,1.5-1.1,3.1-1.1s3.2-.3,5.2.4c1.2.5,2.5.8,3.7,1.4,4.7,2.1,9.2,5.2,14,7.1,2.6,1,4.9,2.8,6.8,5.3,3.6,4.4,8.2,6.4,12.6,8.8-.7-.9-1.5-1.7-2.4-2.3-3.9-2.7-7.5-6-10.7-10.2-1.9-2.5-4.4-3.7-7-4.7-1.1-.4-2.2-1-3.9-1.7,1.6-.1,2.6-.1,3.5-.3,5.3-1.1,10.5-1,15.6.9,2.3.8,4.4,2.2,6.8,2.4.3-.2.6-.2.8-.7-.7-.4-2.1-.9-3.3-1.8Z"/>
  </g>
</svg>